<svg version="1.2" xmlns="http://www.w3.org/2000/svg" viewBox="0 0 367 218" width="374" height="222"><style>.a{fill:#e72f63}.b{fill:#11171f}.c{fill:none;stroke:#11171f;stroke-miterlimit:10;stroke-width:3}</style><path fill-rule="evenodd" class="a" d="m101.1 49.7c-4.7 6.3-12 10.6-19.2 13.9-3.3 1.4-6.8 3-10.5 3.5q0.4 6.8 1 13.7c0.2 1.9-0.2 4.2-1.7 5.5-1.5 1.6-3.7 2.3-5.6 2.3-2.9 0-5.6-1.5-6.8-4.5-0.5-1.6-1-8.8-1.1-10.4-0.5-7.7-0.5-15.4-0.5-23q0-10.1 0.4-20.2c0-0.5 0.1-1.9 0.3-3.5q-6.7 1.7-13.1 4.3-2.1 0.9-4.2 2-1.7 0.9-3.6 0.9-1-0.1-1.9-0.2c-1.8-0.4-3.3-1.8-4.2-3.3-1-1.5-1.2-3.7-0.7-5.4 0.4-1.6 1.7-3.5 3.2-4.3q4.3-2.1 8.8-3.8c8.8-3.5 18-5.5 27.3-6.5q0.9-0.1 1.8 0.2c1.5-0.2 2.9-0.2 4.1-0.2 2.7 0 5.3 0.2 7.9 0.5 12 1 20.9 7.8 22.8 20.1 0.9 6.2-0.7 13.4-4.5 18.4zm-33.5-24.7q-0.6 0.1-1.2 0.2 0.4-0.1 0.7-0.1 0.3 0 0.5-0.1zm-1.6 0.2q0.2 0 0.4 0-0.2 0-0.4 0zm1.9-0.2q-0.1 0-0.3 0 0.2 0 0.3 0zm22.4 5.4c-1.7-4.1-4.2-5.5-8.6-5.8-3.1-0.4-6.4-0.4-9.5-0.3-1.1 9.6-0.9 19.3-0.9 29 5.7-1.8 15.7-7.1 18.6-12.6 1.7-3.1 1.8-6.9 0.4-10.3z"/><path class="a" d="m159.1 86.8c-2 0-4.1-0.8-5.6-2.6-1.3-1.7-1.8-4.3-1.4-6.4q0.5-3.2 0.6-6.4c0.3-5.7 0.5-11.4 0.5-17.1 0.1-4 0-8.2-0.7-12.1-6.6 5.8-11.1 14-14.7 22.2-1 2.1-5.3 13.1-6.7 15-2.3 3.1-4.5 5.5-8.6 5.5-3 0-5.8-1.6-7.3-4.5-2-4.3-2.3-9.2-2.7-13.9-0.5-5.9-0.3-11.9 0-17.8 0.2-4.6 2.8-32 3.2-36.6 0.3-3.2 4-6.2 7.1-6.2 3.8 0 7.5 3.4 7.3 7.4-0.8 13.4-2.8 26.9-3.2 40.3 4.9-10 16.6-28.1 27.7-27.8 12.9 0.4 13.3 18 13.3 27.3-0.2 8.2-0.4 16.5-1.2 24.8-0.3 4.6-2.2 8.9-7.6 8.9z"/><path fill-rule="evenodd" class="a" d="m195.1 88.9c-7.2 0-13.2-4.8-16.5-11-3.7-6.9-4.6-15.3-3.9-23.2 0.7-7.7 4.2-18.9 11.3-23.3 0.1-0.1 0.3-0.4 0.4-0.5 1.3-2.4 4-3.7 6.4-3.7 3.2 0 12.3 2.9 15.1 4.2 4.9 2.4 8.4 7.5 9.9 12.7 2.6 9 1.8 19.3-2 27.7-3.5 8.1-11.1 17.1-20.7 17.1zm0-14.6c1.2 0 2.8-1.5 3.4-2.3 4.7-4.9 6.9-12.8 6.2-19.6-0.7-6.6-1.9-8.1-8.3-9.7-0.2 0-0.8 0.6-1.1 0.7-0.1 0.1-0.9 0.5-1.1 0.6-0.3 0.1-0.9 0.1-1 0.3-1 1-1.5 2.5-2.1 3.8-2.2 5.7-2.6 12.3-1.4 18.4 0.4 2 2.9 7.8 5.4 7.8z"/><path class="a" d="m251.3 90.6c-17.5 0-18.7-17.4-18.7-31.2-1.8 0-3.7-0.2-5.2-1-3.1-1.8-4.4-5.6-3.2-8.9 0.4-1.3 1.2-2.2 2.1-3.1 1-1.1 4.2-2.1 6-2.1 0.3 0 1.1 0.1 1.1-0.1 0.1-2 1-12.1 1.5-14.1 1-3.8 3.3-7.5 7.8-7.5 3.1 0 6 2 7 5.6 0.5 1.3 0.5 3-0.2 4.4 0 0.1-0.3 0.7-0.4 1-0.6 3.1-0.8 6.2-1.1 9.5 2.2-0.4 4.3-0.7 6.5-0.8 1.3-0.1 2.5 0.3 3.6 0.9 1.6 0.7 2.6 2.2 3.4 3.8 0.7 1.5 0.4 3.4 0 4.9-0.5 1.6-1.8 2.9-3.2 3.8-1.6 1.3-9 1.8-11 2.2-0.2 4.4-0.3 8.9 0.6 13.3 0.3 2 0.6 4.8 3.1 4.8 1.5 0 3.7-0.5 4.7-0.9 0.7-0.2 1.3-1 1.9-1.6 0.9-0.8 2.1-1.3 3.3-1.6 1.6-0.4 3.5 0.1 5 0.9 3.9 1.8 5 7.9 2 11.1-4.6 4.5-10 6.7-16.6 6.7z"/><path fill-rule="evenodd" class="a" d="m294.2 88.9c-7.2 0-13.2-4.8-16.5-11-3.7-6.9-4.6-15.3-3.9-23.2 0.7-7.7 4.3-18.9 11.3-23.3 0.1-0.1 0.4-0.4 0.5-0.5 1.2-2.4 3.9-3.7 6.4-3.7 3.1 0 12.3 2.9 15.1 4.2 4.8 2.4 8.4 7.5 9.8 12.7 2.6 9 1.8 19.3-2 27.7-3.5 8.1-11.1 17.1-20.7 17.1zm0-14.6c1.2 0 2.8-1.5 3.5-2.3 4.7-4.9 6.8-12.8 6.1-19.6-0.6-6.6-1.9-8.1-8.3-9.7-0.2 0-0.7 0.6-1.1 0.7-0.1 0.1-0.9 0.5-1.1 0.6-0.2 0.1-0.9 0.1-1 0.3-1 1-1.5 2.5-2 3.8-2.3 5.7-2.7 12.3-1.5 18.4 0.5 2 2.9 7.8 5.4 7.8z"/><path class="b" d="m193.5 133.8q0.1 0.2 0.1 0.5 0 0 0 0 0-0.3-0.1-0.5z"/><path class="b" d="m193.7 134.3q0-0.1 0-0.1 0 0 0-0.1 0 0-0.1-0.1 0-0.1 0-0.2 0 0 0 0h-0.1q0 0 0 0 0 0.1 0 0.2 0 0.1 0 0.2 0 0.1 0 0.1h0.2q0 0 0 0zm2.3 28.1zm-0.1-1.7q0 0.8 0.1 1.5v0.1q0 0 0 0.1-0.1-0.9-0.1-1.7zm-0.7-11.9h-0.1 0.1zm2.1 25h0.1zm-0.1 0h0.1z"/><path fill-rule="evenodd" class="b" d="m238.5 183.4c-7.2 0-13.2-4.9-16.5-11.1-3.7-7-4.6-15.4-3.9-23.3 0.6-7.7 4.2-19 11.3-23.4 0.1-0.1 0.4-0.4 0.5-0.5 1.2-2.4 3.9-3.8 6.4-3.8 3.1 0 12.4 3 15.2 4.3 4.8 2.4 8.4 7.6 9.9 12.7 2.6 9 1.8 19.4-2 27.8-3.5 8.2-11.2 17.3-20.9 17.3zm0-14.7c1.3 0 2.9-1.6 3.5-2.3 4.8-5 6.9-12.9 6.2-19.7-0.7-6.7-1.9-8.1-8.3-9.7-0.2 0-0.8 0.5-1.1 0.7-0.1 0.1-0.9 0.4-1.2 0.5-0.2 0.1-0.9 0.1-1 0.4-1 1-1.4 2.4-2 3.8-2.2 5.7-2.7 12.4-1.5 18.4 0.5 2.1 3 7.9 5.4 7.9z"/><path fill-rule="evenodd" class="b" d="m238.5 183.4c-6.6 0-13-4.2-16.6-11-4.2-8-4.4-17.1-3.9-23.4 0.7-8.3 4.6-19.2 11.4-23.4 0-0.1 0.1-0.2 0.2-0.3q0.1-0.2 0.2-0.3c1.2-2.2 3.8-3.7 6.5-3.7 3.1 0 12.4 2.9 15.2 4.3 4.5 2.2 8.4 7.1 10 12.7 2.5 9 1.8 19.4-2.1 27.9-1.9 4.5-4.8 8.6-8.1 11.7-3.9 3.6-8.3 5.5-12.8 5.5zm-2.2-62c-2.7 0-5.2 1.5-6.4 3.7 0 0.1-0.1 0.2-0.2 0.3q-0.1 0.2-0.2 0.3c-6.8 4.2-10.6 15-11.4 23.3-0.5 6.3-0.3 15.4 4 23.3 3.5 6.8 9.8 11 16.4 11 9.3 0 17.2-8.6 20.8-17.2 3.8-8.4 4.6-18.8 2-27.7-1.6-5.7-5.3-10.5-9.8-12.7-2.8-1.4-12.1-4.3-15.2-4.3zm2.2 47.4c-2.5 0-5-6-5.4-7.9-1.3-6.3-0.8-12.9 1.4-18.5q0.2-0.4 0.3-0.8c0.5-1.1 0.9-2.2 1.8-3.1 0.1-0.1 0.4-0.2 0.6-0.3q0.3 0 0.4 0 0.1-0.1 0.3-0.2c0.3-0.1 0.7-0.3 0.8-0.4 0.2-0.1 0.4-0.2 0.6-0.4 0.2-0.1 0.5-0.3 0.6-0.3 6.5 1.6 7.7 3.1 8.4 9.8 0.7 7.2-1.7 15-6.2 19.7-0.4 0.4-2.1 2.4-3.6 2.4zm0.3-31.1c-0.1 0.1-0.4 0.3-0.8 0.4q-0.2 0.1-0.3 0.2-0.2 0-0.4 0.1c-0.3 0-0.6 0.1-0.6 0.2-0.8 0.8-1.3 2-1.7 3.1q-0.2 0.4-0.3 0.7c-2.2 5.6-2.8 12.2-1.5 18.4 0.5 2.3 3 7.9 5.3 7.9 1.4 0 3.1-2 3.5-2.4 4.4-4.7 6.9-12.4 6.2-19.6-0.7-6.6-2-8.1-8.3-9.7-0.1 0.1-0.3 0.2-0.5 0.4-0.2 0.1-0.4 0.3-0.6 0.3z"/><path class="b" d="m364.4 100.1c-0.6 2-1.8 3.4-3.5 4.5q-0.9 0.7-1.8 1.3 0.1 0 0.2-0.1-0.4 0.3-0.8 0.6 0.3-0.2 0.6-0.5c-3.1 2.6-6 5.5-8.6 8.6q0.3-0.4 0.6-0.7-0.6 0.7-1.2 1.5 0.3-0.4 0.6-0.8c-2.2 3.1-4.2 6.4-5.7 9.8q0.2-0.4 0.4-0.9-0.4 0.9-0.8 1.8 0.2-0.4 0.4-0.8c-1.4 3.6-2.4 7.3-3 11.1q0-0.5 0.1-1.1-0.1 1.1-0.3 2 0.1-0.4 0.2-0.9-0.2 1.2-0.2 2.3 0 0.9-0.3 1.8c-0.2 2.5-0.5 4.8-0.7 5.9-0.8 5.4-2.1 10.8-3.8 16-2.5 7.6-6.8 17.5-16.1 17.5-8.7 0-14-9.2-17-16.1-2.1 4.6-4.5 9.3-7.6 13.4-2.4 3-6.2 5.7-10.3 5.7-12.8 0-15.7-18-16.5-27.7-0.3-2.8-0.8-18.2-0.7-21 0.3-4.2 2.8-7.8 7.4-7.8 4.2 0 8.5 3.5 7.6 8.7-0.2 0.2-0.4 0.9-0.4 1.1 0.1 5.6 0.2 11.3 0.6 16.9 0.2 4.4 0.7 8.9 2.2 12.9 3.9-6.2 6.4-12.9 9.2-19.7 1.8-4.6 3.6-9.5 9.4-9.5 2.8 0 5.5 1.3 7 4.1 1.7 3.3 2.1 7.1 3.1 10.6 1.4 4.4 2.8 8.9 5.7 12.4 3.9-7.4 5.4-15.9 6.2-24.3q0.3-3 0.5-5.8 0-0.1 0-0.1 0.3-2.1 0.7-4.1 0.5-2.4 1.2-4.7c2.5-8.1 6.7-15.3 12.3-21.7 3.5-4.1 7.6-7.6 12.1-10.6 1.6-1.2 3.9-1.2 5.7-0.8 1.9 0.5 3.5 1.9 4.5 3.5 1 1.6 1.3 4 0.8 5.7z"/><path fill-rule="evenodd" class="b" d="m285.8 182.1c-5.6 0-9.9-3.5-12.8-10.3-2-4.5-3.2-10.4-3.8-17.5-0.2-2.9-0.8-18.3-0.7-21 0.3-3.6 2.5-7.9 7.5-7.9 2.3 0 4.6 1.1 6.1 2.8 1 1.2 2 3.2 1.5 6-0.1 0.2-0.3 0.9-0.3 1.1 0.1 5.5 0.2 11.2 0.6 16.9 0.2 4.2 0.6 8.7 2.2 12.8 3.4-5.7 5.9-12 8.4-18q0.3-0.8 0.6-1.6l0.1-0.3c1.8-4.6 3.6-9.3 9.4-9.3 3.1 0 5.7 1.5 7 4.2 1.2 2.2 1.8 4.7 2.4 7.2 0.2 1.1 0.5 2.3 0.8 3.4 1.5 4.7 2.9 8.9 5.6 12.3 4-7.7 5.4-16.6 6.1-24.2 0.2-2.1 0.4-4.1 0.5-5.8v-0.1q0 0 0 0 0.3-2.1 0.7-4.2 0.6-2.4 1.3-4.6c2.4-7.9 6.5-15.2 12.2-21.7 3.3-3.8 7.3-7.3 12.1-10.7 1.5-1 3.6-1.3 5.8-0.7 1.8 0.3 3.4 1.6 4.6 3.4 1 1.5 1.3 3.9 0.7 5.9-0.4 1.8-1.6 3.2-3.4 4.5q-1 0.6-1.9 1.3c-3.1 2.6-6 5.4-8.5 8.5-2.3 3.1-4.2 6.4-5.7 9.9h-0.1q0 0 0 0c-1.4 3.6-2.4 7.3-3 11.1q-0.1 1-0.2 2.3 0 0.9-0.2 1.8c-0.2 2.4-0.5 4.7-0.7 5.9-0.7 5.1-2 10.5-3.8 16-1.1 3.3-2.8 8-5.5 11.6-3 3.9-6.5 5.9-10.7 5.9-3.9 0-7.5-1.8-10.7-5.4-2.3-2.6-4.3-6.1-6.3-10.6-2.1 4.6-4.5 9.3-7.6 13.3-2.2 2.8-6 5.8-10.3 5.8zm-9.8-56.5c-5 0-7.1 4.1-7.3 7.7-0.1 2.7 0.4 18.1 0.6 21 0.6 7.1 1.9 13 3.8 17.5 2.9 6.7 7.1 10.1 12.7 10.1 4.2 0 8-2.9 10.2-5.7 3.1-4 5.5-8.8 7.6-13.4l0.1-0.1 0.1 0.1c2 4.6 4 8.1 6.3 10.7 3.2 3.6 6.8 5.4 10.6 5.4 4.1 0 7.7-2 10.6-5.9 2.7-3.6 4.4-8.3 5.4-11.5 1.8-5.5 3.1-10.9 3.9-16 0.1-1.2 0.4-3.5 0.7-5.9q0.2-0.9 0.2-1.8 0-0.7 0.1-1.4 0.1-1 0.2-2h0.1q0.8-4.7 2.5-9.2v-0.1q0.1-0.4 0.3-0.8 0.2-0.5 0.4-0.9h0.1q1.9-4.3 4.7-8.1 0.2-0.4 0.5-0.8 0.3-0.4 0.6-0.8l0.1 0.1c2.2-2.7 4.7-5.2 7.4-7.4v-0.1q0 0 0 0l0.2-0.1q0.3-0.2 0.6-0.5 0.8-0.6 1.6-1.1c1.8-1.3 2.9-2.7 3.4-4.5 0.5-1.9 0.2-4.2-0.7-5.7-1.2-1.8-2.8-3-4.5-3.4-2.2-0.5-4.3-0.2-5.7 0.7-4.9 3.4-8.8 6.9-12.1 10.7-5.6 6.5-9.8 13.8-12.2 21.6q-0.7 2.2-1.2 4.7-0.4 2-0.8 4.1 0 0 0 0.1c-0.1 1.7-0.2 3.7-0.5 5.8-0.7 7.7-2 16.6-6.2 24.3v0.1l-0.1-0.1c-2.7-3.4-4.2-7.6-5.6-12.4-0.4-1.1-0.6-2.3-0.9-3.4-0.5-2.4-1.1-4.9-2.3-7.1-1.3-2.7-3.9-4.2-6.9-4.2-5.7 0-7.5 4.7-9.3 9.2l-0.1 0.3q-0.3 0.8-0.6 1.6c-2.4 6.1-5 12.4-8.5 18.2l-0.1 0.1v-0.2c-1.6-4.1-2.1-8.6-2.3-12.9-0.3-5.6-0.4-11.4-0.5-16.9 0-0.2 0.2-0.9 0.3-1.2 0.5-2.7-0.6-4.6-1.5-5.8-1.5-1.7-3.7-2.7-6-2.7z"/><path class="b" d="m326.6 137.8q0.1-2.5 0.5-4.9-0.2 2.8-0.5 5.8-0.1-0.5 0-0.9z"/><path class="b" d="m326.6 139.3l-0.1-0.6q0-0.5 0-0.9 0.2-2.5 0.5-4.9h0.1c-0.1 1.7-0.2 3.7-0.5 5.8z"/><path class="b" d="m341.6 136.4q0.2-0.9 0.3-2-0.1 0.6-0.1 1.1-0.1 0.5-0.2 0.9z"/><path class="b" d="m341.7 136.5l-0.1-0.1q0.1-1 0.2-2l0.2 0.1q-0.1 0.5-0.2 1 0 0.5-0.1 0.9 0 0 0 0.1z"/><path class="b" d="m344.4 125.2q0.4-0.9 0.8-1.8-0.2 0.5-0.4 0.9 0 0.1 0 0.1-0.2 0.4-0.4 0.8z"/><path class="b" d="m344.5 125.2l-0.1-0.1q0.1-0.4 0.3-0.8 0.2-0.5 0.4-0.9h0.1q0 0 0 0v0.1q-0.2 0.4-0.3 0.9-0.1 0-0.1 0-0.1 0.3-0.2 0.6z"/><path class="b" d="m349.9 115.3q0.6-0.8 1.2-1.5-0.3 0.3-0.6 0.7-0.3 0.4-0.6 0.8z"/><path class="b" d="m350 115.3h-0.1q0 0 0 0 0.2-0.4 0.5-0.8 0.3-0.4 0.6-0.8l0.1 0.1q-0.2 0.3-0.4 0.7h-0.1q-0.3 0.4-0.6 0.8 0 0 0 0z"/><path class="b" d="m359.3 105.8q-0.1 0.1-0.2 0.1-0.3 0.3-0.6 0.5 0.4-0.3 0.8-0.6z"/><path class="b" d="m358.5 106.5v-0.2l0.2-0.1q0.3-0.2 0.6-0.5l0.1 0.1-0.1 0.1q-0.1 0-0.2 0.1-0.2 0.2-0.6 0.5z"/><path class="b" d="m193.7 134.3h-0.1q0 0 0 0.1 0-0.1 0-0.1 0 0 0 0 0-0.3-0.1-0.5 0.1 0.2 0.1 0.5 0-0.1 0.1-0.1 0 0 0 0.1 0 0 0 0z"/><path class="b" d="m195.1 148.8q0-0.5-0.1-1.1 0 0.6 0 1.1v0.1h0.1l0.1-0.1zm-1.4-14.5h-0.1 0.1-0.1q0-0.1 0-0.1 0 0 0-0.1 0 0 0-0.1 0-0.1 0-0.2 0 0 0 0h-0.1q0 0 0 0 0 0.1 0 0.2 0 0.1 0 0.2 0 0.1 0 0.1 0 0.1 0 0.1 0.1 0 0.1 0 0-0.1 0-0.1h0.1q0 0 0 0z"/><path class="b" d="m197.2 173.8h0.1zm-0.1 0h0.1zm-1.2-11.4h-0.1q0.1 0.8 0.2 1.7-0.1-0.9-0.1-1.7zm0 0h0.1v-0.1z"/><path class="b" d="m211.5 169.2q-0.1-0.8-0.2-1.5 0.1 0.5 0.2 1 0 0 0 0 0 0.3 0 0.5z"/><path class="b" d="m211.6 169.2h-0.1q-0.1-0.4-0.1-0.8-0.1-0.4-0.1-0.7l0.1-0.1q0.1 0.5 0.1 1 0.1 0.1 0.1 0.1 0 0 0 0 0 0.2 0 0.3z"/><path class="b" d="m222.2 192.6q-0.8-0.6-1.5-1.2 0.3 0.3 0.7 0.6 0.4 0.3 0.8 0.6z"/><path class="b" d="m222.3 192.6h-0.1v0.1q-0.8-0.6-1.6-1.2l0.1-0.1q0.4 0.3 0.8 0.5 0.4 0.4 0.8 0.7z"/><path class="b" d="m228.1 195.7q-0.7-0.3-1.3-0.6 0.2 0.1 0.4 0.2 0.4 0.2 0.9 0.4z"/><path class="b" d="m228.1 195.6v0.1l-0.1 0.1q-0.6-0.3-1.3-0.6l0.1-0.1q0.2 0.1 0.4 0.1 0 0.1 0.1 0.1 0 0 0 0 0.4 0.2 0.8 0.3z"/><path class="b" d="m234.1 197.3q-0.5-0.1-0.9-0.1v-0.1q0.5 0.1 0.9 0.2z"/><path class="b" d="m239.2 197.2q-0.5 0-1 0.1 0.4-0.1 0.8-0.2 0 0 0 0 0.1 0 0.2 0z"/><path class="b" d="m243.4 195.7q-0.9 0.4-1.8 0.8 0.4-0.2 0.9-0.4 0.4-0.2 0.9-0.4z"/><path class="b" d="m243.4 195.8q-0.1 0-0.2 0.1-0.4 0.2-0.8 0.3-0.4 0.2-0.7 0.3h-0.1v-0.1q0 0 0 0 0.4-0.2 0.8-0.4 0.4-0.1 0.7-0.2 0.1-0.1 0.2-0.1 0 0 0.1 0 0 0 0 0z"/><path class="b" d="m264.3 201.3q-0.5 0.2-1 0.5-0.4 0.1-0.8 0.3 0.9-0.4 1.8-0.8z"/><path class="b" d="m264.3 201.4q-0.5 0.2-1 0.4-0.3 0.2-0.6 0.3l-0.2 0.1v-0.1-0.1q0.9-0.4 1.8-0.7v0.1z"/><path class="b" d="m271.2 199.7q-0.5 0.1-1 0.2-0.5 0-0.9 0.1 0.9-0.2 1.9-0.3z"/><path class="b" d="m271.3 199.8h-0.2q-0.5 0.1-0.9 0.1-0.4 0.1-0.8 0.1h-0.1l-0.1-0.1q0.1 0 0.1 0l1.8-0.2q0.1 0 0.1-0.1v0.1z"/><path class="b" d="m279.2 200q-0.6 0-1.1-0.1-0.5-0.1-0.9-0.1 1 0.1 2 0.2z"/><path class="b" d="m279.2 200l-0.1 0.1h-0.2q-0.4-0.1-0.8-0.1h-0.1q-0.1-0.1-0.3-0.1-0.2 0-0.5-0.1h-0.1 0.1v-0.1q0 0 0.1 0l1.6 0.2q0.1 0 0.3 0.1z"/><path class="b" d="m290 203.4q-0.4-0.2-0.9-0.3 0-0.1 0-0.1-0.5-0.2-0.9-0.3 0.9 0.3 1.8 0.7z"/><path fill-rule="evenodd" class="b" d="m313 203.5c0 1.6-0.6 3.1-1 3.9-0.8 1.5-2.7 2.9-4.5 3.4-1.6 0.4-4.1 0.3-5.7-0.7-4.1-2.8-7.9-5-11.8-6.7v-0.1q-0.2-0.1-0.4-0.1-0.3-0.2-0.7-0.3-0.3-0.1-0.6-0.3 0 0-0.1 0c-3.1-1.2-6.1-2-9-2.6q-0.2-0.1-0.3-0.1l-1.6-0.2q-0.1 0-0.1 0-3.1-0.2-6 0v-0.1q0 0.1-0.1 0.1l-1.8 0.2q0 0-0.1 0l0.1 0.1q-2.5 0.5-5 1.3-0.9 0.3-1.8 0.7v0.1 0.1l0.2-0.1q0.3-0.1 0.6-0.3 0.5-0.2 1-0.4 2.4-0.9 5-1.4h0.1q0.4 0 0.8-0.1-3.4 0.6-6.9 1.9-0.9 0.5-1.8 0.9c-1.7 0.9-3.4 1.9-5.1 2.9-1.5 0.9-3 1.8-4.5 2.6-2.4 1.3-4.6 2.2-6.7 2.9-2.2 0.7-4.8 1.1-7.6 1.3q-0.8 0-1.6 0c-5.1 0-10.6-1.4-16.7-4.2q-2.6-1.2-5-2.8c-2.5-1.8-4.6-3.5-6.2-5.3-2-2.1-3.6-4.2-4.8-6.4-1.6-2.7-2.3-4.9-3-6.9-0.9-2.7-1.5-5-1.8-6.8q-0.3-1-0.5-2.1c-0.9-4.8-1.4-9-1.8-12.4-0.8-7.4-1-13.4-1.2-16.4 0 0 0-0.1 0-0.1v-0.1h0.1l0.1-0.1h-0.1q0-0.5-0.1-1.1 0 0.6 0 1.1c-0.4-5.1-0.8-9.7-1.4-14.1q0-0.1 0-0.3 0 0 0 0 0-0.1 0-0.1h0.1q0 0 0 0 0-0.1 0-0.1 0 0 0-0.1 0 0-0.1-0.1 0-0.1 0-0.2 0 0 0 0h-0.1q0 0 0 0 0 0.1 0 0.2 0 0.1 0 0.2 0 0.1 0 0.1 0 0.1 0.1 0.1c-8 6.7-14.9 24.2-16.2 27.7-0.2 0.6-0.7 1.9-1.2 3.6-1.5 4.2-3.6 10.7-4.5 12.1-1.5 2.8-4.4 4.6-7.4 4.6-1.9 0-3.7-0.6-5-1.8-6.8-5.7-7.2-32.3-7.2-37.5 0-2.3 0.3-14.8 0.7-17.2 0.3-1.4 0.8-3.6 2.2-5.1 1.5-1.7 3.5-2.7 5.5-2.7 2.2 0 4.4 1 5.8 2.7 1.4 1.6 1.9 3.8 1.5 6.1q-0.1 0.5-0.2 1.1c-0.2 0.4-0.3 0.9-0.3 1.3-0.4 5.8-0.5 12.2-0.3 19.4 2.7-5.7 6.4-13 11-19 5.8-7.6 11.8-11.5 17.8-11.5 5.3 0 9.2 2.8 11.7 8.2 1.3 3.1 1.6 6.4 1.9 9.7q0 0.4 0.1 0.9c0.1 2.3 0.2 4.6 0.2 6.5 0.5 4.3 0.8 8.7 1 13.3q0.1 1.3 0.2 2.6c0.1 3 0.3 6.2 0.6 9.2q0-0.5-0.1-1l-0.1 0.1q0 0.3 0.1 0.7 0 0.4 0.1 0.8h0.1v-0.2q0-0.1 0-0.3c0 0 0.7 4.3 1.5 7.4 1.4 6.1 2.2 9.4 4.7 12.4 3.6 4.5 9.5 6.6 9.4 6.7 0 0.1-0.2 0-0.4-0.1l-0.1 0.1q0.7 0.3 1.3 0.6l0.1-0.1v-0.1q-0.4-0.1-0.8-0.3c2.3 0.9 4.6 1.5 6.8 1.9q1 0.1 2 0.1 1 0 2.1-0.1 0 0 0 0 0.4 0 0.8-0.1-0.4 0.1-0.8 0.2 0.5-0.1 1-0.1v-0.1q1.2-0.2 2.4-0.6h0.1q0.3-0.1 0.7-0.3 0.4-0.1 0.8-0.3 0.1-0.1 0.2-0.1v-0.1c1.9-0.9 3.7-2 5.5-3.1 1.6-1 3.3-2 5.1-2.9 2.8-1.4 5.5-2.5 8.1-3.3 2.2-0.7 4.5-1 7.3-1.4 3.1-0.4 6.2-0.4 9.4 0.1 5.3 0.6 9.8 1.8 14 3.4 5.8 2.3 11.3 5.2 16.5 8.7 1.7 1.1 2.8 2.6 3.4 4.5q0.3 0.9 0.3 1.8zm-79.8-6.3q0.4 0 0.9 0.1-0.4-0.1-0.9-0.2z"/><path class="b" d="m290 203.3v0.1 0.1q-0.3-0.1-0.5-0.2-0.1-0.1-0.3-0.1-0.1-0.1-0.1-0.1h-0.1q-0.4-0.2-0.8-0.4 0 0 0 0v-0.1q0.1 0 0.1 0 0.3 0.2 0.6 0.3 0.4 0.1 0.7 0.3 0.2 0 0.4 0.1z"/><path fill-rule="evenodd" class="a" d="m47.5 127.2v3.8c0 2.7-2.2 4.8-4.8 4.8h-15.2c-2.7 0-4.9-2.1-4.9-4.8v-3.8c0-2.7 2.2-4.9 4.9-4.9h15.2c2.6 0 4.8 2.2 4.8 4.9zm-1.6 0c0-1.8-1.5-3.2-3.2-3.2h-15.2c-1.8 0-3.2 1.4-3.2 3.2v3.8c0 1.8 1.4 3.2 3.2 3.2h15.2c1.7 0 3.2-1.4 3.2-3.2z"/><path fill-rule="evenodd" class="a" d="m47.5 127.2v3.8c0 2.7-2.2 4.8-4.8 4.8h-15.2c-2.7 0-4.9-2.1-4.9-4.8v-3.8c0-2.7 2.2-4.9 4.9-4.9h15.2c2.6 0 4.8 2.2 4.8 4.9zm-1.6 0c0-1.8-1.5-3.2-3.2-3.2h-15.2c-1.8 0-3.2 1.4-3.2 3.2v3.8c0 1.8 1.4 3.2 3.2 3.2h15.2c1.7 0 3.2-1.4 3.2-3.2z"/><path fill-rule="evenodd" class="a" d="m137.1 121.2v64.6c0 8-6.1 14.5-13.6 14.5h-104.3c-7.5 0-13.7-6.5-13.7-14.5v-64.6c0-8 6.2-14.5 13.7-14.5h104.3c7.5 0 13.6 6.5 13.6 14.5zm-22.6 32.3c0-13.1-10.6-23.7-23.7-23.7-13.1 0-23.8 10.6-23.8 23.7 0 13.1 10.7 23.7 23.8 23.7 13.1 0 23.7-10.6 23.7-23.7zm-67-26.3c0-2.7-2.2-4.9-4.8-4.9h-15.2c-2.7 0-4.9 2.2-4.9 4.9v3.8c0 2.7 2.2 4.8 4.9 4.8h15.2c2.6 0 4.8-2.1 4.8-4.8z"/><path fill-rule="evenodd" class="b" d="m50.1 127.2v3.8c0 4.1-3.3 7.5-7.4 7.5h-15.2c-4.1 0-7.5-3.4-7.5-7.5v-3.8c0-4.2 3.4-7.5 7.5-7.5h15.2c4.1 0 7.4 3.3 7.4 7.5zm-4.2 0c0-1.8-1.5-3.2-3.2-3.2h-15.2c-1.8 0-3.2 1.4-3.2 3.2v3.8c0 1.8 1.4 3.2 3.2 3.2h15.2c1.7 0 3.2-1.4 3.2-3.2z"/><path fill-rule="evenodd" class="b" d="m119.8 153.5c0 16-13 29-29 29-16 0-29-13-29-29 0-16 13-29 29-29 16 0 29 13 29 29zm-5.3 0c0-13.1-10.6-23.7-23.7-23.7-13.1 0-23.8 10.6-23.8 23.7 0 13.1 10.7 23.7 23.8 23.7 13.1 0 23.7-10.6 23.7-23.7z"/><path fill-rule="evenodd" class="b" d="m107.7 153.5c0 9.3-7.6 16.9-16.9 16.9-9.4 0-17-7.6-17-16.9 0-9.3 7.6-16.9 17-16.9 9.3 0 16.9 7.6 16.9 16.9zm-6 0c0-6-4.9-10.9-10.9-10.9-6.1 0-11 4.9-11 10.9 0 6 4.9 10.9 11 10.9 6 0 10.9-4.9 10.9-10.9z"/><path class="b" d="m44.2 97.6v1.9c0 1.6-0.9 2.9-2 2.9h-17.5c-1.1 0-2.1-1.3-2.1-2.9v-1.9c0-1.6 1-2.9 2.1-2.9h17.5c1.1 0 2 1.3 2 2.9z"/><path class="c" d="m123.5 106.4h-104.3c-7.5 0-13.7 6.6-13.7 14.6v65c0 8.1 6.2 14.6 13.7 14.6h104.3c7.5 0 13.6-6.5 13.6-14.6v-65c0-8-6.1-14.6-13.6-14.6z"/></svg>