<svg width="197" height="40" viewBox="0 0 197 40" fill="none" xmlns="http://www.w3.org/2000/svg">
<path d="M10.2462 26.0627C13.908 21.2681 13.2851 13.4361 8.84399 9.77258C7.40241 8.60207 5.80448 8.01775 3.6618 8.01775C3.54485 6.61515 1.83247 6.53694 0.584137 7.08185C0.234531 7.19946 0.0781769 7.43406 0.0781769 7.86135C0.0781769 11.1752 0.0387757 14.5259 0.0387757 17.8786C0.0387757 21.8524 0 25.8676 0 29.8408C0 30.7379 0 31.5956 0 32.4927C0 32.8418 0.117578 33.0376 0.427784 33.1546C1.0138 33.7389 3.54485 33.5825 3.54485 32.4533C3.54485 31.5174 3.54485 29.4135 3.54485 29.2959C4.01391 29.2571 4.4417 29.2571 4.86885 29.2177C5.41609 29.2177 5.96083 29.0613 6.50557 28.8686C8.02532 28.3212 9.27115 27.3484 10.2462 26.0627V26.0627ZM8.72641 16.0067C9.4669 18.812 9.07852 21.8912 7.40241 23.9563C6.7795 24.7752 5.96083 25.4371 4.90826 25.6329C4.48047 25.7499 4.05269 25.7111 3.58363 25.6717C3.54485 25.5547 3.54485 25.9845 3.54485 20.7626C3.54485 19.3594 3.62303 12.3826 3.62303 11.6419C4.90826 11.4467 5.92205 11.8765 6.81827 12.6954C7.79079 13.6288 8.37743 14.7605 8.72641 16.0067V16.0067Z" fill="#DA1884"/>
<path d="M14.609 21.268C14.3382 25.0486 14.4921 32.7266 15.9337 32.7266C18.2321 32.2187 18.6624 32.4533 18.6624 31.4779C18.6624 30.4663 18.5842 29.4916 18.7011 28.4775C19.4022 22.5537 22.2072 19.1641 24.0003 20.7626C25.5563 22.1652 26.6483 26.0239 26.1429 28.9073C25.9866 29.8019 25.9084 30.6984 25.6739 31.5561C25.5563 32.0235 25.7521 32.2969 26.1035 32.5702C26.6095 32.9594 27.2324 33.0764 27.8947 33.0764C28.1293 33.0764 28.4026 33.0376 28.6346 32.9982C28.9085 32.9594 29.0255 32.7636 29.1037 32.4927C29.4139 31.3997 29.5314 30.2317 29.6878 29.1006C30.3495 24.2691 28.0117 17.0208 23.5312 17.0208C21.1934 17.0208 19.5198 17.7221 18.3102 18.8901L18.5448 17.2529C18.7011 16.2019 18.8575 15.1096 19.0507 14.098C19.324 12.5778 19.6737 11.0969 20.1427 9.69434C20.5311 8.52383 17.3384 6.6933 16.9081 8.01771C16.2852 10.0046 15.8186 12.0698 15.4277 14.1374C14.9999 16.4365 14.7654 18.7337 14.609 21.268V21.268Z" fill="#DA1884"/>
<path d="M48.1942 24.582C49.8697 19.3594 48.4675 13.0839 44.0627 10.5133C40.2859 8.17419 35.5708 9.92651 32.9591 14.1375C31.2467 16.9039 30.6626 20.3322 31.1292 23.6066C31.5182 26.024 32.532 28.2449 34.2074 29.8802C35.7272 31.3216 37.5178 32.1405 39.6604 32.1011C42.1158 31.9866 44.2585 30.7767 45.8952 28.8292C46.9478 27.5805 47.6883 26.1385 48.1942 24.582V24.582ZM44.5318 24.2692C43.7525 26.3343 41.9201 28.3212 39.9344 28.5164C37.8305 28.7904 36.0768 27.2702 35.2187 25.1269C34.2468 22.9835 34.2856 20.0607 35.1431 17.7616C35.6103 16.3584 36.3895 15.1491 37.5178 14.1763C38.9199 12.967 40.8306 12.656 42.3503 13.5901C43.4398 14.2519 44.1409 15.2273 44.61 16.3978C44.8814 17.0209 45.0765 17.644 45.1941 18.3065C45.5431 20.371 45.3111 22.3604 44.5318 24.2692Z" fill="#DA1884"/>
<path d="M52.2052 10.7842C52.244 10.98 52.3222 13.5506 52.3222 15.0708C52.3222 16.6298 52.4003 18.1888 52.4003 19.7479C52.4003 21.3075 52.4785 22.8271 52.4785 24.3861C52.4785 26.4512 52.5567 28.5558 52.5567 30.6597C52.5567 31.1677 52.5567 31.752 52.5961 32.2575C52.6349 32.7636 52.7525 32.9594 53.219 33.1158C53.9983 33.3892 54.7381 33.4286 55.518 33.0764C55.9846 32.92 56.1015 32.7267 56.1015 32.2187C56.1015 30.7379 56.0628 29.2571 56.0234 27.6974C55.9846 26.1384 55.9846 24.5037 55.9452 22.9053C55.9064 21.3857 55.9064 19.9437 55.8695 18.3847C55.8307 16.8256 55.8307 15.2272 55.7913 13.59C55.7526 11.6813 55.7913 12.0698 55.7913 10.98V10.6672C58.2442 10.6672 63.973 10.8236 64.5572 10.98C64.9455 11.097 65.1801 10.7842 65.4146 10.3569C65.7636 9.65558 65.7636 8.87607 65.7636 8.09594C65.7636 7.62674 65.1019 7.39464 64.7523 7.39464C63.9342 7.39464 63.1156 7.16003 57.0766 7.16003H54.1152C50.688 7.16003 47.6491 7.55104 46.5177 7.82255C46.0899 7.97895 45.9336 8.09594 45.8554 8.48444C45.7384 9.06876 45.8166 9.69436 45.8166 10.2787C45.8166 10.589 45.973 11.4073 46.5177 11.3291C46.9473 11.2534 47.3751 11.2534 47.7635 11.1752C48.7385 11.0188 51.2327 10.8236 52.2052 10.7842V10.7842ZM69.6605 25.0486C72.0377 20.8796 70.5568 14.5259 65.5685 13.8246C61.3613 13.2403 57.3499 19.086 58.166 23.8412C58.3612 24.9704 58.6739 25.9457 59.4531 26.9573C61.5958 29.7651 64.9455 30.0366 67.5573 27.6586C68.4147 26.8791 69.0764 26.0627 69.6605 25.0486V25.0486ZM67.5179 19.4745C68.0238 21.6566 66.9731 24.6576 64.8674 25.6329C64.205 26.1384 63.1543 26.0627 62.4145 25.4371C59.9591 23.372 61.5958 17.8398 64.9455 17.1385C66.1939 16.8644 67.2052 18.1501 67.5179 19.4745V19.4745Z" fill="#DA1884"/>
<path d="M138.51 11.5637C139.093 13.3185 139.484 15.0314 139.484 17.644C139.484 18.1889 138.51 31.869 138.51 32.6097C138.51 33.1158 142.289 33.0376 142.172 32.3751C141.979 31.2828 142.328 27.9715 142.602 26.373C142.758 25.5935 142.912 24.814 143.107 24.0345C143.652 21.8524 144.432 19.2424 145.524 17.2924C146.147 16.2413 146.848 15.2272 147.783 14.4083C148.132 14.098 148.485 13.8634 148.912 13.7464C149.73 13.59 150.236 14.6429 150.588 16.0455C150.901 17.2142 150.976 18.4235 150.976 19.5915C150.976 20.1001 150.937 20.6062 150.901 21.0729C150.901 23.763 150.043 27.3871 148.912 30.2712C148.756 30.6597 148.834 30.9331 149.107 31.1677C149.809 31.7908 150.588 32.1405 151.523 32.1405C151.873 32.1405 152.029 31.9472 152.186 31.6344C153.083 29.6869 154.951 21.0335 154.289 16.5129C154.172 15.6964 153.976 14.8387 153.706 14.0592C153.315 12.9669 152.731 11.9941 151.873 11.2146C151.094 10.5496 150.236 10.2005 149.186 10.1611C147.004 10.1611 145.055 11.7983 143.613 13.7852C143.342 14.1374 143.107 14.5259 142.834 14.8775C142.795 14.4865 142.719 14.0592 142.641 13.6288C142.484 12.3432 142.172 11.1364 141.666 10.2005C141.471 9.84828 141.314 9.73379 140.926 9.77258C140.068 9.84828 138.278 10.8236 138.51 11.5637Z" fill="#101820"/>
<path d="M173.223 24.582C174.899 19.3594 173.497 13.0839 169.094 10.5133C165.315 8.17419 160.6 9.92651 157.991 14.1375C156.276 16.9039 155.692 20.3322 156.159 23.6066C156.549 26.024 157.563 28.2449 159.236 29.8802C160.756 31.3216 162.549 32.1405 164.692 32.1011C167.147 31.9866 169.29 30.7767 170.924 28.8292C171.977 27.5805 172.717 26.1385 173.223 24.582V24.582ZM169.561 24.2692C168.781 26.3343 166.952 28.3212 164.966 28.5164C162.859 28.7904 161.108 27.2702 160.25 25.1269C159.276 22.9835 159.315 20.0607 160.172 17.7616C160.639 16.3584 161.418 15.1491 162.549 14.1763C163.951 12.967 165.86 12.656 167.379 13.5901C168.471 14.2519 169.172 15.2273 169.639 16.3978C169.913 17.0209 170.108 17.644 170.223 18.3065C170.575 20.371 170.34 22.3604 169.561 24.2692Z" fill="#101820"/>
<path d="M195.276 29.7651C196.757 26.4125 197.536 21.1511 196.6 17.3706C196.209 15.8109 195.664 14.3301 195.002 12.8887C194.458 11.7595 193.678 10.7842 192.625 10.0829C192.276 9.88771 191.924 9.6944 191.575 9.49921C190.639 8.91489 189.703 10.3175 189.43 12.0304C189.43 12.3826 189.899 12.656 190.209 12.7711C192.002 13.59 193.288 17.5658 193.444 20.371C193.757 23.372 191.964 31.0895 190.17 30.193C189.43 29.802 188.846 28.8686 188.419 27.9321C187.835 26.7253 187.287 24.2691 187.172 22.7489C187.094 21.2681 187.366 19.5133 187.756 17.644C187.873 17.2142 187.482 16.7863 187.248 16.7081C186.002 16.0068 184.756 15.5788 184.327 16.5911C184.172 17.0209 184.016 17.4488 183.859 17.918C183.002 20.2934 180.86 23.5678 179.184 24.8922C178.912 23.9169 179.03 22.2434 179.223 20.7232C179.379 19.6309 179.575 18.5799 179.846 17.527C180.237 15.8109 180.782 14.1762 181.522 12.6172C181.991 11.6031 182.223 10.98 182.692 10.0047C182.692 9.538 180.664 7.78317 180.393 7.90078C180.237 7.93957 180.119 8.05719 180.041 8.17417C179.77 8.52389 179.457 8.8761 179.262 9.26461C178.443 10.6672 177.82 12.1086 177.276 13.6288C176.184 16.7475 175.172 22.1652 175.561 24.7753C175.756 26.1385 176.301 27.6193 177.55 28.2843C179.34 29.2571 180.938 28.2449 182.497 26.6077C182.963 26.0997 183.432 25.5548 183.899 25.0099C184.483 27.5805 184.796 29.025 186.12 31.0507C187.366 32.92 189.393 34.362 191.69 33.6607C193.016 33.3504 194.458 31.6344 195.276 29.7651V29.7651Z" fill="#101820"/>
<path fill-rule="evenodd" clip-rule="evenodd" d="M86.356 0H93.2499V1.82051H86.356V0Z" fill="#DA1884"/>
<path fill-rule="evenodd" clip-rule="evenodd" d="M127.062 4.87781C129.078 4.87781 130.702 6.50313 130.639 8.45565V36.4246C130.639 38.3746 129.078 40 127.062 40H82.1959C80.2465 40 78.6191 38.4403 78.6191 36.4246V8.45565C78.6191 6.50313 80.1802 4.87781 82.1959 4.87781H127.062ZM82.1959 6.63451C81.1552 6.63451 80.3759 7.48033 80.3759 8.45565V36.4246C80.3759 37.4631 81.2209 38.2451 82.1959 38.2451H127.062C128.103 38.2451 128.882 37.3993 128.882 36.4246V8.45565C128.882 7.41464 128.037 6.63451 127.062 6.63451H82.1959Z" fill="#101820"/>
<path fill-rule="evenodd" clip-rule="evenodd" d="M111.585 10.9263C105.277 10.9263 100.076 16.1313 100.076 22.4387C100.076 28.7485 105.277 33.9517 111.585 33.9517C117.893 33.9517 123.094 28.7485 123.094 22.4387C123.094 16.1313 117.959 10.9263 111.585 10.9263V10.9263ZM111.585 32.1969C106.255 32.1969 101.832 27.837 101.832 22.4387C101.832 17.0403 106.188 12.683 111.585 12.683C116.982 12.683 121.34 17.0403 121.34 22.4387C121.34 27.837 116.982 32.1969 111.585 32.1969Z" fill="#DA1884"/>
<path fill-rule="evenodd" clip-rule="evenodd" d="M84.2109 18.6017H95.5247V11.1213H84.2109V18.6017ZM86.0315 12.8787H93.771V16.7812H86.0315V12.8787Z" fill="#DA1884"/>
<path fill-rule="evenodd" clip-rule="evenodd" d="M111.585 14.8951C107.425 14.8951 103.978 18.2772 103.978 22.505C103.978 26.7322 107.359 30.1149 111.585 30.1149C115.812 30.1149 119.193 26.7322 119.193 22.505C119.193 18.2772 115.812 14.8951 111.585 14.8951V14.8951ZM111.585 28.2281C108.399 28.2281 105.797 25.6255 105.797 22.4387C105.797 19.2519 108.399 16.6493 111.585 16.6493C114.771 16.6493 117.373 19.2519 117.373 22.4387C117.373 25.6255 114.771 28.2281 111.585 28.2281Z" fill="#DA1884"/>
</svg>
