<svg width="320" height="320" viewBox="0 0 320 320" fill="none" xmlns="http://www.w3.org/2000/svg">
<path d="M161.184 286.752C239.179 286.752 302.406 252.176 302.406 209.523C302.406 166.871 239.179 132.294 161.184 132.294C83.1891 132.294 19.9617 166.871 19.9617 209.523C19.9617 252.176 83.1891 286.752 161.184 286.752Z" fill="#F5F5F5"/>
<path d="M67.5136 247.597C84.045 247.597 97.4464 239.86 97.4464 230.317C97.4464 220.773 84.045 213.037 67.5136 213.037C50.9822 213.037 37.5808 220.773 37.5808 230.317C37.5808 239.86 50.9822 247.597 67.5136 247.597Z" fill="#D4D4D4"/>
<path d="M30.8032 81.664C33.3632 80.3136 36.8384 80.576 40.6656 82.7904C42.4971 83.8723 44.1759 85.1938 45.6576 86.72C51.0656 92.1728 54.9056 100.41 54.9056 107.462C54.9056 116.557 61.3056 127.603 69.1584 132.154L83.4112 140.378L144.154 105.318L129.92 97.088C122.054 92.5504 115.667 81.4912 115.667 72.4032C115.667 63.3152 109.267 52.2688 101.414 47.7248C97.5744 45.4912 94.0288 45.2544 91.4624 46.6624L91.1168 46.8544L71.0784 58.432L67.8784 60.256L30.8032 81.664Z" fill="#F5F5F5"/>
<path d="M210.861 130.56C210.791 130.513 210.708 130.489 210.624 130.489C210.54 130.489 210.457 130.513 210.387 130.56L208.64 131.578C208.453 131.704 208.298 131.872 208.187 132.069C208.076 132.265 208.012 132.485 208 132.71V153.235L281.6 194.995L284.499 173.05L210.861 130.56Z" fill="#0A0A0A"/>
<path d="M284.467 173.024C284.394 172.998 284.315 172.99 284.238 173.002C284.162 173.013 284.088 173.042 284.026 173.088L282.24 174.08C282.045 174.195 281.886 174.361 281.779 174.56L208.16 132.058C208.272 131.862 208.43 131.698 208.621 131.578L210.381 130.566C210.451 130.52 210.533 130.495 210.618 130.495C210.702 130.495 210.784 130.52 210.854 130.566L284.467 173.024Z" fill="#404040"/>
<path d="M284.026 173.082L282.24 174.08C282.052 174.206 281.897 174.374 281.786 174.57C281.674 174.767 281.611 174.987 281.6 175.213V194.976L284.672 196.73V173.44C284.678 173.043 284.384 172.877 284.026 173.082Z" fill="#262626"/>
<path d="M281.606 194.995V196.346L277.005 198.394L203.366 155.872L207.968 153.235L281.606 194.995Z" fill="#0A0A0A"/>
<path d="M278.541 201.056L284.026 197.856C284.214 197.731 284.37 197.563 284.481 197.366C284.592 197.169 284.655 196.949 284.666 196.723L281.594 194.97C281.584 195.196 281.521 195.416 281.409 195.613C281.298 195.81 281.142 195.977 280.954 196.102L279.194 197.12C278.835 197.325 278.554 197.158 278.554 196.742L278.541 201.056Z" fill="#262626"/>
<path d="M295.482 198.918C295.823 198.684 296.105 198.374 296.305 198.012C296.505 197.649 296.617 197.245 296.634 196.832V130.419C296.611 129.992 296.488 129.577 296.275 129.206C296.061 128.836 295.763 128.521 295.405 128.288L210.208 79.0976C209.852 78.8737 209.442 78.7512 209.022 78.7431C208.602 78.735 208.187 78.8418 207.823 79.0518C207.459 79.2618 207.159 79.5672 206.956 79.935C206.752 80.3028 206.653 80.7191 206.669 81.1392V147.552C206.693 147.979 206.817 148.395 207.031 148.765C207.246 149.136 207.545 149.45 207.904 149.683L293.12 198.874C293.483 199.063 293.886 199.166 294.296 199.174C294.705 199.181 295.111 199.094 295.482 198.918Z" fill="#EC4899"/>
<path d="M294.329 131.75V198.163C294.329 198.944 293.779 199.264 293.101 198.874L207.904 149.683C207.545 149.45 207.246 149.136 207.031 148.765C206.817 148.395 206.692 147.979 206.669 147.552V81.1392C206.669 80.3584 207.225 80.0384 207.904 80.4288L293.12 129.619C293.475 129.855 293.769 130.17 293.979 130.54C294.189 130.911 294.309 131.325 294.329 131.75Z" fill="#EC4899"/>
<path opacity="0.2" d="M296.633 130.419V196.832C296.617 197.246 296.505 197.649 296.305 198.012C296.105 198.374 295.823 198.684 295.481 198.918C295.153 199.078 294.795 199.166 294.43 199.178C294.065 199.19 293.701 199.126 293.363 198.989C293.913 199.168 294.329 198.848 294.329 198.163V131.744C294.313 131.317 294.19 130.901 293.971 130.534L296.269 129.203C296.493 129.57 296.618 129.989 296.633 130.419Z" fill="#0A0A0A"/>
<path d="M287.405 149.062V159.539C287.405 160.326 286.854 160.64 286.176 160.25L272.486 152.32C272.129 152.087 271.831 151.774 271.618 151.404C271.405 151.035 271.281 150.621 271.258 150.195V139.738C271.258 138.957 271.808 138.637 272.486 139.027L286.176 146.931C286.534 147.165 286.832 147.479 287.046 147.85C287.259 148.22 287.382 148.636 287.405 149.062Z" fill="#404040"/>
<mask id="mask0_338_813" style="mask-type:luminance" maskUnits="userSpaceOnUse" x="271" y="138" width="17" height="23">
<path d="M287.405 149.062V159.539C287.405 160.326 286.854 160.64 286.176 160.25L272.486 152.32C272.129 152.087 271.831 151.774 271.618 151.404C271.405 151.035 271.281 150.621 271.258 150.195V139.738C271.258 138.957 271.808 138.637 272.486 139.027L286.176 146.931C286.534 147.165 286.832 147.479 287.046 147.85C287.259 148.22 287.382 148.636 287.405 149.062Z" fill="white"/>
</mask>
<g mask="url(#mask0_338_813)">
<path d="M269.089 140.731L268.811 141.213L289.569 153.208L289.848 152.725L269.089 140.731Z" fill="#FAFAFA"/>
<path d="M283.072 148.973H282.515V154.31H283.072V148.973Z" fill="#FAFAFA"/>
<path d="M276.153 144.998H275.597V150.33H276.153V144.998Z" fill="#FAFAFA"/>
<path d="M269.088 146.083L268.81 146.565L289.568 158.56L289.847 158.078L269.088 146.083Z" fill="#FAFAFA"/>
</g>
<path d="M287.405 169.043V171.52C287.405 172.307 286.854 172.621 286.176 172.23L272.486 164.326C272.129 164.094 271.831 163.78 271.618 163.411C271.405 163.042 271.281 162.627 271.258 162.202V159.712C271.258 158.925 271.808 158.611 272.486 159.002L286.176 166.906C286.535 167.139 286.834 167.455 287.047 167.827C287.261 168.198 287.383 168.615 287.405 169.043Z" fill="#FAFAFA"/>
<path d="M268.16 157.939V160.429C268.16 161.21 267.609 161.53 266.931 161.139L253.242 153.235C252.883 153.002 252.585 152.687 252.372 152.317C252.158 151.946 252.035 151.531 252.013 151.104V148.621C252.013 147.834 252.563 147.514 253.242 147.91L266.931 155.814C267.288 156.047 267.586 156.361 267.799 156.73C268.013 157.099 268.136 157.513 268.16 157.939Z" fill="#FAFAFA"/>
<path d="M248.96 146.842V149.331C248.96 150.112 248.41 150.432 247.731 150.042L234.042 142.138C233.683 141.904 233.385 141.59 233.172 141.219C232.958 140.849 232.835 140.433 232.813 140.006V137.517C232.813 136.736 233.363 136.416 234.042 136.806L247.731 144.71C248.089 144.944 248.386 145.259 248.6 145.63C248.813 146 248.936 146.415 248.96 146.842Z" fill="#FAFAFA"/>
<path d="M229.76 135.744V138.24C229.76 139.027 229.21 139.347 228.531 138.95L214.842 131.053C214.484 130.818 214.187 130.503 213.974 130.133C213.76 129.763 213.637 129.348 213.613 128.922V126.432C213.613 125.651 214.163 125.331 214.842 125.722L228.531 133.626C228.888 133.858 229.185 134.17 229.398 134.538C229.612 134.906 229.736 135.319 229.76 135.744Z" fill="#FAFAFA"/>
<path opacity="0.15" d="M221.248 138.746L224.39 140.557C224.604 140.698 224.782 140.887 224.91 141.11C225.038 141.332 225.112 141.581 225.126 141.837V142.797C225.126 143.264 224.794 143.437 224.39 143.219L221.248 141.44C221.034 141.299 220.855 141.11 220.728 140.888C220.6 140.665 220.526 140.416 220.512 140.16V139.2C220.512 138.701 220.845 138.509 221.248 138.746Z" fill="#0A0A0A"/>
<path opacity="0.15" d="M214.33 134.752L217.466 136.563C217.681 136.703 217.861 136.892 217.99 137.114C218.119 137.337 218.194 137.586 218.208 137.843V138.803C218.208 139.277 217.875 139.443 217.466 139.232L214.33 137.421C214.115 137.281 213.936 137.092 213.808 136.869C213.68 136.647 213.606 136.397 213.594 136.141V135.181C213.594 134.707 213.92 134.515 214.33 134.752Z" fill="#0A0A0A"/>
<path opacity="0.15" d="M253.946 164.282L214.906 141.728C214.227 141.338 213.677 141.651 213.677 142.438V143.59C213.699 144.017 213.822 144.433 214.036 144.803C214.249 145.174 214.547 145.488 214.906 145.722L253.946 168.275C254.624 168.666 255.174 168.352 255.174 167.565V166.4C255.15 165.975 255.026 165.562 254.813 165.194C254.599 164.826 254.302 164.514 253.946 164.282Z" fill="#0A0A0A"/>
<path d="M214.662 99.232C214.109 98.17 213.832 96.986 213.856 95.7888C213.856 94.5088 214.118 93.6512 214.643 93.2672C215.168 92.8832 215.923 92.9856 216.909 93.5488C217.31 93.7797 217.685 94.0522 218.029 94.3616C218.352 94.6446 218.638 94.9672 218.88 95.3216C218.931 95.3881 218.96 95.4685 218.963 95.552C218.966 95.6097 218.947 95.6664 218.912 95.712L218.618 96.2304C218.579 96.288 218.541 96.3072 218.502 96.2816C218.444 96.2431 218.394 96.193 218.355 96.1344C218.011 95.6691 217.576 95.2792 217.075 94.9888C216.493 94.656 216.038 94.6176 215.718 94.88C215.398 95.1424 215.238 95.712 215.238 96.5952C215.217 97.3859 215.389 98.17 215.738 98.88C216.046 99.4891 216.524 99.9959 217.114 100.339C217.504 100.611 217.977 100.74 218.451 100.704C218.499 100.69 218.55 100.69 218.598 100.704C218.637 100.704 218.675 100.768 218.714 100.896L219.046 101.843C219.064 101.893 219.074 101.944 219.078 101.997C219.078 102.042 219.046 102.08 218.976 102.106C218.534 102.272 217.856 102.106 216.934 101.562C215.974 101.013 215.187 100.206 214.662 99.232Z" fill="#FAFAFA"/>
<path d="M219.853 102.97C219.788 102.841 219.757 102.698 219.763 102.554V95.8592C219.763 95.6992 219.763 95.5904 219.853 95.5392C219.943 95.488 220.007 95.5072 220.141 95.584L222.285 96.8192C222.958 97.1801 223.516 97.7233 223.896 98.3865C224.275 99.0497 224.46 99.8063 224.429 100.57C224.454 100.988 224.368 101.405 224.179 101.779C224.103 101.91 223.992 102.018 223.859 102.092C223.726 102.165 223.576 102.201 223.424 102.195L224.314 105.306C224.322 105.363 224.322 105.421 224.314 105.478C224.314 105.613 224.256 105.645 224.135 105.574L223.194 105.037C223.129 105 223.07 104.952 223.021 104.896C222.968 104.826 222.933 104.745 222.919 104.659L222.163 101.76L221.159 101.178V103.392C221.173 103.503 221.143 103.616 221.075 103.706C221.018 103.757 220.915 103.706 220.775 103.654L220.135 103.29C220.009 103.215 219.911 103.103 219.853 102.97ZM222.08 100.339C222.4 100.525 222.643 100.57 222.803 100.486C222.963 100.403 223.047 100.154 223.047 99.7632C223.057 99.423 222.98 99.0857 222.823 98.784C222.673 98.5154 222.451 98.2938 222.183 98.144L221.178 97.5616V99.8144L222.08 100.339Z" fill="#FAFAFA"/>
<path d="M225.216 106.067C225.151 105.939 225.12 105.795 225.126 105.651V98.9568C225.126 98.7904 225.126 98.688 225.216 98.6368C225.306 98.5856 225.37 98.6048 225.504 98.6816L229.018 100.71C229.136 100.77 229.234 100.864 229.299 100.979C229.356 101.108 229.382 101.248 229.376 101.389V101.805C229.391 101.921 229.364 102.039 229.299 102.138C229.248 102.182 229.152 102.138 229.018 102.086L226.522 100.646V102.4L228.262 103.411C228.381 103.468 228.479 103.559 228.544 103.674C228.601 103.805 228.627 103.947 228.621 104.09V104.48C228.636 104.597 228.608 104.715 228.544 104.813C228.493 104.858 228.403 104.813 228.262 104.762L226.522 103.757V105.6L229.011 107.04C229.128 107.099 229.224 107.193 229.286 107.309C229.342 107.44 229.369 107.582 229.363 107.725V108.134C229.363 108.307 229.363 108.416 229.286 108.454C229.21 108.493 229.146 108.454 229.011 108.403L225.504 106.381C225.377 106.309 225.277 106.199 225.216 106.067Z" fill="#FAFAFA"/>
<path d="M230.074 108.87C230.008 108.742 229.977 108.598 229.984 108.454V101.76C229.984 101.6 229.984 101.491 230.074 101.44C230.163 101.389 230.227 101.408 230.362 101.485L232.141 102.515C233.063 103.029 233.826 103.789 234.342 104.71C234.871 105.742 235.129 106.892 235.091 108.051C235.091 109.331 234.842 110.182 234.33 110.515C233.818 110.848 233.094 110.733 232.141 110.182L230.362 109.158C230.239 109.093 230.139 108.993 230.074 108.87ZM232.205 108.87C232.71 109.158 233.082 109.19 233.331 108.96C233.581 108.73 233.702 108.166 233.702 107.264C233.737 106.539 233.61 105.816 233.331 105.146C233.089 104.638 232.695 104.218 232.205 103.942L231.379 103.462V108.39L232.205 108.87Z" fill="#FAFAFA"/>
<path d="M235.879 112.224C235.813 112.093 235.782 111.948 235.789 111.802V105.114C235.789 104.947 235.789 104.845 235.879 104.794C235.968 104.742 236.032 104.762 236.167 104.838L236.807 105.203C236.931 105.27 237.036 105.369 237.107 105.491C237.165 105.627 237.193 105.773 237.191 105.92V112.64C237.205 112.753 237.175 112.868 237.107 112.96C237.05 113.005 236.947 112.992 236.807 112.909L236.167 112.544C236.041 112.469 235.94 112.357 235.879 112.224Z" fill="#FAFAFA"/>
<path d="M239.539 114.336C239.476 114.207 239.445 114.064 239.45 113.92V108.109L238.08 107.309C237.963 107.25 237.867 107.156 237.805 107.04C237.748 106.911 237.722 106.771 237.728 106.63V106.24C237.713 106.123 237.74 106.005 237.805 105.907C237.856 105.862 237.946 105.907 238.08 105.958L242.259 108.371C242.378 108.435 242.478 108.53 242.547 108.646C242.603 108.78 242.629 108.924 242.624 109.069V109.44C242.624 109.606 242.624 109.709 242.547 109.754C242.47 109.798 242.394 109.754 242.259 109.702L240.87 108.902V114.714C240.87 114.88 240.87 114.982 240.787 115.027C240.704 115.072 240.627 115.027 240.486 114.97L239.846 114.611C239.72 114.55 239.614 114.455 239.539 114.336Z" fill="#FAFAFA"/>
<path d="M246.816 117.792C246.264 116.732 245.986 115.55 246.01 114.355C246.01 113.075 246.272 112.211 246.797 111.834C247.322 111.456 248.077 111.546 249.062 112.115C249.463 112.344 249.838 112.614 250.182 112.922C250.502 113.208 250.788 113.53 251.034 113.882C251.084 113.949 251.112 114.029 251.117 114.112C251.121 114.17 251.102 114.227 251.066 114.272L250.771 114.79C250.733 114.854 250.694 114.874 250.65 114.848C250.595 114.804 250.548 114.752 250.509 114.694C250.164 114.232 249.728 113.844 249.229 113.555C248.653 113.216 248.198 113.184 247.878 113.446C247.558 113.709 247.392 114.278 247.392 115.155C247.373 115.949 247.546 116.735 247.898 117.446C248.209 118.053 248.686 118.559 249.274 118.906C249.667 119.172 250.137 119.301 250.611 119.27C250.656 119.253 250.707 119.253 250.752 119.27C250.81 119.322 250.852 119.388 250.874 119.462L251.2 120.41C251.222 120.458 251.235 120.51 251.238 120.563C251.238 120.608 251.2 120.646 251.136 120.678C250.694 120.845 250.016 120.678 249.094 120.128C248.13 119.58 247.34 118.77 246.816 117.792Z" fill="#FAFAFA"/>
<path d="M251.52 121.19C251.514 121.137 251.514 121.084 251.52 121.03L253.715 115.334C253.754 115.226 253.799 115.162 253.843 115.142C253.88 115.134 253.917 115.134 253.954 115.142C253.99 115.15 254.025 115.165 254.055 115.187L254.695 115.546C254.778 115.591 254.849 115.657 254.899 115.738C254.956 115.845 254.999 115.959 255.027 116.077L257.216 124.301C257.224 124.367 257.224 124.433 257.216 124.499C257.216 124.627 257.165 124.659 257.063 124.602L256.039 124.006C255.972 123.969 255.913 123.919 255.866 123.859C255.819 123.785 255.787 123.702 255.77 123.616L255.379 122.061L253.325 120.87L252.941 121.984C252.941 122.061 252.883 122.099 252.845 122.112C252.815 122.116 252.784 122.115 252.754 122.107C252.724 122.099 252.696 122.086 252.672 122.067L251.648 121.472C251.603 121.442 251.567 121.399 251.544 121.349C251.522 121.3 251.513 121.245 251.52 121.19ZM255.085 120.55L254.4 117.76L253.69 119.789L255.085 120.55Z" fill="#FAFAFA"/>
<path d="M258.055 125.024C257.989 124.896 257.958 124.752 257.965 124.608V117.92C257.965 117.754 257.965 117.645 258.055 117.6C258.144 117.555 258.208 117.562 258.343 117.645L260.487 118.88C261.162 119.237 261.722 119.778 262.103 120.441C262.484 121.104 262.669 121.86 262.637 122.624C262.661 123.043 262.572 123.46 262.381 123.834C262.305 123.965 262.194 124.073 262.061 124.146C261.928 124.219 261.777 124.255 261.626 124.25L262.515 127.36C262.524 127.417 262.524 127.475 262.515 127.533C262.515 127.667 262.458 127.699 262.336 127.635L261.395 127.091C261.329 127.056 261.27 127.008 261.223 126.95C261.173 126.881 261.139 126.803 261.12 126.72L260.339 123.789L259.335 123.206V125.44C259.348 125.553 259.318 125.667 259.251 125.76C259.194 125.805 259.091 125.76 258.951 125.702L258.311 125.338C258.196 125.261 258.107 125.152 258.055 125.024ZM260.282 122.394C260.602 122.579 260.845 122.63 261.005 122.541C261.165 122.451 261.248 122.214 261.248 121.824C261.26 121.482 261.183 121.142 261.024 120.838C260.874 120.57 260.653 120.348 260.384 120.198L259.379 119.616V121.875L260.282 122.394Z" fill="#FAFAFA"/>
<path d="M263.418 128.122C263.354 127.992 263.324 127.849 263.328 127.706V121.018C263.321 120.96 263.325 120.901 263.34 120.845C263.356 120.789 263.382 120.737 263.418 120.691C263.475 120.646 263.571 120.659 263.706 120.736L265.485 121.766C266.407 122.281 267.169 123.04 267.686 123.962C268.215 124.994 268.473 126.143 268.435 127.302C268.435 128.614 268.186 129.434 267.674 129.766C267.162 130.099 266.438 129.984 265.485 129.434L263.706 128.41C263.583 128.345 263.482 128.244 263.418 128.122ZM265.555 128.122C266.054 128.41 266.432 128.442 266.675 128.211C266.918 127.981 267.053 127.418 267.053 126.515C267.085 125.79 266.956 125.066 266.675 124.397C266.435 123.89 266.044 123.469 265.555 123.194L264.723 122.714V127.642L265.555 128.122Z" fill="#FAFAFA"/>
<path opacity="0.5" d="M296.269 129.203L293.971 130.56C293.762 130.187 293.463 129.872 293.101 129.645L207.898 80.4287C207.258 80.0767 206.771 80.3072 206.682 80.9408C206.699 80.5379 206.821 80.1466 207.037 79.8062C207.254 79.4658 207.556 79.1882 207.913 79.0014C208.27 78.8146 208.67 78.7252 209.073 78.7421C209.476 78.7589 209.868 78.8815 210.208 79.0975L295.405 128.288C295.768 128.512 296.066 128.828 296.269 129.203Z" fill="#FAFAFA"/>
<path d="M278.349 176.595L271.065 180.557C270.943 180.833 270.878 181.131 270.873 181.434V204.723C270.869 204.793 270.879 204.863 270.902 204.929C270.925 204.995 270.961 205.055 271.008 205.107L197.408 162.63C197.341 162.585 197.288 162.522 197.255 162.449C197.221 162.376 197.207 162.295 197.216 162.214V138.918C197.228 138.693 197.292 138.473 197.403 138.277C197.514 138.08 197.669 137.912 197.856 137.786L204.224 134.099C204.29 134.047 204.371 134.016 204.456 134.01C204.54 134.005 204.624 134.024 204.697 134.067L278.349 176.595Z" fill="#0A0A0A"/>
<path opacity="0.5" d="M278.355 176.589L211.046 137.715L207.974 135.942L204.729 134.067C204.656 134.024 204.572 134.005 204.488 134.01C204.403 134.016 204.322 134.047 204.256 134.099L197.888 137.786C197.696 137.905 197.539 138.073 197.433 138.272L271.072 180.55L278.355 176.589Z" fill="#262626"/>
<path d="M271.066 180.557C270.942 180.838 270.875 181.14 270.867 181.446V204.736C270.867 205.152 271.162 205.318 271.507 205.114L278.547 201.056V177.018C278.557 176.936 278.544 176.854 278.51 176.78C278.476 176.705 278.423 176.641 278.355 176.595L271.066 180.557Z" fill="#262626"/>
<path d="M271.59 205.05L271.84 204.928L272.922 204.288C273.968 202.988 274.539 201.369 274.541 199.699V180.019C274.536 179.588 274.482 179.159 274.381 178.739L273.798 179.059C273.863 179.371 273.897 179.688 273.901 180.006V199.699C273.783 201.699 272.965 203.593 271.59 205.05Z" fill="#0A0A0A"/>
<path d="M189.018 111.667C186.534 109.658 182.016 107.053 179.238 105.453C174.566 102.746 157.101 92.6528 149.798 88.4352C148.785 87.9208 147.665 87.6527 146.528 87.6527C145.392 87.6527 144.271 87.9208 143.258 88.4352L83.7377 122.816C82.787 123.438 81.9957 124.275 81.4276 125.258C80.8596 126.242 80.5306 127.346 80.4673 128.48V164.48C80.5311 165.615 80.8602 166.719 81.4282 167.704C81.9962 168.689 82.7872 169.527 83.7377 170.15L204.602 240C205.616 240.511 206.736 240.778 207.872 240.778C209.008 240.778 210.128 240.511 211.142 240L270.662 205.632C271.614 205.004 272.405 204.162 272.97 203.172C273.536 202.183 273.862 201.074 273.92 199.936V179.648C273.925 178.658 273.699 177.68 273.262 176.791C272.824 175.903 272.186 175.128 271.398 174.528C257.741 164.154 192.986 114.874 189.018 111.667Z" fill="#404040"/>
<path d="M273.92 199.936V180.243C273.919 179.847 273.872 179.451 273.779 179.066L207.706 217.152C207.804 217.561 207.858 217.979 207.866 218.4V238.08C207.866 240 206.65 240.838 205.075 240.198H205.12C205.267 240.262 205.414 240.32 205.568 240.371L205.862 240.461C206.022 240.506 206.182 240.544 206.349 240.576C206.515 240.608 206.566 240.614 206.675 240.634L207.168 240.698H207.539H208.006H208.422L208.845 240.666C208.998 240.666 209.152 240.614 209.306 240.582L209.664 240.518C209.83 240.474 209.997 240.416 210.157 240.365C210.317 240.314 210.349 240.314 210.438 240.275C210.648 240.194 210.851 240.097 211.046 239.987C211.078 239.976 211.108 239.961 211.136 239.942L270.656 205.574L271.514 205.088C272.926 203.728 273.784 201.892 273.92 199.936Z" fill="#262626"/>
<path d="M122.957 149.818C134.118 158.829 192.409 202.938 205.325 212.704C206.12 213.3 206.765 214.073 207.209 214.962C207.653 215.85 207.885 216.83 207.885 217.824V238.08C207.885 240.16 206.413 241.011 204.614 240L83.7055 170.176C82.755 169.552 81.964 168.714 81.396 167.73C80.828 166.745 80.4989 165.641 80.4351 164.506V128.48C80.4351 126.4 81.9071 125.549 83.7055 126.592L113.145 143.59C115.942 145.197 120.461 147.802 122.957 149.818Z" fill="#0A0A0A"/>
<path d="M122.598 138.15C125.376 139.75 129.894 142.355 132.397 144.378C134.812 146.368 137.104 148.506 139.258 150.778C139.728 151.235 140.331 151.533 140.98 151.627C141.63 151.721 142.293 151.608 142.874 151.302L186.061 126.342C186.315 126.218 186.536 126.033 186.703 125.803C186.87 125.574 186.978 125.307 187.018 125.027C187.059 124.746 187.03 124.46 186.934 124.193C186.839 123.925 186.68 123.686 186.47 123.494C184.309 121.223 182.012 119.086 179.59 117.094C177.101 115.085 172.582 112.486 169.805 110.88C164.518 107.821 158.586 104.397 153.242 101.318C152.617 101.004 151.928 100.841 151.229 100.841C150.53 100.841 149.84 101.004 149.216 101.318L106.048 126.266C104.941 126.906 104.941 127.949 106.048 128.589L122.598 138.15Z" fill="#D4D4D4"/>
<path d="M149.216 103.379C149.84 103.065 150.53 102.902 151.229 102.902C151.928 102.902 152.617 103.065 153.242 103.379C158.586 106.458 164.518 109.882 169.805 112.941C172.582 114.547 177.101 117.152 179.59 119.162C182.012 121.153 184.31 123.29 186.47 125.562C186.548 125.643 186.619 125.731 186.682 125.824C186.508 126.047 186.29 126.232 186.042 126.368L142.854 151.328C142.273 151.633 141.611 151.747 140.961 151.653C140.312 151.558 139.709 151.261 139.238 150.803C137.085 148.531 134.793 146.394 132.378 144.403C129.875 142.381 125.338 139.776 122.579 138.176L106.048 128.589C105.971 128.544 105.914 128.493 105.85 128.448C105.912 128.396 105.978 128.349 106.048 128.307L149.216 103.379Z" fill="#FAFAFA"/>
<path d="M149.926 136.288L137.005 136.09V130.931L146.259 132.608L146.137 112.109L154.182 111.981L149.926 136.288Z" fill="#EC4899"/>
<path d="M187.347 136.845L187.776 135.066L189.568 134.918L195.424 131.539C198.202 129.939 201.882 130.259 203.674 132.25C204.053 132.664 204.332 133.162 204.486 133.702L204.992 133.658L204.538 135.546C204.337 136.215 204.004 136.837 203.559 137.376C203.114 137.914 202.565 138.358 201.946 138.682L194.816 142.79C194.237 143.1 193.573 143.217 192.923 143.124C192.273 143.031 191.669 142.732 191.2 142.272C190.074 141.069 188.947 139.821 187.821 138.554C187.607 138.33 187.451 138.057 187.368 137.759C187.286 137.461 187.278 137.147 187.347 136.845Z" fill="#EC4899"/>
<path opacity="0.1" d="M187.347 136.845L187.776 135.066L189.568 134.918L195.424 131.539C198.202 129.939 201.882 130.259 203.674 132.25C204.053 132.664 204.332 133.162 204.486 133.702L204.992 133.658L204.538 135.546C204.337 136.215 204.004 136.837 203.559 137.376C203.114 137.914 202.565 138.358 201.946 138.682L194.816 142.79C194.237 143.1 193.573 143.217 192.923 143.124C192.273 143.031 191.669 142.732 191.2 142.272C190.074 141.069 188.947 139.821 187.821 138.554C187.607 138.33 187.451 138.057 187.368 137.759C187.286 137.461 187.278 137.147 187.347 136.845Z" fill="#0A0A0A"/>
<path d="M195.2 141.018L202.33 136.902C205.114 135.296 205.856 132.422 204.064 130.464C202.272 128.506 198.592 128.154 195.814 129.754L188.685 133.869C188.429 133.998 188.207 134.186 188.037 134.417C187.867 134.649 187.754 134.917 187.707 135.2C187.66 135.483 187.681 135.773 187.768 136.047C187.854 136.32 188.004 136.57 188.205 136.774C189.331 138.054 190.46 139.294 191.59 140.493C192.058 140.954 192.66 141.253 193.309 141.347C193.958 141.442 194.621 141.326 195.2 141.018Z" fill="#EC4899"/>
<path d="M150.886 159.027L151.322 157.222L151.827 157.178C152.311 156.597 152.897 156.109 153.555 155.738L160.685 151.622C161.259 151.316 161.918 151.206 162.561 151.31C163.204 151.414 163.795 151.726 164.243 152.198C165.35 153.446 166.458 154.675 167.565 155.866L168.57 155.782L168.115 157.658C167.972 158.127 167.65 158.522 167.219 158.758L160.09 162.874C157.306 164.48 153.549 164.224 151.77 162.234C151.369 161.814 151.078 161.301 150.924 160.742C150.77 160.182 150.757 159.593 150.886 159.027Z" fill="#EC4899"/>
<path opacity="0.1" d="M150.886 159.027L151.322 157.222L151.827 157.178C152.311 156.597 152.897 156.109 153.555 155.738L160.685 151.622C161.259 151.316 161.918 151.206 162.561 151.31C163.204 151.414 163.795 151.726 164.243 152.198C165.35 153.446 166.458 154.675 167.565 155.866L168.57 155.782L168.115 157.658C167.972 158.127 167.65 158.522 167.219 158.758L160.09 162.874C157.306 164.48 153.549 164.224 151.77 162.234C151.369 161.814 151.078 161.301 150.924 160.742C150.77 160.182 150.757 159.593 150.886 159.027Z" fill="#0A0A0A"/>
<path d="M160.493 161.082L167.622 156.966C167.876 156.841 168.095 156.655 168.261 156.426C168.427 156.196 168.535 155.93 168.575 155.65C168.615 155.37 168.587 155.084 168.492 154.817C168.398 154.55 168.24 154.311 168.032 154.118C166.906 152.909 165.786 151.667 164.659 150.4C164.211 149.927 163.621 149.614 162.978 149.509C162.335 149.403 161.676 149.512 161.101 149.818L153.971 153.933C151.194 155.539 150.355 158.47 152.154 160.448C153.952 162.426 157.715 162.682 160.493 161.082Z" fill="#EC4899"/>
<path d="M168.729 147.763L169.152 146.003L170.521 145.914L179.053 140.986C179.771 140.604 180.595 140.468 181.398 140.598C182.202 140.729 182.94 141.119 183.501 141.709C184.354 142.682 185.218 143.635 186.093 144.57C186.177 144.664 186.254 144.765 186.323 144.87L187.174 144.819L186.733 146.656C186.655 146.966 186.513 147.256 186.317 147.509C186.121 147.761 185.875 147.97 185.593 148.122L176.448 153.395C175.726 153.784 174.898 153.932 174.087 153.817C173.275 153.702 172.521 153.33 171.936 152.755C171.072 151.821 170.201 150.867 169.337 149.894C169.068 149.617 168.871 149.277 168.765 148.905C168.659 148.533 168.647 148.141 168.729 147.763Z" fill="#EC4899"/>
<path opacity="0.1" d="M168.729 147.763L169.152 146.003L170.521 145.914L179.053 140.986C179.771 140.604 180.595 140.468 181.398 140.598C182.202 140.729 182.94 141.119 183.501 141.709C184.354 142.682 185.218 143.635 186.093 144.57C186.177 144.664 186.254 144.765 186.323 144.87L187.174 144.819L186.733 146.656C186.655 146.966 186.513 147.256 186.317 147.509C186.121 147.761 185.875 147.97 185.593 148.122L176.448 153.395C175.726 153.784 174.898 153.932 174.087 153.817C173.275 153.702 172.521 153.33 171.936 152.755C171.072 151.821 170.201 150.867 169.337 149.894C169.068 149.617 168.871 149.277 168.765 148.905C168.659 148.533 168.647 148.141 168.729 147.763Z" fill="#0A0A0A"/>
<path d="M169.741 148.109C170.605 149.082 171.475 150.029 172.339 150.97C172.924 151.544 173.678 151.916 174.49 152.031C175.302 152.146 176.129 151.999 176.851 151.61L185.997 146.336C186.313 146.178 186.586 145.947 186.793 145.66C187.001 145.374 187.136 145.042 187.186 144.692C187.237 144.343 187.203 143.986 187.086 143.652C186.969 143.319 186.773 143.019 186.515 142.778C185.651 141.843 184.787 140.858 183.923 139.91C183.362 139.321 182.623 138.931 181.82 138.802C181.016 138.672 180.193 138.81 179.475 139.194L170.336 144.467C170.014 144.629 169.735 144.864 169.522 145.154C169.308 145.444 169.167 145.781 169.109 146.136C169.051 146.491 169.078 146.855 169.188 147.198C169.297 147.541 169.487 147.853 169.741 148.109Z" fill="#EC4899"/>
<g opacity="0.75">
<path d="M195.2 141.018L202.33 136.902C205.114 135.296 205.856 132.422 204.064 130.464C202.272 128.506 198.592 128.154 195.814 129.754L188.685 133.869C188.429 133.998 188.207 134.186 188.037 134.417C187.867 134.649 187.754 134.917 187.707 135.2C187.66 135.483 187.681 135.773 187.768 136.047C187.854 136.32 188.004 136.57 188.205 136.774C189.331 138.054 190.46 139.294 191.59 140.493C192.058 140.954 192.66 141.253 193.309 141.347C193.958 141.442 194.621 141.326 195.2 141.018Z" fill="#FAFAFA"/>
<path d="M160.493 161.082L167.622 156.966C167.876 156.841 168.095 156.655 168.261 156.426C168.427 156.196 168.535 155.93 168.575 155.65C168.615 155.37 168.587 155.084 168.492 154.817C168.398 154.55 168.24 154.311 168.032 154.118C166.906 152.909 165.786 151.667 164.659 150.4C164.211 149.927 163.621 149.614 162.978 149.509C162.335 149.403 161.676 149.512 161.101 149.818L153.971 153.933C151.194 155.539 150.355 158.47 152.154 160.448C153.952 162.426 157.715 162.682 160.493 161.082Z" fill="#FAFAFA"/>
<path d="M169.741 148.109C170.605 149.082 171.475 150.029 172.339 150.97C172.924 151.544 173.678 151.916 174.49 152.031C175.302 152.146 176.129 151.999 176.851 151.61L185.997 146.336C186.313 146.178 186.586 145.947 186.794 145.66C187.001 145.374 187.136 145.042 187.187 144.692C187.238 144.343 187.203 143.986 187.086 143.652C186.969 143.319 186.773 143.019 186.515 142.778C185.651 141.843 184.787 140.858 183.923 139.91C183.362 139.321 182.624 138.931 181.82 138.802C181.017 138.672 180.193 138.81 179.475 139.194L170.336 144.467C170.014 144.629 169.735 144.864 169.522 145.154C169.309 145.444 169.167 145.781 169.109 146.136C169.051 146.491 169.078 146.855 169.188 147.198C169.298 147.541 169.487 147.853 169.741 148.109Z" fill="#FAFAFA"/>
</g>
<path d="M183.61 167.859L181.728 167.904L176.461 163.885C175.996 163.564 175.453 163.375 174.889 163.339C174.326 163.303 173.763 163.421 173.261 163.68L165.21 168.32L162.682 168.384V170.445C162.693 170.651 162.752 170.853 162.854 171.032C162.956 171.212 163.099 171.366 163.27 171.482L169.824 176.486C170.289 176.806 170.832 176.994 171.396 177.03C171.959 177.066 172.522 176.949 173.024 176.691L182.874 171.008C183.082 170.909 183.26 170.756 183.388 170.564C183.517 170.373 183.591 170.15 183.603 169.92L183.61 167.859Z" fill="#EC4899"/>
<path opacity="0.1" d="M183.61 167.859L181.728 167.904L176.461 163.885C175.996 163.564 175.453 163.375 174.889 163.339C174.326 163.303 173.763 163.421 173.261 163.68L165.21 168.32L162.682 168.384V170.445C162.693 170.651 162.752 170.853 162.854 171.032C162.956 171.212 163.099 171.366 163.27 171.482L169.824 176.486C170.289 176.806 170.832 176.994 171.396 177.03C171.959 177.066 172.522 176.949 173.024 176.691L182.874 171.008C183.082 170.909 183.26 170.756 183.388 170.564C183.517 170.373 183.591 170.15 183.603 169.92L183.61 167.859Z" fill="#0A0A0A"/>
<path d="M163.411 167.296L173.267 161.619C173.769 161.36 174.332 161.243 174.896 161.279C175.459 161.315 176.002 161.503 176.467 161.824L183.04 166.829C183.233 166.938 183.392 167.099 183.497 167.295C183.603 167.49 183.651 167.711 183.636 167.932C183.621 168.154 183.544 168.366 183.414 168.546C183.284 168.726 183.105 168.865 182.899 168.947L173.05 174.63C172.547 174.888 171.985 175.005 171.421 174.969C170.858 174.933 170.315 174.745 169.85 174.426L163.296 169.421C163.104 169.311 162.947 169.151 162.841 168.957C162.736 168.763 162.686 168.543 162.698 168.323C162.71 168.102 162.783 167.89 162.909 167.708C163.035 167.527 163.209 167.384 163.411 167.296Z" fill="#EC4899"/>
<path opacity="0.75" d="M163.411 167.296L173.267 161.619C173.769 161.36 174.332 161.243 174.896 161.279C175.459 161.315 176.002 161.503 176.467 161.824L183.04 166.829C183.233 166.938 183.392 167.099 183.497 167.295C183.603 167.49 183.651 167.711 183.636 167.932C183.621 168.154 183.544 168.366 183.414 168.546C183.284 168.726 183.105 168.865 182.899 168.947L173.05 174.63C172.547 174.888 171.985 175.005 171.421 174.969C170.858 174.933 170.315 174.745 169.85 174.426L163.296 169.421C163.104 169.311 162.947 169.151 162.841 168.957C162.736 168.763 162.686 168.543 162.698 168.323C162.71 168.102 162.783 167.89 162.909 167.708C163.035 167.527 163.209 167.384 163.411 167.296Z" fill="#FAFAFA"/>
<path d="M222.08 197.19L220.198 197.242L214.931 193.216C214.466 192.896 213.923 192.709 213.359 192.673C212.796 192.637 212.233 192.754 211.731 193.011L203.673 197.658L201.146 197.715V199.776C201.155 199.983 201.214 200.185 201.316 200.365C201.418 200.545 201.562 200.698 201.734 200.813L208.288 205.818C208.753 206.138 209.296 206.327 209.86 206.363C210.423 206.399 210.986 206.281 211.488 206.022L221.312 200.32C221.52 200.22 221.697 200.065 221.824 199.872C221.952 199.68 222.024 199.456 222.035 199.226L222.08 197.19Z" fill="#EC4899"/>
<path opacity="0.1" d="M222.08 197.19L220.198 197.242L214.931 193.216C214.466 192.896 213.923 192.709 213.359 192.673C212.796 192.637 212.233 192.754 211.731 193.011L203.673 197.658L201.146 197.715V199.776C201.155 199.983 201.214 200.185 201.316 200.365C201.418 200.545 201.562 200.698 201.734 200.813L208.288 205.818C208.753 206.138 209.296 206.327 209.86 206.363C210.423 206.399 210.986 206.281 211.488 206.022L221.312 200.32C221.52 200.22 221.697 200.065 221.824 199.872C221.952 199.68 222.024 199.456 222.035 199.226L222.08 197.19Z" fill="#0A0A0A"/>
<path d="M201.85 196.627L211.706 190.95C212.208 190.693 212.77 190.576 213.334 190.612C213.897 190.648 214.44 190.836 214.906 191.155L221.44 196.16C221.633 196.27 221.791 196.432 221.896 196.628C222.001 196.824 222.049 197.045 222.034 197.266C222.02 197.488 221.943 197.701 221.813 197.881C221.683 198.061 221.505 198.201 221.299 198.285L211.443 203.962C210.941 204.221 210.378 204.338 209.815 204.302C209.251 204.266 208.708 204.078 208.243 203.757L201.69 198.752C201.499 198.639 201.345 198.475 201.243 198.278C201.141 198.082 201.095 197.861 201.112 197.64C201.129 197.419 201.206 197.208 201.337 197.029C201.467 196.85 201.645 196.711 201.85 196.627Z" fill="#EC4899"/>
<path opacity="0.75" d="M201.85 196.627L211.706 190.95C212.208 190.693 212.77 190.576 213.334 190.612C213.897 190.648 214.44 190.836 214.906 191.155L221.44 196.16C221.633 196.27 221.791 196.432 221.896 196.628C222.001 196.824 222.049 197.045 222.034 197.266C222.02 197.488 221.943 197.701 221.813 197.881C221.683 198.061 221.505 198.201 221.299 198.285L211.443 203.962C210.941 204.221 210.378 204.338 209.815 204.302C209.251 204.266 208.708 204.078 208.243 203.757L201.69 198.752C201.499 198.639 201.345 198.475 201.243 198.278C201.141 198.082 201.095 197.861 201.112 197.64C201.129 197.419 201.206 197.208 201.337 197.029C201.467 196.85 201.645 196.711 201.85 196.627Z" fill="#FAFAFA"/>
<path d="M196.422 177.638L194.541 177.683L189.274 173.664C188.809 173.343 188.266 173.155 187.703 173.117C187.139 173.08 186.576 173.196 186.074 173.453L178.016 178.099L175.456 178.163V180.224C175.468 180.43 175.528 180.631 175.63 180.811C175.732 180.991 175.874 181.145 176.045 181.261L182.643 186.24C183.108 186.561 183.651 186.749 184.214 186.787C184.778 186.824 185.34 186.708 185.843 186.451L195.693 180.768C195.901 180.669 196.079 180.516 196.207 180.324C196.336 180.133 196.41 179.91 196.422 179.68V177.638Z" fill="#EC4899"/>
<path opacity="0.1" d="M196.422 177.638L194.541 177.683L189.274 173.664C188.809 173.343 188.266 173.155 187.703 173.117C187.139 173.08 186.576 173.196 186.074 173.453L178.016 178.099L175.456 178.163V180.224C175.468 180.43 175.528 180.631 175.63 180.811C175.732 180.991 175.874 181.145 176.045 181.261L182.643 186.24C183.108 186.561 183.651 186.749 184.214 186.787C184.778 186.824 185.34 186.708 185.843 186.451L195.693 180.768C195.901 180.669 196.079 180.516 196.207 180.324C196.336 180.133 196.41 179.91 196.422 179.68V177.638Z" fill="#0A0A0A"/>
<path d="M176.224 177.075L186.08 171.392C186.583 171.135 187.146 171.019 187.709 171.057C188.272 171.094 188.815 171.283 189.28 171.603L195.84 176.602C196.033 176.712 196.191 176.874 196.296 177.07C196.401 177.265 196.449 177.486 196.434 177.708C196.42 177.93 196.343 178.143 196.213 178.323C196.083 178.503 195.905 178.643 195.699 178.726L185.85 184.41C185.347 184.666 184.784 184.782 184.22 184.745C183.657 184.708 183.114 184.519 182.65 184.198L176.09 179.2C175.899 179.089 175.742 178.927 175.638 178.732C175.534 178.537 175.486 178.317 175.5 178.096C175.514 177.876 175.589 177.663 175.717 177.483C175.845 177.303 176.02 177.161 176.224 177.075Z" fill="#EC4899"/>
<path opacity="0.75" d="M176.224 177.075L186.08 171.392C186.583 171.135 187.146 171.019 187.709 171.057C188.272 171.094 188.815 171.283 189.28 171.603L195.84 176.602C196.033 176.712 196.191 176.874 196.296 177.07C196.401 177.265 196.449 177.486 196.434 177.708C196.42 177.93 196.343 178.143 196.213 178.323C196.083 178.503 195.905 178.643 195.699 178.726L185.85 184.41C185.347 184.666 184.784 184.782 184.22 184.745C183.657 184.708 183.114 184.519 182.65 184.198L176.09 179.2C175.899 179.089 175.742 178.927 175.638 178.732C175.534 178.537 175.486 178.317 175.5 178.096C175.514 177.876 175.589 177.663 175.717 177.483C175.845 177.303 176.02 177.161 176.224 177.075Z" fill="#FAFAFA"/>
<path d="M209.235 187.411L207.354 187.462L202.086 183.437C201.621 183.117 201.078 182.929 200.515 182.893C199.951 182.857 199.389 182.974 198.886 183.232L190.829 187.878L188.301 187.942V190.003C188.312 190.209 188.37 190.409 188.473 190.588C188.575 190.767 188.718 190.92 188.89 191.034L195.443 196.038C195.908 196.359 196.451 196.548 197.015 196.584C197.578 196.62 198.141 196.502 198.643 196.243L208.493 190.566C208.701 190.466 208.878 190.311 209.005 190.119C209.133 189.926 209.205 189.703 209.216 189.472L209.235 187.411Z" fill="#EC4899"/>
<path opacity="0.1" d="M209.235 187.411L207.354 187.462L202.086 183.437C201.621 183.117 201.078 182.929 200.515 182.893C199.951 182.857 199.389 182.974 198.886 183.232L190.829 187.878L188.301 187.942V190.003C188.312 190.209 188.37 190.409 188.473 190.588C188.575 190.767 188.718 190.92 188.89 191.034L195.443 196.038C195.908 196.359 196.451 196.548 197.015 196.584C197.578 196.62 198.141 196.502 198.643 196.243L208.493 190.566C208.701 190.466 208.878 190.311 209.005 190.119C209.133 189.926 209.205 189.703 209.216 189.472L209.235 187.411Z" fill="#0A0A0A"/>
<path d="M189.037 186.88L198.893 181.197C199.395 180.939 199.958 180.822 200.521 180.858C201.084 180.894 201.627 181.082 202.093 181.402L208.64 186.381C208.833 186.491 208.991 186.653 209.096 186.849C209.201 187.044 209.249 187.266 209.234 187.487C209.219 187.709 209.143 187.922 209.013 188.102C208.883 188.282 208.705 188.422 208.499 188.506L198.65 194.182C198.148 194.441 197.585 194.559 197.021 194.523C196.458 194.487 195.914 194.298 195.45 193.978L188.896 188.973C188.712 188.86 188.562 188.699 188.463 188.507C188.364 188.315 188.319 188.099 188.333 187.884C188.348 187.668 188.421 187.461 188.545 187.284C188.669 187.107 188.839 186.967 189.037 186.88Z" fill="#EC4899"/>
<path opacity="0.75" d="M189.037 186.88L198.893 181.197C199.395 180.939 199.958 180.822 200.521 180.858C201.084 180.894 201.627 181.082 202.093 181.402L208.64 186.381C208.833 186.491 208.991 186.653 209.096 186.849C209.201 187.044 209.249 187.266 209.234 187.487C209.219 187.709 209.143 187.922 209.013 188.102C208.883 188.282 208.705 188.422 208.499 188.506L198.65 194.182C198.148 194.441 197.585 194.559 197.021 194.523C196.458 194.487 195.914 194.298 195.45 193.978L188.896 188.973C188.712 188.86 188.562 188.699 188.463 188.507C188.364 188.315 188.319 188.099 188.333 187.884C188.348 187.668 188.421 187.461 188.545 187.284C188.669 187.107 188.839 186.967 189.037 186.88Z" fill="#FAFAFA"/>
<path d="M203.386 156.461L201.504 156.512L196.237 152.486C195.771 152.167 195.228 151.979 194.665 151.943C194.102 151.907 193.539 152.024 193.037 152.282L184.96 156.928L182.4 156.992V159.053C182.412 159.258 182.472 159.458 182.574 159.637C182.676 159.816 182.818 159.968 182.989 160.083L189.606 165.12C190.071 165.441 190.614 165.629 191.178 165.665C191.742 165.702 192.304 165.584 192.806 165.325L202.662 159.648C202.87 159.548 203.047 159.393 203.175 159.2C203.302 159.008 203.375 158.784 203.386 158.554V156.461Z" fill="#EC4899"/>
<path opacity="0.1" d="M203.386 156.461L201.504 156.512L196.237 152.486C195.771 152.167 195.228 151.979 194.665 151.943C194.102 151.907 193.539 152.024 193.037 152.282L184.96 156.928L182.4 156.992V159.053C182.412 159.258 182.472 159.458 182.574 159.637C182.676 159.816 182.818 159.968 182.989 160.083L189.606 165.12C190.071 165.441 190.614 165.629 191.178 165.665C191.742 165.702 192.304 165.584 192.806 165.325L202.662 159.648C202.87 159.548 203.047 159.393 203.175 159.2C203.302 159.008 203.375 158.784 203.386 158.554V156.461Z" fill="#0A0A0A"/>
<path d="M183.187 155.904L193.043 150.221C193.545 149.963 194.108 149.846 194.671 149.882C195.235 149.918 195.778 150.106 196.243 150.426L202.797 155.43C202.988 155.542 203.144 155.704 203.248 155.899C203.352 156.094 203.4 156.314 203.386 156.534C203.372 156.755 203.297 156.967 203.169 157.147C203.041 157.328 202.866 157.469 202.662 157.555L192.806 163.232C192.304 163.491 191.742 163.609 191.178 163.573C190.614 163.537 190.071 163.348 189.606 163.027L183.04 158.022C182.849 157.911 182.693 157.749 182.59 157.553C182.486 157.358 182.44 157.138 182.455 156.917C182.47 156.697 182.547 156.485 182.676 156.306C182.806 156.127 182.983 155.988 183.187 155.904Z" fill="#EC4899"/>
<path opacity="0.75" d="M183.187 155.904L193.043 150.221C193.545 149.963 194.108 149.846 194.671 149.882C195.235 149.918 195.778 150.106 196.243 150.426L202.797 155.43C202.988 155.542 203.144 155.704 203.248 155.899C203.352 156.094 203.4 156.314 203.386 156.534C203.372 156.755 203.297 156.967 203.169 157.147C203.041 157.328 202.866 157.469 202.662 157.555L192.806 163.232C192.304 163.491 191.742 163.609 191.178 163.573C190.614 163.537 190.071 163.348 189.606 163.027L183.04 158.022C182.849 157.911 182.693 157.749 182.59 157.553C182.486 157.358 182.44 157.138 182.455 156.917C182.47 156.697 182.547 156.485 182.676 156.306C182.806 156.127 182.983 155.988 183.187 155.904Z" fill="#FAFAFA"/>
<path d="M241.824 185.798L239.942 185.843L234.675 181.818C234.209 181.499 233.666 181.312 233.103 181.276C232.54 181.24 231.978 181.356 231.475 181.613L223.424 186.24L220.864 186.304V188.365C220.875 188.571 220.934 188.773 221.036 188.952C221.139 189.132 221.281 189.286 221.453 189.402L228.006 194.4C228.471 194.721 229.014 194.909 229.577 194.947C230.141 194.984 230.704 194.868 231.206 194.611L241.056 188.928C241.264 188.828 241.441 188.673 241.568 188.48C241.696 188.288 241.769 188.064 241.779 187.834L241.824 185.798Z" fill="#EC4899"/>
<path opacity="0.1" d="M241.824 185.798L239.942 185.843L234.675 181.818C234.209 181.499 233.666 181.312 233.103 181.276C232.54 181.24 231.978 181.356 231.475 181.613L223.424 186.24L220.864 186.304V188.365C220.875 188.571 220.934 188.773 221.036 188.952C221.139 189.132 221.281 189.286 221.453 189.402L228.006 194.4C228.471 194.721 229.014 194.909 229.577 194.947C230.141 194.984 230.704 194.868 231.206 194.611L241.056 188.928C241.264 188.828 241.441 188.673 241.568 188.48C241.696 188.288 241.769 188.064 241.779 187.834L241.824 185.798Z" fill="#0A0A0A"/>
<path d="M221.626 185.235L231.482 179.552C231.984 179.295 232.547 179.179 233.111 179.217C233.674 179.254 234.217 179.443 234.682 179.763L241.235 184.762C241.428 184.872 241.586 185.034 241.691 185.229C241.796 185.425 241.844 185.646 241.829 185.868C241.815 186.09 241.738 186.303 241.608 186.483C241.478 186.663 241.3 186.803 241.094 186.886L231.245 192.57C230.742 192.826 230.179 192.942 229.616 192.905C229.052 192.868 228.509 192.679 228.045 192.358L221.491 187.36C221.3 187.249 221.144 187.087 221.04 186.892C220.936 186.697 220.888 186.477 220.902 186.256C220.916 186.035 220.991 185.823 221.119 185.643C221.247 185.463 221.422 185.321 221.626 185.235Z" fill="#EC4899"/>
<path opacity="0.75" d="M221.626 185.235L231.482 179.552C231.984 179.295 232.547 179.179 233.111 179.217C233.674 179.254 234.217 179.443 234.682 179.763L241.235 184.762C241.428 184.872 241.586 185.034 241.691 185.229C241.796 185.425 241.844 185.646 241.829 185.868C241.815 186.09 241.738 186.303 241.608 186.483C241.478 186.663 241.3 186.803 241.094 186.886L231.245 192.57C230.742 192.826 230.179 192.942 229.616 192.905C229.052 192.868 228.509 192.679 228.045 192.358L221.491 187.36C221.3 187.249 221.144 187.087 221.04 186.892C220.936 186.697 220.888 186.477 220.902 186.256C220.916 186.035 220.991 185.823 221.119 185.643C221.247 185.463 221.422 185.321 221.626 185.235Z" fill="#FAFAFA"/>
<path d="M216.198 166.24L214.317 166.291L209.05 162.266C208.585 161.945 208.041 161.756 207.478 161.72C206.914 161.684 206.351 161.802 205.85 162.061L197.792 166.701L195.264 166.765V168.826C195.275 169.032 195.334 169.233 195.436 169.413C195.539 169.593 195.681 169.747 195.853 169.862L202.406 174.867C202.872 175.187 203.415 175.374 203.978 175.411C204.541 175.447 205.104 175.33 205.606 175.072L215.462 169.395C215.669 169.297 215.845 169.146 215.974 168.957C216.102 168.768 216.177 168.548 216.192 168.32L216.198 166.24Z" fill="#EC4899"/>
<path opacity="0.1" d="M216.198 166.24L214.317 166.291L209.05 162.266C208.585 161.945 208.041 161.756 207.478 161.72C206.914 161.684 206.351 161.802 205.85 162.061L197.792 166.701L195.264 166.765V168.826C195.275 169.032 195.334 169.233 195.436 169.413C195.539 169.593 195.681 169.747 195.853 169.862L202.406 174.867C202.872 175.187 203.415 175.374 203.978 175.411C204.541 175.447 205.104 175.33 205.606 175.072L215.462 169.395C215.669 169.297 215.845 169.146 215.974 168.957C216.102 168.768 216.177 168.548 216.192 168.32L216.198 166.24Z" fill="#0A0A0A"/>
<path d="M196 165.677L205.856 160C206.358 159.742 206.921 159.625 207.484 159.661C208.047 159.697 208.591 159.885 209.056 160.205L215.61 165.21C215.801 165.321 215.957 165.483 216.061 165.678C216.165 165.873 216.213 166.093 216.199 166.314C216.185 166.534 216.11 166.746 215.982 166.927C215.854 167.107 215.679 167.248 215.475 167.334L205.619 173.011C205.117 173.269 204.554 173.386 203.991 173.35C203.428 173.314 202.884 173.126 202.419 172.806L195.84 167.802C195.65 167.688 195.495 167.524 195.393 167.328C195.291 167.131 195.246 166.91 195.262 166.69C195.279 166.469 195.357 166.257 195.487 166.078C195.617 165.899 195.795 165.76 196 165.677Z" fill="#EC4899"/>
<path opacity="0.75" d="M196 165.677L205.856 160C206.358 159.742 206.921 159.625 207.484 159.661C208.047 159.697 208.591 159.885 209.056 160.205L215.61 165.21C215.801 165.321 215.957 165.483 216.061 165.678C216.165 165.873 216.213 166.093 216.199 166.314C216.185 166.534 216.11 166.746 215.982 166.927C215.854 167.107 215.679 167.248 215.475 167.334L205.619 173.011C205.117 173.269 204.554 173.386 203.991 173.35C203.428 173.314 202.884 173.126 202.419 172.806L195.84 167.802C195.65 167.688 195.495 167.524 195.393 167.328C195.291 167.131 195.246 166.91 195.262 166.69C195.279 166.469 195.357 166.257 195.487 166.078C195.617 165.899 195.795 165.76 196 165.677Z" fill="#FAFAFA"/>
<path d="M229.011 176L227.129 176.045L221.862 172.026C221.397 171.705 220.854 171.516 220.291 171.48C219.727 171.444 219.164 171.562 218.662 171.821L210.605 176.461L208.077 176.525V178.586C208.088 178.792 208.147 178.993 208.249 179.173C208.351 179.353 208.494 179.507 208.665 179.622L215.219 184.627C215.685 184.945 216.228 185.132 216.791 185.168C217.354 185.205 217.916 185.088 218.419 184.832L228.275 179.2C228.483 179.101 228.661 178.948 228.79 178.756C228.918 178.565 228.992 178.342 229.005 178.112L229.011 176Z" fill="#EC4899"/>
<path opacity="0.1" d="M229.011 176L227.129 176.045L221.862 172.026C221.397 171.705 220.854 171.516 220.291 171.48C219.727 171.444 219.164 171.562 218.662 171.821L210.605 176.461L208.077 176.525V178.586C208.088 178.792 208.147 178.993 208.249 179.173C208.351 179.353 208.494 179.507 208.665 179.622L215.219 184.627C215.685 184.945 216.228 185.132 216.791 185.168C217.354 185.205 217.916 185.088 218.419 184.832L228.275 179.2C228.483 179.101 228.661 178.948 228.79 178.756C228.918 178.565 228.992 178.342 229.005 178.112L229.011 176Z" fill="#0A0A0A"/>
<path d="M208.813 175.456L218.669 169.779C219.171 169.52 219.734 169.402 220.297 169.438C220.861 169.475 221.404 169.663 221.869 169.984L228.422 174.989C228.616 175.098 228.774 175.259 228.88 175.455C228.985 175.65 229.033 175.871 229.018 176.092C229.004 176.314 228.927 176.526 228.796 176.706C228.666 176.886 228.488 177.025 228.282 177.107L218.432 182.79C217.93 183.048 217.367 183.165 216.804 183.129C216.24 183.093 215.697 182.905 215.232 182.586L208.678 177.581C208.487 177.47 208.331 177.307 208.227 177.112C208.123 176.918 208.075 176.697 208.089 176.477C208.103 176.256 208.178 176.044 208.306 175.864C208.434 175.683 208.609 175.542 208.813 175.456Z" fill="#EC4899"/>
<path opacity="0.75" d="M208.813 175.456L218.669 169.779C219.171 169.52 219.734 169.402 220.297 169.438C220.861 169.475 221.404 169.663 221.869 169.984L228.422 174.989C228.616 175.098 228.774 175.259 228.88 175.455C228.985 175.65 229.033 175.871 229.018 176.092C229.004 176.314 228.927 176.526 228.796 176.706C228.666 176.886 228.488 177.025 228.282 177.107L218.432 182.79C217.93 183.048 217.367 183.165 216.804 183.129C216.24 183.093 215.697 182.905 215.232 182.586L208.678 177.581C208.487 177.47 208.331 177.307 208.227 177.112C208.123 176.918 208.075 176.697 208.089 176.477C208.103 176.256 208.178 176.044 208.306 175.864C208.434 175.683 208.609 175.542 208.813 175.456Z" fill="#FAFAFA"/>
<path d="M223.155 145.062L221.273 145.107L216.006 141.088C215.542 140.767 214.998 140.579 214.435 140.542C213.871 140.506 213.308 140.624 212.806 140.883L204.749 145.523L202.221 145.587V147.648C202.232 147.855 202.291 148.056 202.393 148.236C202.495 148.416 202.638 148.569 202.81 148.685L209.363 153.69C209.828 154.009 210.372 154.197 210.935 154.233C211.498 154.269 212.061 154.152 212.563 153.894L222.413 148.211C222.621 148.112 222.799 147.959 222.927 147.768C223.056 147.576 223.13 147.353 223.142 147.123L223.155 145.062Z" fill="#EC4899"/>
<path opacity="0.1" d="M223.155 145.062L221.273 145.107L216.006 141.088C215.542 140.767 214.998 140.579 214.435 140.542C213.871 140.506 213.308 140.624 212.806 140.883L204.749 145.523L202.221 145.587V147.648C202.232 147.855 202.291 148.056 202.393 148.236C202.495 148.416 202.638 148.569 202.81 148.685L209.363 153.69C209.828 154.009 210.372 154.197 210.935 154.233C211.498 154.269 212.061 154.152 212.563 153.894L222.413 148.211C222.621 148.112 222.799 147.959 222.927 147.768C223.056 147.576 223.13 147.353 223.142 147.123L223.155 145.062Z" fill="#0A0A0A"/>
<path d="M202.957 144.499L212.813 138.822C213.314 138.563 213.877 138.446 214.441 138.482C215.005 138.518 215.548 138.706 216.013 139.027L222.566 144.032C222.759 144.141 222.918 144.303 223.023 144.498C223.129 144.693 223.177 144.914 223.162 145.135C223.147 145.357 223.07 145.57 222.94 145.749C222.81 145.929 222.631 146.068 222.425 146.15L212.576 151.834C212.074 152.091 211.511 152.208 210.948 152.172C210.384 152.136 209.841 151.948 209.376 151.629L202.822 146.624C202.631 146.513 202.475 146.351 202.371 146.156C202.267 145.961 202.219 145.741 202.233 145.52C202.247 145.3 202.322 145.087 202.45 144.907C202.578 144.727 202.753 144.585 202.957 144.499Z" fill="#EC4899"/>
<path opacity="0.75" d="M202.957 144.499L212.813 138.822C213.314 138.563 213.877 138.446 214.441 138.482C215.005 138.518 215.548 138.706 216.013 139.027L222.566 144.032C222.759 144.141 222.918 144.303 223.023 144.498C223.129 144.693 223.177 144.914 223.162 145.135C223.147 145.357 223.07 145.57 222.94 145.749C222.81 145.929 222.631 146.068 222.425 146.15L212.576 151.834C212.074 152.091 211.511 152.208 210.948 152.172C210.384 152.136 209.841 151.948 209.376 151.629L202.822 146.624C202.631 146.513 202.475 146.351 202.371 146.156C202.267 145.961 202.219 145.741 202.233 145.52C202.247 145.3 202.322 145.087 202.45 144.907C202.578 144.727 202.753 144.585 202.957 144.499Z" fill="#FAFAFA"/>
<path d="M261.593 174.394L259.712 174.445L254.445 170.419C253.98 170.098 253.437 169.91 252.873 169.874C252.309 169.838 251.747 169.955 251.245 170.214L243.2 174.854L240.672 174.918V176.979C240.682 177.186 240.74 177.388 240.842 177.568C240.945 177.748 241.088 177.902 241.261 178.016L247.814 183.04C248.279 183.361 248.822 183.549 249.386 183.585C249.95 183.621 250.512 183.504 251.014 183.245L260.87 177.568C261.078 177.468 261.255 177.313 261.383 177.12C261.51 176.928 261.583 176.704 261.593 176.474V174.394Z" fill="#EC4899"/>
<path opacity="0.1" d="M261.593 174.394L259.712 174.445L254.445 170.419C253.98 170.098 253.437 169.91 252.873 169.874C252.309 169.838 251.747 169.955 251.245 170.214L243.2 174.854L240.672 174.918V176.979C240.682 177.186 240.74 177.388 240.842 177.568C240.945 177.748 241.088 177.902 241.261 178.016L247.814 183.04C248.279 183.361 248.822 183.549 249.386 183.585C249.95 183.621 250.512 183.504 251.014 183.245L260.87 177.568C261.078 177.468 261.255 177.313 261.383 177.12C261.51 176.928 261.583 176.704 261.593 176.474V174.394Z" fill="#0A0A0A"/>
<path d="M241.395 173.83L251.251 168.154C251.754 167.896 252.316 167.779 252.88 167.815C253.443 167.851 253.986 168.039 254.451 168.358L261.005 173.363C261.198 173.473 261.356 173.636 261.461 173.831C261.566 174.027 261.614 174.248 261.599 174.47C261.584 174.691 261.508 174.904 261.378 175.084C261.248 175.264 261.07 175.404 260.864 175.488L251.008 181.165C250.506 181.424 249.943 181.542 249.38 181.506C248.816 181.469 248.273 181.281 247.808 180.96L241.28 175.955C241.088 175.846 240.931 175.685 240.825 175.491C240.72 175.297 240.67 175.078 240.682 174.857C240.694 174.637 240.767 174.424 240.893 174.243C241.019 174.061 241.193 173.919 241.395 173.83Z" fill="#EC4899"/>
<path opacity="0.75" d="M241.395 173.83L251.251 168.154C251.754 167.896 252.316 167.779 252.88 167.815C253.443 167.851 253.986 168.039 254.451 168.358L261.005 173.363C261.198 173.473 261.356 173.636 261.461 173.831C261.566 174.027 261.614 174.248 261.599 174.47C261.584 174.691 261.508 174.904 261.378 175.084C261.248 175.264 261.07 175.404 260.864 175.488L251.008 181.165C250.506 181.424 249.943 181.542 249.38 181.506C248.816 181.469 248.273 181.281 247.808 180.96L241.28 175.955C241.088 175.846 240.931 175.685 240.825 175.491C240.72 175.297 240.67 175.078 240.682 174.857C240.694 174.637 240.767 174.424 240.893 174.243C241.019 174.061 241.193 173.919 241.395 173.83Z" fill="#FAFAFA"/>
<path d="M248.781 164.614L246.899 164.666L241.632 160.64C241.167 160.32 240.624 160.133 240.06 160.097C239.497 160.061 238.934 160.178 238.432 160.435L230.4 165.082L227.84 165.146V167.206C227.851 167.412 227.91 167.613 228.012 167.792C228.114 167.971 228.257 168.123 228.429 168.237L234.982 173.242C235.447 173.564 235.99 173.753 236.554 173.789C237.118 173.825 237.681 173.707 238.182 173.446L248.038 167.77C248.247 167.669 248.424 167.515 248.551 167.322C248.678 167.129 248.751 166.906 248.762 166.675L248.781 164.614Z" fill="#EC4899"/>
<path opacity="0.1" d="M248.781 164.614L246.899 164.666L241.632 160.64C241.167 160.32 240.624 160.133 240.06 160.097C239.497 160.061 238.934 160.178 238.432 160.435L230.4 165.082L227.84 165.146V167.206C227.851 167.412 227.91 167.613 228.012 167.792C228.114 167.971 228.257 168.123 228.429 168.237L234.982 173.242C235.447 173.564 235.99 173.753 236.554 173.789C237.118 173.825 237.681 173.707 238.182 173.446L248.038 167.77C248.247 167.669 248.424 167.515 248.551 167.322C248.678 167.129 248.751 166.906 248.762 166.675L248.781 164.614Z" fill="#0A0A0A"/>
<path d="M228.582 164.058L238.438 158.374C238.941 158.117 239.503 158 240.066 158.036C240.63 158.072 241.173 158.26 241.638 158.579L248.192 163.584C248.385 163.694 248.543 163.856 248.648 164.052C248.753 164.248 248.801 164.469 248.786 164.69C248.771 164.912 248.695 165.125 248.565 165.305C248.435 165.485 248.257 165.625 248.051 165.709L238.195 171.386C237.694 171.646 237.13 171.764 236.567 171.728C236.003 171.692 235.459 171.503 234.995 171.181L228.48 166.176C228.287 166.069 228.129 165.909 228.022 165.717C227.915 165.524 227.864 165.305 227.874 165.085C227.885 164.865 227.957 164.652 228.082 164.47C228.207 164.289 228.38 164.146 228.582 164.058Z" fill="#EC4899"/>
<path opacity="0.75" d="M228.582 164.058L238.438 158.374C238.941 158.117 239.503 158 240.066 158.036C240.63 158.072 241.173 158.26 241.638 158.579L248.192 163.584C248.385 163.694 248.543 163.856 248.648 164.052C248.753 164.248 248.801 164.469 248.786 164.69C248.771 164.912 248.695 165.125 248.565 165.305C248.435 165.485 248.257 165.625 248.051 165.709L238.195 171.386C237.694 171.646 237.13 171.764 236.567 171.728C236.003 171.692 235.459 171.503 234.995 171.181L228.48 166.176C228.287 166.069 228.129 165.909 228.022 165.717C227.915 165.524 227.864 165.305 227.874 165.085C227.885 164.865 227.957 164.652 228.082 164.47C228.207 164.289 228.38 164.146 228.582 164.058Z" fill="#FAFAFA"/>
<path d="M235.968 154.842L234.086 154.886L228.819 150.867C228.354 150.547 227.811 150.358 227.248 150.321C226.685 150.283 226.122 150.399 225.619 150.656L217.6 155.302L215.072 155.366V157.44C215.083 157.647 215.141 157.848 215.244 158.028C215.346 158.208 215.489 158.362 215.661 158.477L222.214 163.475C222.679 163.796 223.222 163.985 223.785 164.022C224.348 164.059 224.911 163.943 225.414 163.686L235.264 158.003C235.471 157.903 235.647 157.75 235.775 157.558C235.902 157.367 235.975 157.145 235.987 156.915L235.968 154.842Z" fill="#EC4899"/>
<path opacity="0.1" d="M235.968 154.842L234.086 154.886L228.819 150.867C228.354 150.547 227.811 150.358 227.248 150.321C226.685 150.283 226.122 150.399 225.619 150.656L217.6 155.302L215.072 155.366V157.44C215.083 157.647 215.141 157.848 215.244 158.028C215.346 158.208 215.489 158.362 215.661 158.477L222.214 163.475C222.679 163.796 223.222 163.985 223.785 164.022C224.348 164.059 224.911 163.943 225.414 163.686L235.264 158.003C235.471 157.903 235.647 157.75 235.775 157.558C235.902 157.367 235.975 157.145 235.987 156.915L235.968 154.842Z" fill="#0A0A0A"/>
<path d="M215.77 154.278L225.626 148.595C226.128 148.338 226.691 148.223 227.255 148.26C227.818 148.297 228.361 148.486 228.826 148.806L235.379 153.805C235.572 153.915 235.73 154.077 235.835 154.273C235.94 154.468 235.988 154.69 235.973 154.911C235.959 155.133 235.882 155.346 235.752 155.526C235.622 155.706 235.444 155.846 235.238 155.93L225.389 161.613C224.886 161.869 224.323 161.985 223.76 161.948C223.196 161.911 222.654 161.722 222.189 161.402L215.635 156.403C215.444 156.292 215.288 156.13 215.184 155.935C215.08 155.74 215.032 155.52 215.046 155.299C215.06 155.079 215.135 154.866 215.263 154.686C215.391 154.506 215.566 154.365 215.77 154.278Z" fill="#EC4899"/>
<path opacity="0.75" d="M215.77 154.278L225.626 148.595C226.128 148.338 226.691 148.223 227.255 148.26C227.818 148.297 228.361 148.486 228.826 148.806L235.379 153.805C235.572 153.915 235.73 154.077 235.835 154.273C235.94 154.468 235.988 154.69 235.973 154.911C235.959 155.133 235.882 155.346 235.752 155.526C235.622 155.706 235.444 155.846 235.238 155.93L225.389 161.613C224.886 161.869 224.323 161.985 223.76 161.948C223.196 161.911 222.654 161.722 222.189 161.402L215.635 156.403C215.444 156.292 215.288 156.13 215.184 155.935C215.08 155.74 215.032 155.52 215.046 155.299C215.06 155.079 215.135 154.866 215.263 154.686C215.391 154.506 215.566 154.365 215.77 154.278Z" fill="#FAFAFA"/>
<path d="M77.2224 94.3616V87.264C77.2156 85.5049 76.512 83.8201 75.2657 82.5786C74.0194 81.3371 72.3319 80.64 70.5728 80.64V87.7376C70.5795 89.4968 71.2831 91.1815 72.5294 92.4231C73.7757 93.6646 75.4632 94.3616 77.2224 94.3616Z" fill="#0A0A0A"/>
<path d="M98.8545 152.627L77.6001 141.83L79.5201 177.542L100.775 188.339L98.8545 152.627Z" fill="#EC4899"/>
<path opacity="0.5" d="M98.8545 152.627L77.6001 141.83L79.5201 177.542L100.775 188.339L98.8545 152.627Z" fill="#FAFAFA"/>
<path d="M100.774 188.339L110.765 181.837L102.854 150.029L98.8545 152.627L100.774 188.339Z" fill="#EC4899"/>
<path d="M110.765 181.837L103.981 181.325L100.774 188.339L110.765 181.837Z" fill="#EC4899"/>
<path opacity="0.3" d="M110.765 181.837L103.981 181.325L100.774 188.339L110.765 181.837Z" fill="#0A0A0A"/>
<path d="M103.981 181.325L98.7263 150.246L98.8543 152.627L100.774 188.339L103.981 181.325Z" fill="#EC4899"/>
<path opacity="0.1" d="M103.981 181.325L98.7263 150.246L98.8543 152.627L100.774 188.339L103.981 181.325Z" fill="#0A0A0A"/>
<path d="M77.6001 141.83L81.7217 141.613L81.5937 139.232L102.855 150.029L98.7265 150.246L98.8545 152.627L77.6001 141.83Z" fill="#EC4899"/>
<path d="M92.1153 151.386C92.1153 151.686 91.9233 151.827 91.6481 151.686C91.5037 151.602 91.381 151.486 91.2898 151.346C91.1987 151.206 91.1416 151.046 91.1233 150.88C91.1233 150.573 91.3153 150.438 91.5905 150.573C91.7351 150.658 91.8577 150.776 91.9488 150.917C92.0399 151.058 92.0969 151.219 92.1153 151.386Z" fill="#404040"/>
<path d="M85.7601 148.211C85.7601 148.518 85.5681 148.659 85.2929 148.518C85.1494 148.433 85.0275 148.316 84.9365 148.176C84.8455 148.037 84.7879 147.878 84.7681 147.712C84.7681 147.405 84.9601 147.27 85.2353 147.405C85.38 147.488 85.503 147.605 85.5942 147.745C85.6854 147.885 85.7422 148.045 85.7601 148.211Z" fill="#404040"/>
<path d="M96.0001 148.858C96.0001 149.165 95.8081 149.299 95.5329 149.158C95.3878 149.075 95.2645 148.959 95.1733 148.818C95.082 148.678 95.0254 148.518 95.0081 148.352C95.0081 148.045 95.2001 147.91 95.4753 148.051C95.6203 148.134 95.7436 148.251 95.8348 148.391C95.9261 148.531 95.9827 148.691 96.0001 148.858Z" fill="#404040"/>
<path d="M89.6832 145.651C89.6832 145.958 89.4912 146.093 89.216 145.958C89.0704 145.874 88.9469 145.757 88.8557 145.615C88.7644 145.474 88.7081 145.313 88.6912 145.146C88.6912 144.838 88.8832 144.704 89.1584 144.845C89.3028 144.929 89.4255 145.046 89.5166 145.186C89.6078 145.326 89.6648 145.485 89.6832 145.651Z" fill="#404040"/>
<path d="M102.854 150.029L98.7263 150.246L103.981 181.325L110.765 181.837L102.854 150.029Z" fill="#EC4899"/>
<path opacity="0.2" d="M102.854 150.029L98.7263 150.246L103.981 181.325L110.765 181.837L102.854 150.029Z" fill="#0A0A0A"/>
<path d="M81.5935 139.232L81.7215 141.613L81.8495 143.994L82.9311 144.538L81.5935 139.232Z" fill="#EC4899"/>
<path opacity="0.2" d="M81.5935 139.232L81.7215 141.613L81.8495 143.994L82.9311 144.538L81.5935 139.232Z" fill="#0A0A0A"/>
<path d="M72.0383 86.464C74.9055 86.3104 80.7103 86.5536 82.8351 94.784C84.6271 101.696 89.4719 116.826 90.7327 123.546C91.6927 128.666 93.0111 132.25 93.2031 135.821C92.8447 137.658 91.3791 139.661 87.3471 140.301C83.5071 139.283 84.1791 138.65 83.9103 135.245C83.6415 131.84 85.3951 130.867 84.8383 126.829C83.6735 118.349 76.0831 100.678 76.0831 100.678L72.0383 86.464Z" fill="#FCA5A5"/>
<path d="M95.5009 148.909C95.4325 148.908 95.3663 148.884 95.313 148.841C95.2597 148.798 95.2222 148.739 95.2065 148.672C95.2065 148.627 94.2593 144.474 93.2033 141.325C92.3713 138.848 90.5409 138.291 88.9345 137.798C88.5761 137.69 88.2369 137.587 87.9297 137.472C87.8554 137.441 87.796 137.382 87.7639 137.308C87.7317 137.234 87.7292 137.151 87.7569 137.075C87.7711 137.037 87.7927 137.003 87.8203 136.973C87.848 136.944 87.8812 136.92 87.9181 136.903C87.9549 136.887 87.9947 136.877 88.0352 136.876C88.0756 136.875 88.1159 136.882 88.1537 136.896C88.4481 137.011 88.7937 137.107 89.1137 137.216C90.7777 137.722 92.8513 138.355 93.7857 141.133C94.8481 144.333 95.7953 148.493 95.8017 148.538C95.8111 148.577 95.8126 148.617 95.8061 148.657C95.7995 148.697 95.7851 148.735 95.7636 148.769C95.7421 148.803 95.714 148.832 95.681 148.855C95.648 148.878 95.6107 148.894 95.5713 148.902L95.5009 148.909Z" fill="#0A0A0A"/>
<path d="M90.5216 132.25C89.8906 133.439 89.4193 134.707 89.12 136.019C89.0176 136.73 87.84 136.173 87.6032 135.251C87.4141 133.781 87.3328 132.298 87.36 130.816C87.36 130.816 86.8096 133.651 87.1104 135.002C87.4112 136.352 87.7504 136.621 88.736 136.922C89.7216 137.222 89.568 136.352 89.7984 135.226C90.0288 134.099 90.5216 132.25 90.5216 132.25Z" fill="#F87171"/>
<path d="M91.2577 150.97L90.8161 142.72C90.7265 140.902 90.6177 138.835 87.5521 137.261C86.4769 136.71 85.6833 136.55 85.3057 136.819C84.9281 137.088 85.0241 137.754 85.0241 137.76L85.5681 147.885C85.5574 147.958 85.5209 148.025 85.465 148.073C85.4092 148.121 85.3379 148.148 85.2641 148.148C85.1903 148.148 85.1189 148.121 85.0631 148.073C85.0073 148.025 84.9707 147.958 84.9601 147.885L84.4161 137.792C84.3744 137.518 84.4011 137.238 84.4938 136.977C84.5865 136.715 84.7422 136.481 84.9473 136.294C85.5425 135.866 86.4897 135.994 87.8337 136.685C91.2129 138.426 91.3345 140.768 91.4241 142.656L91.8721 150.893C91.8756 150.975 91.8467 151.055 91.7916 151.116C91.7366 151.177 91.6597 151.214 91.5777 151.219C91.5031 151.224 91.4295 151.201 91.3706 151.155C91.3117 151.109 91.2715 151.043 91.2577 150.97Z" fill="#0A0A0A"/>
<path d="M89.1842 145.613C89.1157 145.612 89.0496 145.588 88.9963 145.545C88.9429 145.502 88.9054 145.443 88.8898 145.376L87.5266 139.206C87.5181 139.167 87.5175 139.126 87.5249 139.086C87.5322 139.047 87.5473 139.009 87.5693 138.975C87.5913 138.941 87.6198 138.912 87.6531 138.889C87.6864 138.866 87.7239 138.85 87.7634 138.842C87.843 138.826 87.9255 138.842 87.9935 138.886C88.0615 138.931 88.1098 138.999 88.1282 139.078L89.485 145.242C89.4944 145.281 89.4959 145.321 89.4893 145.361C89.4828 145.401 89.4683 145.439 89.4469 145.473C89.4254 145.507 89.3973 145.536 89.3643 145.559C89.3312 145.582 89.2939 145.598 89.2546 145.606L89.1842 145.613Z" fill="#0A0A0A"/>
<path d="M87.1169 137.056C85.9585 136.352 83.7057 135.322 83.1809 135.949C82.6561 136.576 81.9841 139.149 84.5953 140.058C86.3354 140.542 88.1918 140.383 89.8241 139.61L87.1169 137.056Z" fill="#F87171"/>
<path d="M67.84 82.24H65.3376C61.9428 82.24 58.6871 80.8914 56.2866 78.491C53.8862 76.0905 52.5376 72.8348 52.5376 69.44C52.5376 65.8161 53.9772 62.3406 56.5397 59.7781C59.1022 57.2156 62.5777 55.776 66.2016 55.776H67.0016C70.6189 55.7828 74.0858 57.2236 76.6424 59.7826C79.199 62.3416 80.6366 65.8099 80.64 69.4272C80.6417 71.1092 80.3118 72.775 79.6693 74.3295C79.0268 75.8839 78.0842 77.2965 76.8955 78.4864C75.7067 79.6764 74.2951 80.6204 72.7413 81.2644C71.1875 81.9085 69.522 82.24 67.84 82.24Z" fill="#0A0A0A"/>
<path d="M54.3104 59.3728C54.7887 59.4686 55.2094 59.7501 55.4805 60.1556C55.7517 60.561 55.851 61.0574 55.7568 61.536L52.1472 60.8C52.2474 60.3253 52.5307 59.9092 52.9356 59.642C53.3406 59.3749 53.8346 59.2781 54.3104 59.3728Z" fill="#0A0A0A"/>
<path d="M56.6657 58.592C56.7406 58.8214 56.7696 59.0634 56.7509 59.304C56.7323 59.5447 56.6664 59.7793 56.557 59.9945C56.4477 60.2096 56.297 60.4011 56.1136 60.558C55.9301 60.7149 55.7176 60.8341 55.4881 60.9088L54.3489 57.408C54.5787 57.3332 54.8211 57.3045 55.062 57.3236C55.303 57.3427 55.5378 57.4091 55.7531 57.5191C55.9683 57.6291 56.1597 57.7805 56.3163 57.9646C56.4729 58.1487 56.5916 58.3619 56.6657 58.592Z" fill="#0A0A0A"/>
<path d="M74.7202 227.2C73.8818 226.56 72.9346 225.958 72.1986 225.28C70.5666 223.789 70.0674 220.013 69.9458 218.739C69.8209 217.655 69.8102 216.561 69.9138 215.475C70.2402 212.915 72.1218 207.29 72.1218 207.29C72.1218 207.29 66.061 203.302 65.9714 203.354C65.8818 203.405 64.877 210.682 63.885 211.872C62.6818 212.928 61.6514 213.222 60.973 214.618C60.3778 216.339 60.621 217.267 61.5362 219.059C62.2127 220.612 62.715 222.234 63.0338 223.898C63.5522 225.997 63.3346 229.434 68.5506 230.483C71.3154 231.04 73.229 230.669 74.5474 230.08C76.0322 229.421 76.0194 228.179 74.7202 227.2Z" fill="#FCA5A5"/>
<path d="M60.973 214.624C60.3778 216.346 60.621 217.274 61.5362 219.066C62.2127 220.618 62.715 222.241 63.0338 223.904C63.5522 226.003 63.3346 229.44 68.5506 230.49C71.3154 231.046 73.229 230.675 74.5474 230.086C76.0322 229.446 76.0194 228.166 74.7202 227.2C74.0802 226.701 73.3378 226.221 72.7042 225.709C73.3954 226.95 70.0738 227.245 68.1602 226.099C66.2466 224.954 63.8594 216.883 63.6226 215.078C63.4791 214.005 63.5686 212.914 63.885 211.878C63.9554 211.782 64.045 211.642 64.045 211.642C64.045 211.642 63.8402 211.558 63.6226 211.725C62.5172 212.462 61.6078 213.457 60.973 214.624Z" fill="#0A0A0A"/>
<path d="M81.1136 122.355C82.048 132.595 84.8768 167.718 84.1152 174.336C83.776 177.338 71.0528 210.746 71.0528 210.746C71.0528 210.746 67.9488 211.699 65.024 208.384C66.5344 194.022 67.9808 178.637 71.1168 173.869C70.5216 168.928 64.3584 144.314 64.3584 144.314L81.1136 122.355Z" fill="#262626"/>
<path d="M58.1567 222.182V221.28C58.5151 222.336 60.1727 226.906 62.6815 229.19C64.6719 231.014 67.3919 233.114 68.0831 235.142C68.7743 237.171 64.3007 237.958 62.4383 237.626C60.2687 237.248 57.4719 236.019 55.9487 234.144C54.8735 232.826 54.1887 231.264 53.4271 230.227C52.6655 229.19 50.8671 228.038 50.4831 226.842C50.2527 226.202 50.5279 224.736 50.8415 223.52C51.1551 222.304 51.4815 221.171 51.8399 221.28V221.965C52.2943 222.477 53.5679 222.982 54.9951 223.034C55.9231 223.072 58.1695 222.886 58.1567 222.182Z" fill="#0A0A0A"/>
<path d="M64.4865 230.79C63.8465 230.24 63.2449 229.702 62.6817 229.184C60.9281 227.59 59.5905 224.877 58.8417 223.027C58.4128 221.97 58.1954 220.84 58.2017 219.699V216.096H51.8401V221.958V222.112C52.1409 223.424 55.0401 226.918 56.6913 229.197C57.7985 230.726 59.8913 232.666 62.4065 233.005C64.8129 233.344 66.0289 232.595 64.4865 230.79Z" fill="#FCA5A5"/>
<path d="M53.1201 123.923C48.2177 134.63 53.2993 172.339 53.2993 172.339C53.1521 174.08 51.1617 177.498 50.4257 185.139C49.5489 194.17 51.7953 216.858 51.7953 216.858C52.7604 217.419 53.8485 217.736 54.9642 217.779C56.08 217.823 57.1894 217.592 58.1953 217.107C58.1953 217.107 64.2241 182.944 65.3569 173.965C66.3425 166.125 69.0561 142.01 69.0561 142.01L81.1521 122.349L53.1201 123.923Z" fill="#262626"/>
<path d="M63.5455 86.592L56.9599 86.9056C56.0575 87.1872 53.6319 89.4656 52.6783 92.9536C51.9954 95.8251 52.1487 98.832 53.1199 101.619L57.4975 114.285C57.4975 114.285 55.4495 119.245 53.0687 123.923C64.0575 130.061 77.7791 126.835 81.0879 122.355C81.2223 121.408 81.0367 117.126 81.2991 112.262C81.5871 107.066 82.2975 101.203 81.4847 97.9968C79.9679 92.0384 77.1263 86.4448 71.4751 86.4448L63.5455 86.592Z" fill="#EC4899"/>
<path d="M76.0064 61.44C77.4912 62.3168 79.328 66.0544 79.1488 73.888C78.9952 80.5248 76.8384 82.1632 75.7632 82.6368C74.688 83.1104 72.5952 82.8224 70.5728 82.4832V86.4704C70.5728 86.4704 73.3696 89.7216 73.1968 91.5456C73.024 93.3696 69.152 93.8048 66.5344 92.0192C64.835 90.8059 63.3765 89.2866 62.2336 87.5392V78.72C61.639 78.932 61.0029 79.0007 60.3768 78.9207C59.7508 78.8406 59.1524 78.614 58.6304 78.2592C56.3776 76.8 56.32 73.0816 57.6 71.7632C58.88 70.4448 61.7024 70.8608 62.2272 72.6848C62.2272 72.6848 65.4592 72.8 69.76 70.4384C71.4357 69.5357 72.8747 68.2504 73.9601 66.6868C75.0455 65.1232 75.7466 63.3256 76.0064 61.44Z" fill="#FCA5A5"/>
<path d="M72.0192 72.32C72.0216 72.4846 71.9754 72.6463 71.8864 72.7849C71.7974 72.9235 71.6696 73.0328 71.5188 73.0992C71.3681 73.1655 71.2012 73.1861 71.0389 73.1581C70.8766 73.1302 70.7261 73.0552 70.6062 72.9423C70.4863 72.8294 70.4023 72.6837 70.3647 72.5233C70.3271 72.363 70.3375 72.1951 70.3947 72.0407C70.4519 71.8862 70.5533 71.7521 70.6863 71.6549C70.8193 71.5578 70.9779 71.5019 71.1424 71.4944C71.2542 71.4909 71.3656 71.5096 71.4702 71.5492C71.5748 71.5889 71.6705 71.6488 71.7519 71.7254C71.8334 71.8021 71.8989 71.8941 71.9448 71.9961C71.9906 72.0981 72.0159 72.2082 72.0192 72.32Z" fill="#0A0A0A"/>
<path d="M71.9552 77.8624L73.8752 78.5024C73.841 78.6347 73.7799 78.7586 73.6959 78.8663C73.6118 78.974 73.5065 79.0634 73.3865 79.1288C73.2665 79.1942 73.1344 79.2342 72.9983 79.2465C72.8622 79.2587 72.725 79.2429 72.5952 79.2C72.3363 79.1032 72.1249 78.9097 72.0056 78.6603C71.8862 78.4108 71.8682 78.1249 71.9552 77.8624Z" fill="#F87171"/>
<path d="M78.5792 69.6704L76.8896 68.48C76.9603 68.3663 77.0534 68.2681 77.1632 68.1916C77.2731 68.115 77.3974 68.0616 77.5285 68.0346C77.6597 68.0077 77.795 68.0077 77.9261 68.0348C78.0572 68.0619 78.1815 68.1154 78.2912 68.192C78.522 68.3527 78.6811 68.5969 78.7349 68.8729C78.7886 69.1488 78.7328 69.4349 78.5792 69.6704Z" fill="#0A0A0A"/>
<path d="M78.3361 72.1792C78.3385 72.3438 78.2923 72.5055 78.2033 72.6441C78.1143 72.7827 77.9865 72.892 77.8357 72.9584C77.685 73.0247 77.5181 73.0453 77.3558 73.0174C77.1935 72.9895 77.043 72.9144 76.9231 72.8015C76.8032 72.6886 76.7192 72.5429 76.6816 72.3825C76.644 72.2222 76.6544 72.0543 76.7116 71.8999C76.7688 71.7455 76.8702 71.6113 77.0032 71.5141C77.1362 71.417 77.2948 71.3611 77.4593 71.3536C77.6847 71.3484 77.903 71.4321 78.067 71.5866C78.2311 71.7411 78.3278 71.9539 78.3361 72.1792Z" fill="#0A0A0A"/>
<path d="M74.2529 71.1488L74.3873 76.1792L77.0305 75.36L74.2529 71.1488Z" fill="#F87171"/>
<path d="M70.5729 82.496C68.4353 82.2208 64.0449 80.9536 63.3601 79.2192C63.6344 80.0984 64.173 80.8716 64.9025 81.4336C66.1825 82.56 70.5729 83.8272 70.5729 83.8272V82.496Z" fill="#F87171"/>
<path d="M69.2417 164.646L67.3601 156.595L69.0177 142.016C69.0177 142.016 74.2337 140.051 76.9985 136.013C75.7669 138.956 73.7111 141.481 71.0785 143.283L68.2369 156.557L69.2417 164.646Z" fill="#0A0A0A"/>
<path d="M64.2241 148.973L41.3441 135.763L36.7681 174.291L59.6481 187.501L64.2241 148.973Z" fill="#EC4899"/>
<path opacity="0.5" d="M64.2241 148.973L41.3441 135.763L36.7681 174.291L59.6481 187.501L64.2241 148.973Z" fill="#FAFAFA"/>
<path d="M71.085 180.896L64.2242 179.571L59.6482 187.501L71.085 180.896Z" fill="#EC4899"/>
<path opacity="0.3" d="M71.085 180.896L64.2242 179.571L59.6482 187.501L71.085 180.896Z" fill="#0A0A0A"/>
<path d="M64.2242 179.571L66.509 145.011L64.2242 148.973L59.6482 187.501L64.2242 179.571Z" fill="#EC4899"/>
<path opacity="0.1" d="M64.2242 179.571L66.509 145.011L64.2242 148.973L59.6482 187.501L64.2242 179.571Z" fill="#0A0A0A"/>
<path d="M41.344 135.763L48.2048 134.445V131.802L71.0848 145.011H66.5088L64.224 148.973L41.344 135.763Z" fill="#EC4899"/>
<path d="M55.8208 148.595C55.8208 148.934 55.5775 149.069 55.2831 148.902C55.1284 148.8 54.9997 148.663 54.9075 148.501C54.8153 148.34 54.762 148.16 54.752 147.974C54.752 147.635 54.9887 147.494 55.2831 147.667C55.4395 147.769 55.5696 147.906 55.663 148.067C55.7565 148.228 55.8105 148.409 55.8208 148.595Z" fill="#404040"/>
<path d="M49.1137 144.333C49.1137 144.678 48.8769 144.813 48.5761 144.646C48.4213 144.544 48.2927 144.407 48.2005 144.245C48.1082 144.084 48.055 143.904 48.0449 143.718C48.0449 143.379 48.2817 143.238 48.5761 143.411C48.733 143.51 48.8638 143.646 48.9573 143.806C49.0509 143.967 49.1045 144.147 49.1137 144.333Z" fill="#404040"/>
<path d="M62.925 144C62.925 144.339 62.6882 144.48 62.3938 144.307C62.238 144.207 62.1081 144.071 62.0146 143.911C61.9212 143.751 61.8669 143.571 61.8562 143.386C61.8562 143.04 62.0994 142.906 62.3938 143.072C62.5486 143.175 62.6772 143.312 62.7695 143.473C62.8617 143.634 62.915 143.815 62.925 144Z" fill="#404040"/>
<path d="M56.1408 140.211C56.1408 140.55 55.8976 140.691 55.6032 140.518C55.4482 140.418 55.3193 140.282 55.227 140.121C55.1346 139.961 55.0815 139.781 55.072 139.597C55.072 139.258 55.3088 139.117 55.6032 139.29C55.759 139.39 55.889 139.526 55.9824 139.686C56.0758 139.846 56.1301 140.026 56.1408 140.211Z" fill="#404040"/>
<path d="M71.0849 145.011H66.5089L64.2241 179.571L71.0849 180.896V145.011Z" fill="#EC4899"/>
<path d="M48.2048 134.445V139.725L41.344 135.763L48.2048 134.445Z" fill="#EC4899"/>
<path opacity="0.2" d="M71.0849 145.011H66.5089L64.2241 179.571L71.0849 180.896V145.011Z" fill="#0A0A0A"/>
<path opacity="0.2" d="M48.2048 134.445V139.725L41.344 135.763L48.2048 134.445Z" fill="#0A0A0A"/>
<path d="M48.5761 144.23C48.5361 144.239 48.4945 144.239 48.4545 144.23C48.3773 144.195 48.3164 144.132 48.2843 144.054C48.2522 143.975 48.2513 143.887 48.2817 143.808L54.1057 130.029C54.1396 129.951 54.2027 129.889 54.2817 129.856C54.3606 129.824 54.4491 129.824 54.5281 129.856C54.6053 129.891 54.6662 129.954 54.6983 130.033C54.7304 130.111 54.7314 130.199 54.7009 130.278L48.8769 144.058C48.8475 144.111 48.8039 144.156 48.7508 144.186C48.6977 144.217 48.6373 144.232 48.5761 144.23Z" fill="#0A0A0A"/>
<path d="M55.6032 140.16C55.5183 140.16 55.4369 140.126 55.3769 140.066C55.3169 140.006 55.2832 139.925 55.2832 139.84V130.304C55.2832 130.219 55.3169 130.138 55.3769 130.078C55.4369 130.018 55.5183 129.984 55.6032 129.984C55.6881 129.984 55.7695 130.018 55.8295 130.078C55.8895 130.138 55.9232 130.219 55.9232 130.304V139.846C55.9215 139.93 55.8871 140.01 55.8272 140.069C55.7674 140.127 55.687 140.16 55.6032 140.16Z" fill="#0A0A0A"/>
<path d="M44.8001 115.507L53.6769 103.085C55.0906 101.655 56.1551 99.9183 56.7873 98.0096C58.3361 93.1008 58.5793 90.2208 56.9537 86.9056C53.3441 86.9056 51.2321 87.2704 47.1297 94.2144C43.7825 99.8784 38.8097 109.536 37.5937 111.622C36.0769 114.182 35.6353 114.893 36.9537 117.427C38.2721 119.962 43.2385 126.47 47.4177 131.366C51.5969 136.262 54.0417 137.914 57.1649 138.637C60.2881 139.36 61.6833 138.752 63.4433 137.133C65.2033 135.514 63.9617 134.074 62.3233 133.696C60.7692 133.36 59.287 132.751 57.9457 131.898C56.9537 131.181 56.6657 130.618 57.5681 130.579C58.7585 130.528 59.8721 130.291 60.1793 129.459C60.5633 128.416 59.5777 128.698 58.2145 128.275C56.4533 127.74 54.6406 127.393 52.8065 127.238C50.5601 127.36 44.8001 115.507 44.8001 115.507Z" fill="#FCA5A5"/>
<path d="M61.3568 80.544H62.2336V88.864C62.2336 90.4748 61.5937 92.0197 60.4547 93.1587C59.3157 94.2977 57.7708 94.9376 56.16 94.9376H55.2832V86.6176C55.2832 85.0068 55.9231 83.4619 57.0621 82.3229C58.2011 81.1839 59.746 80.544 61.3568 80.544Z" fill="#0A0A0A"/>
<path d="M62.0802 143.603V136.378C62.0802 135.322 61.7666 133.638 60.9026 133.325C60.8619 133.311 60.8244 133.29 60.7922 133.262C60.76 133.234 60.7338 133.199 60.7151 133.161C60.6964 133.122 60.6856 133.081 60.6833 133.038C60.6811 132.995 60.6874 132.952 60.7019 132.912C60.7165 132.872 60.739 132.835 60.768 132.804C60.7971 132.772 60.8322 132.747 60.8712 132.729C60.9101 132.712 60.9523 132.702 60.995 132.701C61.0378 132.7 61.0804 132.708 61.1202 132.723C62.6754 133.293 62.7202 136.064 62.7202 136.378V143.603C62.7202 143.688 62.6865 143.769 62.6264 143.829C62.5664 143.889 62.485 143.923 62.4002 143.923C62.3153 143.923 62.2339 143.889 62.1739 143.829C62.1139 143.769 62.0802 143.688 62.0802 143.603Z" fill="#0A0A0A"/>
<path d="M55.3665 148.563C55.3262 148.569 55.2852 148.569 55.2449 148.563C55.2056 148.547 55.1699 148.523 55.1398 148.493C55.1098 148.463 55.0861 148.428 55.07 148.388C55.0539 148.349 55.0458 148.307 55.0462 148.264C55.0465 148.222 55.0553 148.18 55.0721 148.141C55.0721 148.102 56.6401 144.416 58.4897 139.13C60.2881 134.01 59.6545 132.986 59.2961 132.794C59.2591 132.774 59.2263 132.746 59.1998 132.714C59.1733 132.681 59.1536 132.643 59.1417 132.603C59.1298 132.562 59.126 132.52 59.1305 132.478C59.1351 132.436 59.1478 132.395 59.1681 132.358C59.2099 132.285 59.2786 132.23 59.3598 132.207C59.441 132.183 59.5283 132.191 59.6033 132.23C60.7361 132.87 60.5761 135.104 59.0977 139.341C57.2417 144.64 55.6801 148.333 55.6801 148.371C55.6547 148.432 55.6107 148.484 55.5544 148.518C55.4981 148.553 55.4323 148.568 55.3665 148.563Z" fill="#0A0A0A"/>
</svg>
