<svg width="256" height="256" viewBox="0 0 256 256" fill="none" xmlns="http://www.w3.org/2000/svg">
<path d="M45.5937 223.795C90.2709 247.347 162.709 247.347 207.386 223.795C252.063 200.243 252.063 162.038 207.386 138.481C162.709 114.923 90.2709 114.929 45.5937 138.481C0.916624 162.033 0.911507 200.238 45.5937 223.795Z" fill="#F5F5F5"/>
<path d="M83.7173 182.938L85.0587 181.34L44.4213 157.875L41.6667 159.462L56.1 167.798L42.2402 175.8L27.684 167.393L24.9346 168.986L66.5295 192.998L66.9647 192.476L67.1848 192.599L83.1387 183.409L83.2667 183.48L83.4971 183.199L83.8402 183.004L83.7173 182.938Z" fill="#D4D4D4"/>
<path d="M182.994 206.351C195.498 206.351 205.635 201.521 205.635 195.563C205.635 189.606 195.498 184.776 182.994 184.776C170.49 184.776 160.354 189.606 160.354 195.563C160.354 201.521 170.49 206.351 182.994 206.351Z" fill="#D4D4D4"/>
<path d="M114.601 228.588C127.105 228.588 137.242 223.758 137.242 217.8C137.242 211.842 127.105 207.012 114.601 207.012C102.097 207.012 91.9604 211.842 91.9604 217.8C91.9604 223.758 102.097 228.588 114.601 228.588Z" fill="#D4D4D4"/>
<path d="M201.047 209.039C205.44 211.599 212.562 211.599 216.955 209.039C221.348 206.479 221.348 202.383 216.955 199.854C212.562 197.325 205.44 197.32 201.047 199.854C196.654 202.388 196.654 206.505 201.047 209.039Z" fill="#D4D4D4"/>
<path d="M45.9981 213.632C52.2106 213.632 57.2468 210.725 57.2468 207.14C57.2468 203.554 52.2106 200.648 45.9981 200.648C39.7857 200.648 34.7495 203.554 34.7495 207.14C34.7495 210.725 39.7857 213.632 45.9981 213.632Z" fill="#D4D4D4"/>
<path d="M67.0722 97.0138L44.278 159.104C44.2029 159.292 44.0606 159.445 43.8786 159.534C43.5567 159.698 43.2005 159.784 42.8392 159.784C42.4779 159.784 42.1218 159.698 41.7999 159.534C41.6958 159.485 41.6038 159.414 41.5303 159.325C41.4569 159.237 41.4038 159.133 41.3749 159.022C41.3646 158.966 41.3646 158.909 41.3749 158.853C41.3803 158.708 41.4079 158.565 41.4568 158.428L64.3279 96C64.3919 95.8142 64.4923 95.6431 64.6234 95.4967C64.7545 95.3503 64.9134 95.2315 65.091 95.1475C65.2686 95.0634 65.4613 95.0156 65.6576 95.007C65.8539 94.9984 66.0499 95.0292 66.2342 95.0974C66.4185 95.1657 66.5872 95.27 66.7306 95.4044C66.8739 95.5388 66.989 95.7005 67.069 95.88C67.1489 96.0595 67.1922 96.2532 67.1963 96.4496C67.2004 96.6461 67.1651 96.8414 67.0927 97.024L67.0722 97.0138Z" fill="#262626"/>
<path d="M36.5977 139.735L59.4738 152.945" stroke="#262626" stroke-width="3.072" stroke-miterlimit="10"/>
<path d="M53.2324 130.13L76.1137 143.339" stroke="#262626" stroke-width="3.072" stroke-miterlimit="10"/>
<path d="M48.4761 92.7489L60.677 85.7037C61.1267 85.4124 61.6419 85.2379 62.1761 85.196C62.7102 85.1541 63.2464 85.2461 63.736 85.4637C64.2256 85.6813 64.6531 86.0176 64.98 86.4422C65.3068 86.8667 65.5225 87.3661 65.6076 87.8951L85.8623 182.656C85.8784 182.72 85.887 182.785 85.8879 182.851C85.8956 182.919 85.8956 182.987 85.8879 183.055C85.8587 183.167 85.8055 183.27 85.7321 183.358C85.6587 183.447 85.5668 183.518 85.463 183.567C85.1411 183.732 84.7849 183.817 84.4236 183.817C84.0623 183.817 83.7061 183.732 83.3842 183.567C83.2022 183.472 83.0591 183.317 82.9798 183.127C82.9779 183.098 82.9779 183.069 82.9798 183.04L62.7302 88.5095C62.7162 88.3699 62.6482 88.2413 62.5407 88.1511C62.4723 88.141 62.4026 88.1449 62.3357 88.1625C62.2688 88.1801 62.2062 88.211 62.1516 88.2535L49.9455 95.2986" fill="#404040"/>
<path d="M68.3877 183.296L60.9586 179.005C60.829 178.922 60.7211 178.808 60.6437 178.675C60.5663 178.541 60.5216 178.392 60.5132 178.237V178.063C60.5207 177.909 60.5651 177.759 60.6426 177.625C60.7201 177.492 60.8285 177.379 60.9586 177.295L78.7865 166.999C78.9244 166.929 79.077 166.892 79.2319 166.892C79.3868 166.892 79.5395 166.929 79.6773 166.999L87.1065 171.29C87.2358 171.374 87.3434 171.487 87.4208 171.62C87.4982 171.754 87.5431 171.904 87.5519 172.058V172.237C87.5431 172.391 87.4982 172.541 87.4208 172.674C87.3434 172.807 87.2358 172.921 87.1065 173.005L69.2786 183.296C69.1407 183.367 68.9881 183.403 68.8332 183.403C68.6783 183.403 68.5256 183.367 68.3877 183.296Z" fill="#EC4899"/>
<path opacity="0.1" d="M60.6463 177.633C60.5644 177.766 60.5185 177.918 60.5132 178.074V178.248C60.5216 178.402 60.5663 178.552 60.6437 178.685C60.7211 178.819 60.829 178.932 60.9586 179.016L68.3877 183.296C68.5246 183.369 68.678 183.406 68.8332 183.404V182.354L60.6463 177.633Z" fill="#0A0A0A"/>
<path opacity="0.15" d="M68.833 182.364V183.414C68.9882 183.416 69.1415 183.379 69.2784 183.306L78.1924 178.186L87.1063 173.041C87.2356 172.957 87.3433 172.843 87.4206 172.71C87.498 172.576 87.5429 172.427 87.5517 172.273V172.093C87.5463 171.939 87.5003 171.789 87.4186 171.658L68.833 182.364Z" fill="#0A0A0A"/>
<path d="M65.1675 168.238L57.7333 163.948C57.6055 163.862 57.4992 163.749 57.4228 163.615C57.3464 163.482 57.302 163.333 57.293 163.18V163C57.302 162.847 57.3464 162.698 57.4228 162.565C57.4992 162.431 57.6055 162.318 57.7333 162.232L75.5662 151.941C75.7032 151.871 75.8551 151.834 76.0091 151.834C76.1632 151.834 76.315 151.871 76.452 151.941L83.8862 156.232C84.0149 156.316 84.1218 156.43 84.1983 156.563C84.2748 156.696 84.3187 156.846 84.3266 157V157.184C84.32 157.338 84.2766 157.488 84.1999 157.622C84.1233 157.755 84.0157 157.869 83.8862 157.952L66.0482 168.238C65.9118 168.308 65.7609 168.344 65.6078 168.344C65.4548 168.344 65.3039 168.308 65.1675 168.238Z" fill="#EC4899"/>
<path opacity="0.1" d="M57.421 162.565C57.3412 162.697 57.2971 162.847 57.293 163V163.18C57.302 163.333 57.3464 163.482 57.4228 163.615C57.4992 163.749 57.6055 163.862 57.7333 163.948L65.1675 168.238C65.3042 168.312 65.4577 168.349 65.613 168.346V167.296L57.421 162.565Z" fill="#0A0A0A"/>
<path opacity="0.15" d="M65.6128 167.296V168.346C65.7664 168.348 65.9181 168.311 66.0531 168.238L74.9722 163.118L83.8861 157.967C84.0156 157.884 84.1232 157.771 84.1998 157.637C84.2764 157.503 84.3198 157.353 84.3264 157.199V157.025C84.3229 156.871 84.2788 156.721 84.1984 156.59L65.6128 167.296Z" fill="#0A0A0A"/>
<path d="M61.9519 153.17L54.5177 148.879C54.3884 148.795 54.2807 148.682 54.2033 148.549C54.126 148.415 54.0811 148.265 54.0723 148.111V147.932C54.0811 147.778 54.126 147.629 54.2033 147.495C54.2807 147.362 54.3884 147.248 54.5177 147.164L72.3507 136.873C72.4876 136.803 72.6395 136.766 72.7935 136.766C72.9476 136.766 73.0994 136.803 73.2364 136.873L80.6655 141.164C80.7951 141.247 80.903 141.361 80.9804 141.494C81.0579 141.628 81.1026 141.778 81.111 141.932V142.106C81.1034 142.26 81.059 142.41 80.9815 142.544C80.904 142.677 80.7957 142.79 80.6655 142.874L62.8377 153.17C62.7007 153.241 62.5489 153.277 62.3948 153.277C62.2408 153.277 62.0889 153.241 61.9519 153.17Z" fill="#EC4899"/>
<path opacity="0.1" d="M54.2005 147.497C54.1194 147.628 54.0736 147.778 54.0674 147.932V148.111C54.0762 148.265 54.1211 148.415 54.1985 148.549C54.2758 148.682 54.3835 148.795 54.5128 148.879L58.2299 151.025L61.9471 153.17C62.0819 153.244 62.2337 153.281 62.3874 153.277V152.223L54.2005 147.497Z" fill="#0A0A0A"/>
<path opacity="0.15" d="M62.3872 152.223V153.277C62.5425 153.281 62.696 153.244 62.8326 153.17L71.7466 148.024L80.6605 142.874C80.7906 142.79 80.899 142.677 80.9765 142.544C81.054 142.41 81.0984 142.26 81.1059 142.106V141.932C81.0994 141.777 81.0554 141.626 80.9779 141.491L62.3872 152.223Z" fill="#0A0A0A"/>
<path d="M58.7212 138.102L51.2921 133.811C51.1628 133.727 51.0551 133.614 50.9778 133.48C50.9004 133.347 50.8555 133.197 50.8467 133.043V132.864C50.8555 132.71 50.9004 132.56 50.9778 132.427C51.0551 132.293 51.1628 132.18 51.2921 132.096L69.12 121.805C69.2569 121.734 69.4088 121.698 69.5628 121.698C69.7169 121.698 69.8687 121.734 70.0057 121.805L77.44 126.095C77.5701 126.179 77.6785 126.292 77.756 126.425C77.8334 126.559 77.8778 126.709 77.8854 126.863V127.037C77.877 127.192 77.8323 127.341 77.7549 127.475C77.6774 127.608 77.5695 127.722 77.44 127.805L59.607 138.102C59.4697 138.171 59.318 138.207 59.1641 138.207C59.0103 138.207 58.8586 138.171 58.7212 138.102Z" fill="#EC4899"/>
<path opacity="0.15" d="M59.167 137.155V138.209C59.3206 138.212 59.4723 138.175 59.6073 138.102L68.5264 132.956L77.4403 127.805C77.5698 127.722 77.6778 127.608 77.7552 127.475C77.8326 127.341 77.8773 127.192 77.8857 127.037V126.863C77.8804 126.708 77.8345 126.556 77.7526 126.423L59.167 137.155Z" fill="#0A0A0A"/>
<path opacity="0.1" d="M50.9747 132.429C50.8972 132.561 50.8533 132.711 50.8467 132.864V133.043C50.8555 133.197 50.9004 133.347 50.9778 133.48C51.0551 133.614 51.1628 133.727 51.2921 133.811L58.7212 138.102C58.8579 138.176 59.0114 138.213 59.1667 138.209V137.155L50.9747 132.429Z" fill="#0A0A0A"/>
<path d="M55.5009 123.034L43.1464 115.901C43.0177 115.817 42.9108 115.704 42.8343 115.57C42.7578 115.437 42.7139 115.287 42.7061 115.133V114.959C42.7143 114.806 42.7584 114.656 42.8349 114.523C42.9113 114.39 43.018 114.276 43.1464 114.191L60.9793 103.895C61.1163 103.825 61.2681 103.788 61.4222 103.788C61.5763 103.788 61.7281 103.825 61.8651 103.895L74.2401 111.027C74.3688 111.112 74.4757 111.225 74.5522 111.359C74.6287 111.492 74.6726 111.642 74.6805 111.795V111.969C74.6714 112.123 74.627 112.272 74.5506 112.405C74.4742 112.538 74.3679 112.652 74.2401 112.737L56.3867 123.034C56.2485 123.1 56.0971 123.134 55.9438 123.134C55.7905 123.134 55.6392 123.1 55.5009 123.034Z" fill="#EC4899"/>
<path opacity="0.15" d="M55.9409 122.086V123.136C56.0958 123.141 56.2492 123.106 56.3864 123.034L65.3003 117.883L74.2398 112.737C74.3676 112.652 74.4738 112.538 74.5503 112.405C74.6267 112.272 74.6711 112.123 74.6801 111.969V111.79C74.676 111.636 74.6318 111.486 74.5521 111.355L55.9409 122.086Z" fill="#0A0A0A"/>
<path opacity="0.1" d="M42.8341 114.519C42.7565 114.653 42.7126 114.804 42.7061 114.959V115.133C42.7139 115.287 42.7578 115.437 42.8343 115.57C42.9108 115.704 43.0177 115.817 43.1464 115.901L55.5009 123.034C55.6364 123.105 55.7881 123.141 55.9413 123.136V122.086L42.8341 114.519Z" fill="#0A0A0A"/>
<path d="M50.4574 106.619L27.6478 168.637L27.5966 168.776C27.5089 168.927 27.3814 169.051 27.228 169.134C26.9045 169.296 26.5477 169.38 26.1861 169.38C25.8244 169.38 25.4676 169.296 25.1441 169.134C25.041 169.084 24.9498 169.012 24.8766 168.924C24.8033 168.836 24.7497 168.733 24.7192 168.622C24.7141 168.566 24.7141 168.509 24.7192 168.453C24.7254 168.306 24.7547 168.161 24.8062 168.023L47.6926 105.605C47.7566 105.419 47.8571 105.248 47.9881 105.102C48.1192 104.955 48.2782 104.837 48.4558 104.753C48.6334 104.668 48.826 104.621 49.0223 104.612C49.2186 104.604 49.4147 104.634 49.5989 104.703C49.7832 104.771 49.952 104.875 50.0953 105.01C50.2387 105.144 50.3537 105.306 50.4337 105.485C50.5137 105.665 50.557 105.858 50.5611 106.055C50.5651 106.251 50.5299 106.446 50.4574 106.629V106.619Z" fill="#262626"/>
<path d="M49.9454 95.2985C49.5934 95.5379 49.3153 95.8709 49.1425 96.2599C48.9697 96.6489 48.9091 97.0785 48.9675 97.5001L69.2273 192.256C69.2476 192.331 69.2579 192.409 69.258 192.486C69.2632 192.541 69.2632 192.596 69.258 192.65C69.2282 192.761 69.1748 192.864 69.1014 192.953C69.0281 193.041 68.9366 193.112 68.8331 193.162C68.5112 193.326 68.155 193.412 67.7937 193.412C67.4324 193.412 67.0763 193.326 66.7544 193.162C66.5761 193.069 66.4339 192.92 66.3499 192.737L66.3243 192.614L46.0798 98.1197C45.8969 97.0886 46.0263 96.0264 46.4514 95.0693C46.8765 94.1123 47.578 93.3042 48.4657 92.7488" fill="#404040"/>
<path d="M55.5983 191.007L36.8079 190.751L36.644 206.111C36.644 207.503 37.5349 208.901 39.3576 209.981C43.0031 212.137 48.9525 212.204 52.644 210.125C54.5077 209.075 55.4396 207.683 55.4396 206.28L55.5983 191.007Z" fill="#262626"/>
<path d="M39.603 186.947C35.9115 189.025 35.8757 192.461 39.5211 194.627C43.1666 196.792 49.116 196.849 52.8331 194.77C56.5502 192.691 56.5605 189.256 52.915 187.09C49.2696 184.924 43.2946 184.868 39.603 186.947Z" fill="#404040"/>
<path d="M54.7841 190.945C54.7802 191.195 54.7352 191.442 54.651 191.677C54.3643 192.558 53.5963 193.377 52.3982 194.053C50.4651 195.044 48.3126 195.528 46.1415 195.461C43.9728 195.486 41.8335 194.957 39.9259 193.925C38.9372 193.425 38.164 192.582 37.7499 191.555C37.6602 191.301 37.6151 191.035 37.6167 190.766C37.6167 189.619 38.4769 188.513 39.9975 187.669C41.9226 186.666 44.0747 186.179 46.2439 186.255C48.4168 186.223 50.5612 186.752 52.4699 187.791C53.9854 188.682 54.7841 189.798 54.7841 190.945Z" fill="#0A0A0A"/>
<path d="M54.6609 191.677C54.3742 192.558 53.6062 193.377 52.4081 194.053C50.475 195.044 48.3225 195.528 46.1514 195.461C43.9827 195.486 41.8434 194.957 39.9358 193.925C38.9471 193.425 38.1739 192.582 37.7598 191.555C38.1859 190.512 38.9881 189.668 40.0074 189.189C41.9338 188.189 44.0846 187.701 46.2538 187.771C48.4262 187.744 50.5693 188.273 52.4798 189.307C53.4683 189.809 54.2427 190.651 54.6609 191.677Z" fill="#EC4899"/>
<path d="M50.2121 196.756C50.6217 196.521 50.9545 196.721 50.9494 197.192C50.9302 197.45 50.8501 197.7 50.7158 197.922C50.5814 198.143 50.3965 198.33 50.1763 198.467C49.7616 198.702 49.4339 198.502 49.439 198.031C49.4575 197.773 49.5372 197.522 49.6716 197.301C49.8061 197.079 49.9913 196.892 50.2121 196.756Z" fill="#0A0A0A"/>
<path d="M36.777 193.449C35.753 195.497 33.705 200.33 36.3571 202.301C36.4698 202.383 36.5722 202.455 36.6848 202.527V203.51C36.4186 203.346 36.1421 203.162 35.8758 202.967C31.8874 200.013 36.3878 192.425 36.5824 192.108C36.632 192.022 36.7128 191.96 36.8077 191.933L36.777 193.449Z" fill="#D4D4D4"/>
<path d="M50.5602 197.806C50.4476 198.042 47.5446 203.592 42.7676 204.708C42.2295 204.838 41.6777 204.903 41.1241 204.902C39.5384 204.873 37.9944 204.39 36.6748 203.51V202.527C38.646 203.899 40.6326 204.37 42.573 203.919C46.9814 202.895 49.8025 197.478 49.823 197.427C49.8478 197.379 49.8818 197.337 49.9231 197.302C49.9643 197.268 50.012 197.242 50.0634 197.226C50.1147 197.209 50.1688 197.204 50.2224 197.208C50.276 197.213 50.3282 197.228 50.3759 197.253C50.4256 197.276 50.47 197.309 50.5064 197.349C50.5429 197.39 50.5706 197.438 50.5879 197.49C50.6052 197.542 50.6117 197.596 50.6069 197.651C50.6021 197.705 50.5863 197.758 50.5602 197.806Z" fill="#D4D4D4"/>
<path d="M89.5642 143.898L87.6186 142.776C87.2968 142.565 87.0291 142.282 86.837 141.948C86.6449 141.615 86.5338 141.241 86.5127 140.856V52.1626C86.533 51.7781 86.6438 51.4039 86.8359 51.0702C87.0281 50.7366 87.2963 50.453 87.6186 50.2426L151.957 13.097C152.3 12.9229 152.68 12.8322 153.065 12.8322C153.45 12.8322 153.83 12.9229 154.173 13.097L156.114 14.2182C156.437 14.4282 156.706 14.7115 156.9 15.0451C157.093 15.3788 157.204 15.7533 157.225 16.1382V104.837C157.204 105.222 157.093 105.597 156.9 105.93C156.706 106.264 156.437 106.547 156.114 106.757L91.7812 143.898C91.4376 144.072 91.0579 144.162 90.6727 144.162C90.2875 144.162 89.9078 144.072 89.5642 143.898Z" fill="#EC4899"/>
<path opacity="0.4" d="M157.21 15.9539C157.133 15.3805 156.667 15.1705 156.114 15.4931L91.7762 52.6387C91.45 52.8455 91.1807 53.1306 90.9929 53.4682L86.8354 51.0669C87.0216 50.7282 87.2913 50.4427 87.6188 50.2374L151.952 13.0918C152.295 12.9177 152.675 12.827 153.06 12.827C153.445 12.827 153.825 12.9177 154.169 13.0918L156.114 14.2131C156.411 14.4081 156.662 14.6644 156.851 14.9647C157.04 15.265 157.162 15.6023 157.21 15.9539Z" fill="#FAFAFA"/>
<path opacity="0.1" d="M91.5198 144.01C91.2028 144.127 90.865 144.178 90.5276 144.158C90.1902 144.139 89.8604 144.05 89.5588 143.898L87.6184 142.776C87.295 142.566 87.0259 142.283 86.8328 141.949C86.6397 141.616 86.5282 141.241 86.5073 140.856V52.1575C86.5225 51.7721 86.6352 51.3968 86.835 51.0669L90.9924 53.4682C90.7941 53.7984 90.683 54.1737 90.6699 54.5587V143.258C90.6699 143.872 91.0334 144.159 91.5198 144.01Z" fill="#0A0A0A"/>
<path d="M162.248 85.7703C162.166 85.7329 162.075 85.7179 161.985 85.7269C161.895 85.7359 161.809 85.7685 161.736 85.8215L159.125 87.5521C158.957 87.6554 158.756 87.6886 158.564 87.6446C158.373 87.6005 158.206 87.4826 158.101 87.3165C157.944 87.0989 157.773 86.892 157.589 86.697C157.436 86.5362 157.327 86.3383 157.274 86.1227C157.221 85.9072 157.226 85.6816 157.287 85.4682L161.383 82.857L158.311 81.0855C158.248 81.0499 158.181 81.0224 158.111 81.0036L156.155 80.5684C155.94 80.5303 155.719 80.559 155.522 80.6505C155.324 80.7421 155.159 80.8921 155.049 81.0804L153.216 84.5773C152.964 84.9855 152.567 85.2836 152.105 85.4119L151.992 85.4477C152.071 85.1818 152.126 84.9094 152.156 84.6337L149.084 82.8519C148.987 82.8003 148.876 82.7813 148.767 82.7979C148.658 82.8145 148.558 82.8658 148.48 82.9441L145.557 85.2429C145.38 85.3975 145.239 85.5881 145.143 85.8019C145.047 86.0156 144.998 86.2475 144.999 86.482L145.173 89.2673C145.172 89.7538 145.012 90.2268 144.717 90.6138C144.241 91.1873 143.785 91.7863 143.36 92.4109C143.22 92.5944 143.041 92.744 142.835 92.8485C142.63 92.9531 142.403 93.0101 142.172 93.0151L140.288 92.9229C140.065 92.9235 139.846 92.9854 139.655 93.1018C139.465 93.2183 139.31 93.3849 139.208 93.5834L137.441 97.5463C137.365 97.7143 137.354 97.9045 137.41 98.0803C137.466 98.2561 137.585 98.4051 137.744 98.4986L139.827 99.7018C139.896 99.8723 139.912 100.06 139.873 100.239C139.732 100.865 139.625 101.497 139.551 102.134C139.474 102.617 139.253 103.065 138.916 103.419L136.325 105.8C136.163 105.967 136.039 106.168 135.964 106.388C135.889 106.609 135.864 106.843 135.89 107.075L136.376 109.901C136.384 109.979 136.409 110.054 136.45 110.12C136.491 110.187 136.546 110.243 136.612 110.285L139.684 112.067L139.725 108.529C139.892 108.425 140.094 108.392 140.285 108.436C140.477 108.48 140.644 108.598 140.749 108.764C140.904 108.983 141.075 109.19 141.261 109.384C141.413 109.545 141.522 109.743 141.576 109.958C141.63 110.173 141.627 110.399 141.568 110.613L140.288 114.176C140.23 114.317 140.224 114.474 140.271 114.62C140.318 114.765 140.414 114.889 140.544 114.97L143.616 116.751L144.456 114.447L145.649 111.488C145.899 111.08 146.294 110.782 146.755 110.653C147.164 110.546 147.566 110.413 147.958 110.254C148.045 110.213 148.141 110.192 148.237 110.192C148.334 110.192 148.429 110.213 148.517 110.253C148.605 110.294 148.683 110.353 148.745 110.426C148.808 110.5 148.854 110.586 148.88 110.679L149.54 112.865C149.578 113.007 149.667 113.13 149.791 113.208L152.888 114.99L152.346 111.57L153.293 110.822C153.469 110.668 153.61 110.477 153.705 110.263C153.801 110.05 153.849 109.818 153.846 109.583L153.672 106.798C153.671 106.311 153.832 105.838 154.128 105.452C154.609 104.878 155.331 104.571 155.756 103.951C155.996 103.598 156.268 103.03 156.677 103.05L158.556 103.142C158.78 103.142 158.999 103.081 159.189 102.964C159.38 102.848 159.535 102.681 159.637 102.482L161.408 98.514C161.449 98.4227 161.471 98.3242 161.473 98.2243C161.475 98.1244 161.457 98.0251 161.42 97.9321C161.384 97.8392 161.329 97.7545 161.259 97.683C161.189 97.6115 161.106 97.5546 161.014 97.5156L159.478 96.8653C159.292 96.7746 159.141 96.6251 159.049 96.44C158.956 96.255 158.927 96.0446 158.966 95.8413C159.109 95.2161 159.218 94.5838 159.294 93.9469C159.366 93.4638 159.586 93.0149 159.923 92.6618L162.519 90.281C162.754 90.0402 162.903 89.7291 162.944 89.3953L165.299 87.5623L162.248 85.7703ZM150.472 104.054C147.297 106.542 144.266 105.866 143.693 102.518C143.12 99.1693 145.71 94.9556 148.88 92.4621C152.049 89.9687 154.599 90.1581 155.172 93.4861C155.745 96.8141 153.651 101.56 150.482 104.054H150.472Z" fill="#0A0A0A"/>
<path d="M138.905 103.424L136.345 105.779C136.145 105.982 136.008 106.238 135.951 106.516L139.755 108.718V108.513C139.923 108.41 140.124 108.377 140.316 108.421C140.507 108.465 140.674 108.583 140.779 108.749L144.45 106.629L138.905 103.424Z" fill="#404040"/>
<path d="M145.439 96.2868C145.73 95.837 146.044 95.4029 146.381 94.9863L142.725 92.8768C142.563 92.9472 142.39 92.9854 142.213 92.9895L140.329 92.8973C140.044 92.8925 139.767 92.9927 139.551 93.1789L145.183 96.425L145.439 96.2868Z" fill="#404040"/>
<path d="M165.319 87.5521C165.236 87.5161 165.145 87.5028 165.055 87.5136C164.965 87.5244 164.88 87.5589 164.807 87.6135L162.217 89.3184C162.049 89.4205 161.848 89.453 161.657 89.409C161.466 89.365 161.299 89.248 161.193 89.0829C161.039 88.8631 160.868 88.6559 160.681 88.4634C160.527 88.3018 160.419 88.103 160.366 87.8866C160.313 87.6702 160.317 87.4437 160.379 87.2295L160.624 86.569L161.735 85.8368C161.811 85.7791 161.902 85.7437 161.997 85.7346C162.092 85.7256 162.188 85.7432 162.273 85.7857L165.319 87.5521Z" fill="#404040"/>
<path d="M157.665 86.784C157.635 86.7533 157.609 86.7123 157.578 86.6765C157.425 86.5157 157.317 86.3177 157.264 86.1022C157.211 85.8867 157.215 85.6611 157.276 85.4477L161.372 82.8365L158.3 81.065C158.238 81.0294 158.17 81.0019 158.101 80.9831L156.145 80.5479C155.93 80.5098 155.709 80.5385 155.511 80.63C155.314 80.7216 155.149 80.8716 155.039 81.0599L153.206 84.5568C153.099 84.7407 152.957 84.901 152.786 85.0279L156.933 87.424L157.665 86.784Z" fill="#404040"/>
<path d="M145.096 85.9852L148.9 88.1817L152.033 85.3145C152.092 85.0839 152.135 84.8495 152.161 84.6131L149.089 82.8313C148.989 82.7809 148.876 82.7647 148.766 82.785C148.656 82.8054 148.555 82.8612 148.48 82.944L145.557 85.2428C145.334 85.4405 145.174 85.6984 145.096 85.9852Z" fill="#404040"/>
<path d="M166.052 90.7674L165.565 87.9412C165.563 87.8527 165.536 87.7667 165.486 87.6932C165.437 87.6198 165.367 87.5619 165.286 87.5265C165.205 87.491 165.116 87.4794 165.028 87.493C164.941 87.5066 164.859 87.5448 164.792 87.6033L162.202 89.3082C162.034 89.4116 161.833 89.4448 161.641 89.4007C161.45 89.3566 161.283 89.2388 161.178 89.0727C161.024 88.8544 160.853 88.6489 160.666 88.4583C160.513 88.2961 160.405 88.0975 160.351 87.8814C160.297 87.6654 160.3 87.4391 160.358 87.2244L161.679 83.6404C161.716 83.5507 161.732 83.4541 161.727 83.3574C161.722 83.2607 161.695 83.1664 161.649 83.0812C161.603 82.996 161.539 82.9221 161.461 82.8648C161.383 82.8074 161.293 82.768 161.198 82.7495L159.247 82.3143C159.033 82.2755 158.811 82.3038 158.613 82.3954C158.415 82.4871 158.251 82.6375 158.141 82.8263L156.303 86.3233C156.053 86.7311 155.658 87.0292 155.197 87.1578C154.788 87.2654 154.386 87.3988 153.994 87.5572C153.907 87.5988 153.811 87.6206 153.714 87.6212C153.618 87.6218 153.522 87.6011 153.434 87.5605C153.346 87.52 153.268 87.4606 153.206 87.3866C153.143 87.3126 153.098 87.2257 153.073 87.1322L152.412 84.946C152.39 84.8617 152.348 84.7843 152.288 84.7211C152.228 84.6579 152.153 84.6111 152.07 84.5849C151.987 84.5588 151.899 84.5543 151.813 84.5717C151.728 84.5892 151.649 84.6281 151.583 84.6848L148.659 86.9837C148.483 87.1381 148.342 87.3288 148.247 87.5427C148.152 87.7566 148.104 87.9886 148.106 88.2228L148.28 91.008C148.28 91.4946 148.12 91.9676 147.825 92.3546C147.343 92.928 146.893 93.5271 146.463 94.1517C146.324 94.3369 146.145 94.4877 145.939 94.5924C145.733 94.6972 145.506 94.7531 145.275 94.7559L143.396 94.6637C143.175 94.6684 142.959 94.7333 142.773 94.8515C142.586 94.9697 142.435 95.1367 142.336 95.3344L140.539 99.328C140.494 99.4207 140.469 99.5214 140.465 99.6242C140.461 99.7269 140.477 99.8294 140.514 99.9253C140.551 100.021 140.608 100.109 140.68 100.182C140.752 100.255 140.838 100.313 140.933 100.352L142.469 101.002C142.655 101.093 142.806 101.243 142.898 101.428C142.991 101.613 143.02 101.823 142.981 102.026C142.838 102.652 142.729 103.284 142.653 103.921C142.582 104.404 142.362 104.853 142.024 105.206L139.428 107.587C139.265 107.754 139.142 107.955 139.067 108.175C138.991 108.396 138.966 108.63 138.993 108.861L139.505 111.693C139.508 111.781 139.536 111.866 139.586 111.939C139.636 112.012 139.705 112.069 139.786 112.104C139.867 112.138 139.956 112.15 140.043 112.136C140.13 112.122 140.212 112.084 140.278 112.026L142.868 110.321C143.036 110.219 143.237 110.186 143.428 110.23C143.62 110.274 143.786 110.391 143.892 110.556C144.049 110.774 144.22 110.981 144.404 111.176C144.558 111.337 144.666 111.536 144.719 111.753C144.772 111.969 144.768 112.195 144.707 112.41L143.386 115.994C143.349 116.083 143.333 116.18 143.338 116.277C143.343 116.373 143.37 116.468 143.416 116.553C143.462 116.638 143.526 116.712 143.604 116.769C143.682 116.827 143.772 116.866 143.867 116.885L145.823 117.32C146.037 117.358 146.258 117.329 146.456 117.238C146.654 117.146 146.819 116.996 146.929 116.808L148.762 113.311C149.015 112.904 149.411 112.606 149.873 112.476C150.282 112.371 150.684 112.237 151.076 112.077C151.163 112.036 151.259 112.015 151.355 112.015C151.452 112.015 151.547 112.036 151.635 112.076C151.723 112.116 151.8 112.176 151.863 112.249C151.926 112.323 151.971 112.409 151.997 112.502L152.658 114.688C152.68 114.771 152.723 114.848 152.782 114.91C152.842 114.973 152.916 115.019 152.998 115.045C153.08 115.071 153.168 115.076 153.253 115.059C153.337 115.043 153.416 115.005 153.482 114.949L156.406 112.65C156.582 112.495 156.723 112.305 156.819 112.091C156.915 111.877 156.965 111.646 156.964 111.411L156.79 108.626C156.788 108.139 156.948 107.665 157.245 107.279C157.722 106.706 158.177 106.107 158.602 105.482C158.742 105.299 158.922 105.149 159.127 105.045C159.333 104.94 159.559 104.883 159.79 104.878L161.674 104.97C161.898 104.97 162.116 104.908 162.307 104.791C162.497 104.675 162.652 104.508 162.755 104.31L164.521 100.347C164.566 100.254 164.591 100.154 164.595 100.051C164.599 99.9481 164.582 99.8456 164.545 99.7496C164.508 99.6537 164.452 99.5663 164.38 99.4929C164.308 99.4195 164.222 99.3617 164.127 99.3229L162.591 98.6727C162.404 98.5833 162.252 98.4341 162.159 98.2486C162.066 98.0631 162.038 97.852 162.079 97.6487C162.22 97.0234 162.327 96.391 162.401 95.7543C162.477 95.2726 162.698 94.8257 163.036 94.4743L165.627 92.0884C165.794 91.9154 165.919 91.7063 165.993 91.4773C166.067 91.2483 166.087 91.0054 166.052 90.7674ZM153.559 105.83C150.39 108.324 147.354 107.643 146.78 104.294C146.207 100.946 148.316 96.2407 151.48 93.7473C154.644 91.2538 157.686 91.9348 158.259 95.2833C158.833 98.6317 156.728 103.337 153.559 105.83Z" fill="#262626"/>
<path d="M147.609 58.4038L144.578 56.6579C144.506 56.6202 144.425 56.6005 144.343 56.6005C144.261 56.6005 144.18 56.6202 144.107 56.6579L138.629 59.1257C138.542 59.1674 138.447 59.1892 138.35 59.1898C138.254 59.1903 138.158 59.1696 138.071 59.129C137.983 59.0884 137.906 59.029 137.844 58.9549C137.782 58.8809 137.737 58.7941 137.712 58.7008C137.418 57.7502 137.008 56.839 136.494 55.9872C136.382 55.7864 136.316 55.563 136.302 55.3335C136.288 55.1039 136.326 54.8742 136.412 54.6611L140.063 47.2985C140.152 47.1107 140.167 46.8964 140.107 46.6975C140.046 46.4986 139.914 46.3295 139.735 46.2233L135.777 43.9398C135.597 43.8368 135.385 43.8054 135.183 43.8519C134.981 43.8984 134.803 44.0193 134.687 44.1907L130.13 51.0464C129.988 51.2286 129.808 51.3766 129.601 51.4795C129.395 51.5823 129.167 51.6373 128.937 51.6403C128.407 51.6264 127.876 51.6504 127.35 51.712V46.7097L124.308 44.9536C124.226 44.9154 124.136 44.8996 124.046 44.9077C123.956 44.9158 123.87 44.9475 123.796 44.9997L117.652 48.5529C117.455 48.6822 117.288 48.8517 117.161 49.0502C117.034 49.2487 116.95 49.4718 116.915 49.7049L116.301 56.5504C116.231 57.0349 116.006 57.484 115.661 57.8304C114.441 58.9591 113.298 60.1685 112.24 61.4502C112.091 61.6146 111.899 61.7339 111.685 61.7945C111.472 61.8552 111.245 61.8547 111.032 61.7933L107.08 60.4109C106.875 60.3473 106.656 60.3536 106.455 60.4287C106.255 60.5038 106.086 60.6434 105.974 60.8256L101.448 68.6592C101.347 68.8484 101.312 69.0657 101.348 69.277C101.384 69.4883 101.489 69.6816 101.647 69.8265L104.816 72.5606C104.978 72.7136 105.093 72.9095 105.147 73.1253C105.202 73.3411 105.193 73.5679 105.124 73.7792C104.541 75.3337 104.065 76.9264 103.7 78.5459C103.574 79.0185 103.297 79.4371 102.912 79.7389L97.2798 83.6966C97.0949 83.8427 96.9431 84.0265 96.8346 84.2357C96.726 84.4449 96.6631 84.6747 96.6501 84.9101V92.0166C96.6441 92.1051 96.6613 92.1937 96.6999 92.2736C96.7385 92.3535 96.7972 92.4219 96.8702 92.4723L99.9013 94.2233L104.402 92.0883C104.571 92.4396 104.759 92.7814 104.965 93.1123C105.077 93.3131 105.143 93.5365 105.157 93.766C105.171 93.9955 105.133 94.2253 105.047 94.4384L101.396 101.801C101.306 101.987 101.289 102.201 101.349 102.399C101.408 102.597 101.541 102.766 101.719 102.871L105.682 105.16C105.862 105.262 106.075 105.293 106.277 105.245C106.479 105.198 106.656 105.076 106.772 104.904L111.324 98.0633C111.463 97.8801 111.643 97.7313 111.849 97.6283C112.055 97.5253 112.282 97.471 112.512 97.4694C113.508 97.4908 114.504 97.3911 115.476 97.1725C115.569 97.1463 115.666 97.1412 115.761 97.1574C115.855 97.1737 115.945 97.2109 116.024 97.2663C116.102 97.3218 116.168 97.3941 116.215 97.4779C116.262 97.5618 116.289 97.6551 116.296 97.751L116.9 103.726C116.902 103.81 116.924 103.892 116.965 103.965C117.006 104.039 117.065 104.101 117.135 104.146L120.161 105.887L123.796 100.552C123.993 100.422 124.159 100.252 124.286 100.054C124.412 99.8554 124.494 99.6324 124.528 99.3997L125.143 92.5542C125.181 92.3324 125.273 92.1232 125.411 91.9448C125.548 91.7664 125.727 91.6241 125.931 91.5302C127.737 90.7498 129.365 89.6086 130.713 88.1766C130.87 88.0179 131.066 87.9038 131.281 87.8462C131.496 87.7886 131.722 87.7895 131.937 87.8489L134.364 88.704C134.568 88.7693 134.789 88.7644 134.99 88.6902C135.191 88.616 135.362 88.4767 135.475 88.2944L139.996 80.4608C140.097 80.2721 140.133 80.0551 140.098 79.8439C140.063 79.6326 139.958 79.439 139.801 79.2934L137.728 77.5117C137.568 77.3551 137.452 77.1588 137.393 76.9429C137.333 76.7271 137.332 76.4993 137.39 76.2829C137.839 74.4253 138.029 72.5144 137.953 70.6048C137.958 70.3719 138.012 70.1428 138.114 69.9333C138.216 69.7238 138.362 69.5389 138.542 69.3913L144.174 65.4336C144.358 65.2878 144.508 65.1047 144.616 64.8964C144.723 64.6881 144.786 64.4594 144.799 64.2253L147.487 61.0048L147.609 58.4038ZM120.735 86.5638C114.99 89.8765 111.421 87.5264 111.421 80.896C111.421 74.2656 116.168 66.1401 121.907 62.8275C127.647 59.5149 131.123 61.9213 131.123 68.5517C131.123 75.1821 126.464 83.2563 120.735 86.5741V86.5638Z" fill="#0A0A0A"/>
<path d="M138.849 49.7408L140.057 47.3088C140.147 47.121 140.162 46.9066 140.102 46.7078C140.041 46.5089 139.908 46.3398 139.73 46.2336L135.772 43.9501C135.592 43.847 135.38 43.8156 135.178 43.8621C134.975 43.9086 134.798 44.0296 134.681 44.201L130.13 51.0464C130.046 51.1598 129.944 51.2585 129.828 51.3382L134.922 54.2771L138.849 49.7408Z" fill="#404040"/>
<path d="M103.352 79.2781C103.233 79.454 103.086 79.6096 102.917 79.7389L97.2849 83.6966C97.1351 83.8139 97.0083 83.958 96.9111 84.1216L100.347 86.103L107.806 81.8586L103.352 79.2781Z" fill="#404040"/>
<path d="M106.767 60.3648C106.608 60.3708 106.453 60.416 106.315 60.4963C106.178 60.5767 106.062 60.6898 105.979 60.8256L101.453 68.6592C101.358 68.8344 101.322 69.0355 101.35 69.2326L105.252 71.4854L111.447 63.104L106.767 60.3648Z" fill="#404040"/>
<path d="M117.043 49.2953L121.866 52.0806L127.35 48.9165V46.7097L124.309 44.9536C124.227 44.9154 124.136 44.8996 124.047 44.9077C123.957 44.9158 123.87 44.9475 123.797 44.9997L117.653 48.5529C117.38 48.7342 117.168 48.9927 117.043 49.2953Z" fill="#404040"/>
<path d="M147.825 65.9712V58.88C147.839 58.7931 147.827 58.7041 147.791 58.6235C147.756 58.543 147.698 58.4746 147.624 58.4264C147.551 58.3782 147.465 58.3523 147.376 58.352C147.288 58.3516 147.202 58.3768 147.128 58.4244L141.65 60.8973C141.563 60.9389 141.468 60.9608 141.372 60.9614C141.276 60.9619 141.181 60.9411 141.094 60.9004C141.006 60.8598 140.929 60.8003 140.868 60.7263C140.807 60.6523 140.762 60.5655 140.738 60.4724C140.44 59.5225 140.029 58.6115 139.515 57.7587C139.403 57.5579 139.337 57.3345 139.323 57.105C139.309 56.8755 139.346 56.6457 139.433 56.4327L143.083 49.0701C143.173 48.8829 143.19 48.669 143.13 48.4702C143.07 48.2714 142.939 48.1019 142.761 47.9949L138.798 45.7063C138.617 45.6049 138.405 45.575 138.203 45.6224C138.001 45.6697 137.824 45.791 137.707 45.9623L133.156 52.8077C133.016 52.991 132.835 53.1395 132.628 53.2416C132.421 53.3437 132.194 53.3967 131.963 53.3965C130.968 53.3795 129.974 53.4809 129.003 53.6986C128.911 53.7247 128.813 53.7298 128.718 53.7135C128.623 53.6973 128.533 53.6602 128.454 53.6048C128.375 53.5494 128.31 53.4772 128.262 53.3934C128.214 53.3095 128.186 53.2162 128.179 53.12L127.58 47.104C127.583 47.0167 127.561 46.9304 127.516 46.8552C127.472 46.78 127.407 46.719 127.329 46.6793C127.251 46.6396 127.164 46.6228 127.077 46.6309C126.99 46.639 126.907 46.6717 126.838 46.7252L120.694 50.2784C120.497 50.4067 120.329 50.5752 120.202 50.7729C120.075 50.9706 119.991 51.1929 119.956 51.4253L119.342 58.2759C119.271 58.7601 119.047 59.2088 118.702 59.5559C117.482 60.6846 116.34 61.894 115.282 63.1757C115.133 63.3402 114.94 63.4592 114.726 63.519C114.513 63.5788 114.286 63.5769 114.074 63.5136L110.121 62.1364C109.917 62.0723 109.698 62.0778 109.498 62.1519C109.298 62.2261 109.128 62.3647 109.015 62.546L104.489 70.3847C104.388 70.5739 104.353 70.7912 104.389 71.0025C104.425 71.2137 104.531 71.407 104.689 71.552L107.858 74.281C108.019 74.4352 108.134 74.6319 108.188 74.8484C108.243 75.065 108.235 75.2925 108.165 75.5047C107.582 77.0592 107.107 78.6518 106.742 80.2714C106.615 80.744 106.338 81.1626 105.953 81.4644L100.321 85.4221C100.136 85.5682 99.9845 85.752 99.8759 85.9612C99.7674 86.1704 99.7045 86.4002 99.6914 86.6356V93.7421C99.68 93.8288 99.6935 93.9169 99.7303 93.9962C99.7671 94.0754 99.8257 94.1426 99.8993 94.1898C99.9728 94.2371 100.058 94.2624 100.146 94.2629C100.233 94.2634 100.319 94.2391 100.393 94.1927L105.871 91.7248C105.958 91.6832 106.052 91.6611 106.148 91.6602C106.244 91.6594 106.339 91.6797 106.426 91.7199C106.513 91.76 106.59 91.8189 106.652 91.8923C106.714 91.9658 106.758 92.0519 106.783 92.1447C107.078 93.0974 107.489 94.0104 108.006 94.8634C108.118 95.0642 108.184 95.2876 108.198 95.5171C108.212 95.7466 108.175 95.9764 108.088 96.1895L104.448 103.573C104.357 103.759 104.34 103.972 104.4 104.171C104.46 104.369 104.592 104.537 104.77 104.643L108.733 106.931C108.914 107.034 109.127 107.064 109.329 107.017C109.531 106.969 109.708 106.847 109.824 106.675L114.365 99.84C114.506 99.6585 114.686 99.5109 114.892 99.4081C115.097 99.3053 115.323 99.2499 115.553 99.2461C116.55 99.2682 117.546 99.1668 118.518 98.944C118.61 98.9189 118.708 98.9145 118.802 98.9312C118.897 98.9478 118.987 98.985 119.065 99.0402C119.144 99.0954 119.21 99.1673 119.257 99.2506C119.305 99.334 119.334 99.4268 119.342 99.5226L119.941 105.503C119.937 105.591 119.959 105.677 120.003 105.753C120.047 105.829 120.112 105.891 120.19 105.932C120.268 105.972 120.356 105.989 120.443 105.981C120.531 105.973 120.614 105.941 120.683 105.887L126.827 102.303C127.025 102.175 127.192 102.007 127.319 101.809C127.445 101.611 127.527 101.388 127.56 101.156L128.179 94.3053C128.25 93.8226 128.474 93.3755 128.819 93.0304C130.037 91.9017 131.178 90.6923 132.234 89.4106C132.383 89.2452 132.575 89.1252 132.789 89.0645C133.003 89.0038 133.229 89.0049 133.442 89.0676L137.395 90.4448C137.599 90.5101 137.82 90.5053 138.021 90.4311C138.222 90.3569 138.393 90.2176 138.506 90.0352L143.032 82.1965C143.133 82.0081 143.167 81.7916 143.131 81.5812C143.095 81.3708 142.99 81.1784 142.833 81.0343L139.673 78.336C139.512 78.183 139.397 77.9872 139.343 77.7714C139.288 77.5556 139.297 77.3288 139.366 77.1175C139.945 75.5599 140.421 73.9658 140.79 72.3456C140.918 71.8737 141.194 71.4554 141.578 71.1527L147.21 67.1949C147.394 67.0464 147.544 66.8604 147.649 66.6494C147.755 66.4384 147.815 66.2072 147.825 65.9712ZM123.761 88.32C118.016 91.6327 113.362 88.9447 113.362 82.3143C113.362 75.6839 118.016 67.6199 123.761 64.3072C129.505 60.9946 134.144 63.6775 134.144 70.3079C134.144 76.9383 129.5 84.992 123.761 88.32Z" fill="#262626"/>
<path d="M147.61 58.4038C147.535 58.3635 147.451 58.3424 147.367 58.3424C147.282 58.3424 147.198 58.3635 147.123 58.4038L141.645 60.8717C141.559 60.9133 141.464 60.9354 141.368 60.9363C141.272 60.9371 141.177 60.9168 141.09 60.8766C141.003 60.8365 140.926 60.7776 140.864 60.7042C140.803 60.6307 140.758 60.5446 140.734 60.4518C140.529 59.7884 140.267 59.1442 139.95 58.5267L144.097 56.6579C144.171 56.6193 144.253 56.5992 144.335 56.5992C144.418 56.5992 144.5 56.6193 144.574 56.6579L147.61 58.4038Z" fill="#404040"/>
<path d="M190.741 191.831V191.247C190.51 191.934 189.445 194.872 187.827 196.367C186.542 197.54 184.791 198.897 184.341 200.202C183.89 201.508 186.783 202.015 187.981 201.805C189.379 201.559 191.181 200.781 192.164 199.557C192.855 198.712 193.296 197.704 193.787 197.038C194.279 196.373 195.42 195.625 195.687 194.852C195.835 194.427 195.661 193.5 195.451 192.712C195.241 191.923 195.062 191.176 194.811 191.268V191.713C194.228 192.172 193.505 192.415 192.763 192.399C192.179 192.405 190.736 192.287 190.741 191.831Z" fill="#0A0A0A"/>
<path d="M186.665 197.381C187.065 197.023 187.464 196.675 187.828 196.357C188.959 195.333 189.819 193.582 190.311 192.389C190.593 191.709 190.739 190.98 190.741 190.244V187.904H194.811V191.683V191.785C194.617 192.63 192.763 194.883 191.688 196.352C190.971 197.335 189.64 198.589 188.002 198.805C186.45 199.025 185.667 198.543 186.665 197.381Z" fill="#FCA5A5"/>
<path d="M174.848 187.817V187.233C174.618 187.914 173.553 190.858 171.935 192.353C170.65 193.526 168.899 194.877 168.453 196.183C168.008 197.489 170.89 198.001 172.093 197.791C173.486 197.54 175.293 196.767 176.271 195.543C176.963 194.693 177.403 193.69 177.899 193.019C178.396 192.348 179.528 191.611 179.794 190.838C179.942 190.413 179.768 189.481 179.563 188.698C179.359 187.914 179.169 187.187 178.923 187.254V187.699C178.34 188.156 177.617 188.398 176.875 188.385C176.287 188.385 174.843 188.268 174.848 187.817Z" fill="#0A0A0A"/>
<path d="M170.772 193.362C171.172 193.009 171.571 192.66 171.935 192.338C173.066 191.314 173.926 189.563 174.418 188.37C174.703 187.691 174.849 186.961 174.848 186.225V183.905H178.944V187.684V187.786C178.744 188.631 176.896 190.884 175.816 192.353C175.104 193.336 173.768 194.586 172.134 194.806C170.501 195.026 169.774 194.524 170.772 193.362Z" fill="#FCA5A5"/>
<path d="M194.002 128.512C197.161 135.414 193.889 159.713 193.889 159.713C193.981 160.835 195.261 163.036 195.743 167.962C196.306 173.783 194.857 188.401 194.857 188.401C194.239 188.758 193.543 188.959 192.829 188.988C192.116 189.016 191.406 188.871 190.761 188.565C190.761 188.565 186.875 166.549 186.153 160.763C185.513 155.709 184.289 144.604 184.289 144.604L180.818 160.737C181.325 162.364 181.693 164.03 181.919 165.719C182.246 169.124 178.949 184.975 178.949 184.975C178.949 184.975 177.541 185.487 174.853 185.098C174.853 185.098 173.686 164.065 173.379 159.964C172.867 153.073 174.689 131.584 175.939 127.503L194.002 128.512Z" fill="#262626"/>
<path d="M184.264 144.604L183.24 138.194C183.24 138.194 178.903 137.298 176.937 135.45C178.293 137.039 180.066 138.219 182.057 138.854L183.204 143.79L181.202 158.72L184.264 144.604Z" fill="#0A0A0A"/>
<path d="M177.587 124.165C179.978 116.209 183.025 104.361 181.878 104.361C180.731 104.361 178.96 104.253 177.664 105.554C175.104 108.114 174.649 112.865 174.111 115.579C173.573 118.292 173.194 120.427 172.339 124.447C171.694 127.519 170.901 131.19 169.749 133.545C169.534 133.966 169.168 134.291 168.725 134.456C167.568 134.927 167.035 135.526 166.108 136.212C165.381 136.724 164.828 136.817 164.874 137.037C164.954 137.282 165.123 137.489 165.348 137.615C165.573 137.741 165.837 137.778 166.088 137.718C166.647 137.603 167.191 137.421 167.706 137.175C167.182 138.055 166.52 138.845 165.745 139.515C163.973 141.051 163.697 142.141 166.661 142.679C168.51 143.017 170.184 142.131 172.293 138.296C173.094 136.899 173.794 135.446 174.387 133.949C175.801 130.048 176.866 126.571 177.587 124.165Z" fill="#FCA5A5"/>
<path d="M188.416 104.55C192.466 104.827 192.748 106.783 193.761 108.923C194.505 110.57 194.575 112.442 193.956 114.14L191.13 122.302C191.13 122.302 192.456 125.496 193.987 128.512C186.906 132.465 178.063 130.391 175.934 127.488C175.847 126.879 176.389 122.097 176.727 118.974C175.483 115.84 175.15 113.854 175.678 111.806C176.655 107.966 180.449 104.228 182.124 104.366L188.416 104.55Z" fill="#EC4899"/>
<path d="M184.54 101.192H186.112C188.306 101.19 190.41 100.318 191.961 98.7668C193.513 97.2154 194.385 95.1117 194.386 92.9178C194.386 90.7107 193.51 88.5939 191.949 87.0328C190.389 85.4717 188.273 84.594 186.066 84.5927H184.581C182.374 84.594 180.258 85.4717 178.698 87.0328C177.138 88.5939 176.261 90.7107 176.261 92.9178C176.263 95.1126 177.135 97.2171 178.688 98.7686C180.24 100.32 182.345 101.192 184.54 101.192Z" fill="#0A0A0A"/>
<path d="M198.82 105.554C197.523 105.554 196.279 105.039 195.362 104.122C194.445 103.205 193.93 101.961 193.93 100.664V90.1938C195.227 90.1938 196.471 90.709 197.388 91.626C198.305 92.543 198.82 93.7866 198.82 95.0834V105.554Z" fill="#0A0A0A"/>
<path d="M194.826 88.3353L193.598 90.3065C193.723 90.3935 193.864 90.4542 194.014 90.4848C194.163 90.5154 194.317 90.5154 194.467 90.4848C194.616 90.4542 194.757 90.3935 194.883 90.3066C195.008 90.2196 195.114 90.1081 195.195 89.9789C195.357 89.7101 195.409 89.3893 195.34 89.0831C195.272 88.777 195.088 88.5091 194.826 88.3353Z" fill="#0A0A0A"/>
<path d="M179.241 88.2585C178.284 88.8269 177.101 91.2333 177.193 96.2816C177.295 100.557 178.678 101.612 179.374 101.914C180.071 102.216 181.422 102.031 182.723 101.816V104.376C182.723 104.376 180.915 106.47 181.028 107.648C181.141 108.826 183.634 109.107 185.324 107.955C186.418 107.167 187.358 106.183 188.094 105.052V98.8569C188.231 99.0255 188.4 99.165 188.592 99.2675C188.783 99.3699 188.993 99.4332 189.21 99.4537C189.426 99.4742 189.644 99.4515 189.852 99.3868C190.059 99.3221 190.252 99.2169 190.418 99.0771C191.857 98.1197 191.913 95.7542 191.073 94.9043C190.234 94.0544 188.431 94.3206 188.094 95.4982C188.094 95.4982 186.01 95.5699 183.24 94.0493C182.166 93.465 181.245 92.6365 180.55 91.6306C179.855 90.6247 179.407 89.4696 179.241 88.2585Z" fill="#FCA5A5"/>
<path d="M182.472 95.232C182.467 95.304 182.476 95.3762 182.5 95.4445C182.523 95.5129 182.559 95.576 182.607 95.6302C182.654 95.6844 182.712 95.7287 182.777 95.7606C182.842 95.7924 182.912 95.8111 182.984 95.8157C183.126 95.8188 183.264 95.7675 183.37 95.6724C183.475 95.5772 183.541 95.4454 183.552 95.3037C183.559 95.1611 183.509 95.0217 183.413 94.916C183.317 94.8104 183.183 94.7473 183.04 94.7405C182.898 94.7337 182.758 94.7838 182.653 94.8798C182.547 94.9759 182.484 95.1099 182.477 95.2525L182.472 95.232Z" fill="#0A0A0A"/>
<path d="M181.847 98.816L180.598 99.2154C180.62 99.2993 180.659 99.3778 180.713 99.4461C180.766 99.5145 180.833 99.5712 180.909 99.6129C180.985 99.6545 181.069 99.6803 181.155 99.6885C181.242 99.6968 181.329 99.6873 181.412 99.6608C181.579 99.6034 181.718 99.4834 181.799 99.326C181.88 99.1685 181.897 98.9858 181.847 98.816Z" fill="#F87171"/>
<path d="M178.058 93.5526L179.149 92.8C179.103 92.7263 179.043 92.6628 178.972 92.6133C178.901 92.5637 178.821 92.5293 178.736 92.512C178.651 92.4947 178.563 92.495 178.478 92.5129C178.394 92.5307 178.313 92.5657 178.243 92.6157C178.097 92.7181 177.997 92.8727 177.963 93.0472C177.928 93.2217 177.963 93.4027 178.058 93.5526Z" fill="#0A0A0A"/>
<path d="M178.309 94.8173C178.302 94.9598 178.353 95.0993 178.449 95.2049C178.545 95.3105 178.679 95.3737 178.821 95.3804C178.964 95.3872 179.103 95.3371 179.209 95.2411C179.314 95.1451 179.378 95.011 179.384 94.8684C179.39 94.7963 179.381 94.7238 179.358 94.6552C179.335 94.5866 179.299 94.5232 179.251 94.4688C179.204 94.4144 179.145 94.3702 179.08 94.3385C179.015 94.3069 178.945 94.2887 178.872 94.2848C178.727 94.282 178.587 94.3362 178.482 94.4358C178.377 94.5354 178.315 94.6724 178.309 94.8173Z" fill="#0A0A0A"/>
<path d="M180.936 94.51L180.854 97.7459L179.149 97.2185L180.936 94.51Z" fill="#F87171"/>
<path d="M182.743 101.821C184.115 101.637 186.947 100.828 187.387 99.7069C187.213 100.275 186.866 100.774 186.394 101.135C185.549 101.862 182.743 102.671 182.743 102.671V101.821Z" fill="#F87171"/>
<path opacity="0.1" d="M186.619 129.28C187.173 129.153 187.697 128.916 188.159 128.584C188.621 128.251 189.012 127.83 189.309 127.345C189.607 126.859 189.804 126.319 189.889 125.757C189.975 125.194 189.948 124.62 189.808 124.068C189.783 123.981 189.757 123.904 189.737 123.843C189.64 123.546 189.445 123.291 189.185 123.119C188.925 122.947 188.614 122.868 188.303 122.895C188.757 122.593 189.147 122.204 189.45 121.751C189.753 121.297 189.963 120.788 190.07 120.253L190.93 115.937C190.93 115.937 189.332 110.868 189.496 109.128L193.561 109.363L194.073 109.732C194.505 111.176 194.465 112.72 193.961 114.14L191.134 122.301C191.134 122.301 192.461 125.496 193.991 128.512C191.689 129.754 189.147 130.488 186.538 130.664C183.928 130.841 181.31 130.456 178.862 129.536C181.44 129.943 184.073 129.856 186.619 129.28Z" fill="#0A0A0A"/>
<path d="M192.471 125.327C190.976 125.727 186.425 126.264 186.087 123.069C185.913 120.524 185.913 117.97 186.087 115.425C186.294 111.65 187.654 108.03 189.983 105.052L190.167 104.827C190.167 104.827 189.507 104.289 188.119 104.54C186.165 106.527 184.782 109.003 184.116 111.708C182.068 111.411 179.508 111.196 177.797 111.063C178.594 108.321 180.352 105.958 182.749 104.407C182.169 104.183 181.528 104.172 180.941 104.376C178.507 105.856 176.723 108.2 175.944 110.94C174.316 115.451 174.377 132.26 174.408 138.23L177.219 133.755H195.139C194.914 127.314 192.471 125.327 192.471 125.327Z" fill="#262626"/>
<path d="M201.216 120.96C201.216 120.96 199.306 116.864 196.649 110.828C194.729 106.455 194.304 105.467 191.247 104.996L190.172 104.827C188.723 109.583 189.722 111.734 191.626 114.99L195.395 122.291C196.905 121.994 201.267 121.416 201.216 120.96Z" fill="#FCA5A5"/>
<path d="M195.41 122.291C196.526 124.539 197.458 125.931 198.841 126.295C200.223 126.658 211.41 126.53 211.41 126.53V122.291L200.74 120.668L195.41 122.291Z" fill="#FCA5A5"/>
<path d="M217.82 168.837H200.192V203.187C200.11 204.549 200.96 205.926 202.752 206.966C206.198 208.957 211.784 208.957 215.229 206.966C216.955 205.973 217.815 204.667 217.815 203.382L217.82 168.837Z" fill="#EC4899"/>
<path d="M215.967 165.714C214.016 164.439 215.23 161.336 215.23 161.336H202.752C202.752 161.336 203.93 164.408 202.015 165.714C199.322 167.716 199.562 170.598 202.742 172.436C206.188 174.428 211.774 174.428 215.219 172.436C218.414 170.598 218.655 167.716 215.967 165.714Z" fill="#EC4899"/>
<path opacity="0.05" d="M215.967 165.714C214.016 164.439 215.23 161.336 215.23 161.336H202.752C202.752 161.336 203.93 164.408 202.015 165.714C199.322 167.716 199.562 170.598 202.742 172.436C206.188 174.428 211.774 174.428 215.219 172.436C218.414 170.598 218.655 167.716 215.967 165.714Z" fill="#0A0A0A"/>
<path opacity="0.05" d="M214.891 162.867C214.943 162.343 215.058 161.827 215.235 161.331H202.752C202.925 161.828 203.037 162.343 203.085 162.867C206.438 164.608 211.538 164.608 214.891 162.867Z" fill="#0A0A0A"/>
<path d="M217.82 155.336H216.796C216.347 154.861 215.829 154.455 215.26 154.132C211.814 152.146 206.228 152.146 202.783 154.132C202.214 154.455 201.696 154.861 201.247 155.336H200.223V157.737C200.223 159.043 201.083 160.343 202.808 161.321C206.254 163.313 211.84 163.313 215.286 161.321C217.011 160.328 217.871 159.027 217.871 157.737L217.82 155.336Z" fill="#EC4899"/>
<path d="M202.752 158.935C206.198 160.927 211.784 160.927 215.23 158.935C218.676 156.943 218.676 153.723 215.23 151.731C211.784 149.74 206.198 149.745 202.752 151.731C199.307 153.718 199.312 156.949 202.752 158.935Z" fill="#EC4899"/>
<path opacity="0.4" d="M202.752 158.935C206.198 160.927 211.784 160.927 215.23 158.935C218.676 156.943 218.676 153.723 215.23 151.731C211.784 149.74 206.198 149.745 202.752 151.731C199.307 153.718 199.312 156.949 202.752 158.935Z" fill="#FAFAFA"/>
<path opacity="0.2" d="M209.004 204.713C208.547 204.713 208.11 204.532 207.787 204.209C207.464 203.886 207.283 203.449 207.283 202.993V178.453C207.283 177.996 207.464 177.559 207.787 177.236C208.11 176.913 208.547 176.732 209.004 176.732C209.459 176.734 209.895 176.915 210.217 177.238C210.538 177.56 210.719 177.997 210.719 178.453V202.993C210.719 203.448 210.538 203.885 210.217 204.207C209.895 204.53 209.459 204.712 209.004 204.713Z" fill="#0A0A0A"/>
<path opacity="0.2" d="M214.876 203.674C214.052 203.976 213.386 203.551 213.386 202.726V177.731C213.414 177.283 213.569 176.852 213.832 176.489C214.096 176.126 214.459 175.847 214.876 175.683C215.7 175.386 216.366 175.805 216.366 176.63V201.631C216.338 202.078 216.183 202.508 215.919 202.87C215.655 203.232 215.293 203.51 214.876 203.674Z" fill="#0A0A0A"/>
<path opacity="0.2" d="M203.126 203.674C203.95 203.976 204.616 203.551 204.616 202.726V177.731C204.589 177.283 204.434 176.852 204.17 176.489C203.906 176.126 203.544 175.847 203.126 175.683C202.302 175.386 201.636 175.805 201.636 176.63V201.631C201.664 202.078 201.819 202.508 202.083 202.87C202.347 203.232 202.709 203.51 203.126 203.674Z" fill="#0A0A0A"/>
<path d="M211.41 93.5475L207.826 91.4688L205.553 102.164C205.553 102.164 207.826 105.876 207.826 108.278V153.907L210.207 156.692L211.431 155.986V110.362C211.431 107.96 213.699 106.87 213.699 106.87L211.41 93.5475Z" fill="#D4D4D4"/>
<path d="M210.186 94.2541L206.602 92.1703L204.329 102.866C204.329 102.866 206.602 106.583 206.602 109.01V154.624L210.186 156.708V111.063C210.186 108.662 212.46 107.571 212.46 107.571L210.186 94.2541Z" fill="#F5F5F5"/>
<path d="M206.587 92.1702L207.805 91.4688L211.41 93.5475L210.186 94.254L206.587 92.1702Z" fill="#FAFAFA"/>
<path d="M211.41 93.5475L210.186 94.254L212.459 107.571L213.678 106.87L211.41 93.5475Z" fill="#FAFAFA"/>
<path d="M211.41 118.927C211.595 118.123 212.864 117.673 212.736 119.014C212.608 120.356 213.248 121.293 213.438 121.917C213.822 123.233 213.735 125.716 213.218 126.208C212.951 126.521 212.619 126.77 212.244 126.939C211.87 127.109 211.463 127.193 211.052 127.186C210.055 127.133 209.105 126.747 208.354 126.09C207.524 125.445 206.638 121.738 208.564 122.26C211.426 123.044 211.41 120.986 211.41 120.986V118.927Z" fill="#FCA5A5"/>
<path d="M117.279 131.072C119.291 131.477 120.484 132.956 122.911 136.704C125.338 140.452 129.096 146.944 129.096 146.944L138.506 150.528L138.102 154.762C138.102 154.762 127.836 152.94 126.428 151.895C125.02 150.851 119.588 142.976 119.588 142.976L117.279 131.072Z" fill="#FCA5A5"/>
<path d="M115.594 130.309C117.683 130.678 119.752 131.185 121.037 133.176C122.322 135.168 127.002 142.776 127.002 142.776C127.002 142.776 125.297 146.78 122.184 147.384L117.709 140.938L115.594 130.309Z" fill="#F5F5F5"/>
<path d="M107.935 130.478C107.218 130.652 106.496 130.698 105.861 130.826C102.753 131.451 102.18 133.064 102.103 136.822C101.98 143.104 102.103 157.645 102.103 157.645C104.873 159.657 115.103 160.891 120.929 156.621C120.929 156.621 120.632 139.894 120.632 136.929C120.632 133.965 118.989 130.406 114.442 130.14L107.935 130.478Z" fill="#FAFAFA"/>
<path d="M101.366 215.782H105.385V208.901H101.366V215.782Z" fill="#FCA5A5"/>
<path d="M117.811 210.57L121.825 210.709L122.03 203.428L117.811 203.29V210.57Z" fill="#FCA5A5"/>
<path d="M121.498 156.636L120.776 140.288L108.129 142.336C108.161 144.92 108.01 147.504 107.679 150.067C107.443 152.084 105.508 154.834 102.077 155.74C101.93 158.381 101.92 161.029 102.047 163.671C102.108 165.576 101.212 186.634 101.212 186.634C101.12 187.74 100.055 189.706 99.9731 193.679C99.8554 199.45 101.197 212.331 101.197 212.331C101.891 212.673 102.651 212.858 103.425 212.873C104.198 212.888 104.965 212.733 105.672 212.419C105.672 212.419 108.375 193.905 109.097 188.196C109.722 183.214 112.348 169.195 112.348 169.195L115.42 186.045C114.949 188.14 114.776 190.292 114.908 192.435C115.093 195.072 117.54 208.307 117.54 208.307C118.241 208.702 119.02 208.938 119.823 208.999C120.625 209.06 121.431 208.945 122.184 208.66C122.184 208.66 122.419 187.894 122.47 185.467C122.537 182.717 121.498 156.636 121.498 156.636Z" fill="#262626"/>
<path d="M120.776 140.288C120.643 137.057 120.192 134.072 117.407 131.277C116.645 130.524 115.616 130.104 114.545 130.109H113.946C113.946 130.109 116.741 132.326 117.837 135.547C118.439 137.584 118.737 139.699 118.723 141.824L120.776 140.288Z" fill="#262626"/>
<path d="M105.39 213.796V213.222C105.605 213.222 105.738 213.432 105.82 213.949C105.882 214.318 105.933 214.6 106.056 215.086C106.232 215.787 106.467 216.472 106.757 217.134C107.325 218.537 107.781 219.054 109.102 220.692C109.55 221.144 109.967 221.625 110.351 222.131C110.597 222.561 110.679 223.764 110.269 224.041C108.733 225.065 106.445 225.065 104.817 224.604C104.209 224.435 103.662 224.094 103.242 223.623C102.822 223.152 102.545 222.57 102.446 221.947C102.39 221.573 102.41 221.194 102.369 220.82C102.221 219.971 101.87 219.17 101.345 218.486C101.045 218.09 100.786 217.664 100.572 217.216C100.234 216.392 100.506 215.46 100.721 214.656C100.91 213.944 101.11 213.161 101.356 213.228V213.668C101.926 214.118 102.636 214.357 103.363 214.344C103.967 214.364 105.395 214.246 105.39 213.796Z" fill="#0A0A0A"/>
<path d="M121.856 209.469C122.066 209.469 122.235 209.772 122.696 210.268C123.381 210.965 124.179 211.541 125.056 211.973C126.561 212.726 129.49 213.883 130.816 214.482C131.64 214.851 131.604 215.854 130.749 216.422C129.894 216.991 127.826 217.4 125.348 216.847C123.996 216.545 122.24 215.311 121.124 215.363C120.008 215.414 117.929 215.414 117.11 214.851C116.29 214.287 116.598 213.079 116.849 212.04C117.105 210.903 117.417 209.137 117.796 209.213V209.603C118.277 210.335 120.77 210.627 121.835 210.115L121.856 209.469Z" fill="#0A0A0A"/>
<path d="M112.348 169.206C114.426 168.56 116.336 167.466 117.944 166.001C117.944 166.001 116.864 168.018 113.654 169.902L115.19 184.888L112.348 169.206Z" fill="#0A0A0A"/>
<path d="M115.057 122.644C118.108 122.644 120.581 120.171 120.581 117.12C120.581 114.069 118.108 111.595 115.057 111.595C112.006 111.595 109.532 114.069 109.532 117.12C109.532 120.171 112.006 122.644 115.057 122.644Z" fill="#0A0A0A"/>
<path d="M105.508 121.047C105.508 121.047 106.404 125.251 106.762 125.942C107.001 126.368 107.396 126.685 107.863 126.828L107.796 123.873L105.508 121.047Z" fill="#0A0A0A"/>
<path d="M106.629 115.021C106.316 114.985 105.999 115.021 105.702 115.125C105.405 115.23 105.136 115.401 104.914 115.625C104.177 116.378 104.587 118.738 105.508 121.047L107.193 121.242L106.629 115.021Z" fill="#0A0A0A"/>
<path d="M107.699 121.242C107.361 121.441 106.88 120.791 106.46 120.356C106.04 119.921 104.684 119.332 104.003 120.755C103.322 122.179 104.602 124.14 105.677 124.477C107.52 125.056 107.797 123.873 107.797 123.873L107.935 130.739C110.234 133.683 116.603 133.432 113.951 130.355V128.307C114.773 128.44 115.608 128.483 116.439 128.435C117.796 128.225 118.651 127.155 119.061 125.686C119.726 123.325 119.977 121.416 119.414 116.772C118.8 111.683 112.881 111.652 109.686 113.644C106.491 115.635 107.699 121.242 107.699 121.242Z" fill="#FCA5A5"/>
<path d="M108.124 143.36C108.217 139.182 107.264 132.987 105.861 130.847C106.51 130.55 107.225 130.43 107.935 130.499C107.935 130.499 110.567 134.595 110.454 143.36H108.124Z" fill="#262626"/>
<path d="M107.699 121.81C107.53 121.81 106.88 120.74 106.46 120.356C105.876 119.844 106.629 115.021 106.629 115.021C106.428 114.598 106.358 114.124 106.431 113.66C106.503 113.197 106.713 112.767 107.034 112.425C107.832 111.549 108.943 110.474 112.568 110.889C115.128 111.191 117.965 112 120.248 110.889C120.457 111.628 120.44 112.413 120.2 113.143C119.96 113.872 119.508 114.514 118.902 114.985C118.902 114.985 118.077 115.497 115.917 115.779C113.919 115.929 111.912 115.892 109.921 115.666C109.297 115.579 109.163 116.178 108.826 117.847C108.544 119.327 108.267 121.8 107.699 121.81Z" fill="#0A0A0A"/>
<path d="M106.634 115.395L104.586 114.299C104.652 114.163 104.744 114.041 104.857 113.941C104.97 113.841 105.103 113.765 105.246 113.717C105.389 113.67 105.541 113.651 105.691 113.663C105.842 113.675 105.988 113.717 106.122 113.787C106.398 113.938 106.604 114.189 106.7 114.488C106.795 114.788 106.772 115.112 106.634 115.395Z" fill="#0A0A0A"/>
<path d="M113.946 128.328C113.946 128.328 110.909 127.718 109.85 127.155C109.228 126.829 108.718 126.324 108.385 125.706C108.546 126.327 108.83 126.908 109.22 127.416C109.993 128.405 113.946 129.137 113.946 129.137V128.328Z" fill="#F87171"/>
<path d="M113.828 120.868C113.823 120.987 113.783 121.103 113.713 121.2C113.642 121.296 113.545 121.371 113.433 121.413C113.321 121.455 113.2 121.463 113.083 121.436C112.966 121.409 112.86 121.349 112.778 121.262C112.695 121.176 112.64 121.067 112.619 120.949C112.598 120.831 112.613 120.71 112.66 120.6C112.708 120.49 112.786 120.397 112.887 120.332C112.987 120.266 113.104 120.232 113.224 120.233C113.305 120.235 113.385 120.253 113.46 120.286C113.534 120.319 113.601 120.366 113.657 120.425C113.713 120.484 113.757 120.554 113.787 120.63C113.816 120.705 113.83 120.786 113.828 120.868Z" fill="#0A0A0A"/>
<path d="M113.188 118.574L111.887 119.291C111.796 119.114 111.777 118.909 111.833 118.718C111.89 118.528 112.017 118.366 112.19 118.267C112.275 118.22 112.369 118.191 112.466 118.181C112.563 118.171 112.661 118.18 112.754 118.209C112.847 118.238 112.933 118.285 113.008 118.347C113.083 118.41 113.144 118.487 113.188 118.574Z" fill="#0A0A0A"/>
<path d="M113.664 124.682L115.052 125.194C115.022 125.288 114.973 125.374 114.909 125.448C114.845 125.522 114.767 125.582 114.679 125.625C114.591 125.668 114.495 125.693 114.397 125.698C114.299 125.703 114.201 125.689 114.109 125.655C113.924 125.582 113.774 125.439 113.691 125.258C113.608 125.077 113.599 124.871 113.664 124.682Z" fill="#F87171"/>
<path d="M119.25 119.081L118.062 118.164C118.118 118.085 118.189 118.018 118.271 117.966C118.353 117.915 118.445 117.881 118.541 117.866C118.636 117.851 118.734 117.856 118.828 117.88C118.922 117.904 119.01 117.947 119.087 118.006C119.246 118.13 119.351 118.311 119.382 118.511C119.412 118.711 119.365 118.915 119.25 119.081Z" fill="#0A0A0A"/>
<path d="M118.881 120.694C118.876 120.813 118.836 120.929 118.766 121.025C118.696 121.122 118.599 121.196 118.487 121.238C118.375 121.281 118.253 121.289 118.136 121.262C118.02 121.235 117.913 121.175 117.831 121.088C117.749 121.001 117.693 120.892 117.672 120.775C117.652 120.657 117.666 120.536 117.713 120.426C117.761 120.316 117.84 120.223 117.94 120.158C118.04 120.092 118.157 120.058 118.277 120.059C118.441 120.064 118.596 120.134 118.709 120.253C118.822 120.371 118.884 120.53 118.881 120.694Z" fill="#0A0A0A"/>
<path d="M115.63 120.233L115.825 123.889L117.735 123.238L115.63 120.233Z" fill="#F87171"/>
<path d="M144.62 127.022C144.62 125.896 145.562 124.324 145.275 123.489L143.196 122.286L139.029 132.756L134.779 135.173L132.68 132.101L138.962 122.726L136.883 121.528C136.622 121.651 136.371 121.784 136.085 121.938C131.338 124.636 127.463 131.282 127.427 136.786C127.427 139.561 128.374 141.507 129.941 142.418L131.989 143.611L132.229 142.986H132.383V191.703C129.464 194.954 127.432 199.521 127.406 203.479C127.406 205.527 127.918 207.145 128.835 208.21L130.913 209.413L132.997 197.74L137.247 195.323L139.346 198.395L135.168 208.988L137.247 210.186C137.247 210.186 144.589 199.229 144.625 193.731C144.679 192.355 144.37 190.99 143.729 189.773L144.241 189.338L142.193 188.145C141.42 187.687 140.529 187.471 139.633 187.525V138.813C142.561 135.562 144.594 131 144.62 127.022Z" fill="#404040"/>
<path d="M132.403 191.708L134.482 192.911V144.195L132.403 142.991V191.708Z" fill="#0A0A0A"/>
<path d="M141.721 188.733V140.017C144.64 136.765 146.672 132.198 146.698 128.241C146.698 126.193 146.186 124.575 145.275 123.51L141.107 133.98L136.857 136.397L134.758 133.325L138.962 122.747C138.699 122.87 138.433 123.008 138.163 123.162C133.417 125.86 129.541 132.506 129.505 138.01C129.48 142.044 131.522 144.328 134.482 144.21V192.927C131.563 196.173 129.531 200.74 129.505 204.703C129.505 206.751 130.017 208.369 130.934 209.439L135.096 198.963L139.346 196.552L141.445 199.624L137.241 210.196C137.508 210.074 137.753 209.94 138.04 209.787C142.786 207.089 146.662 200.443 146.698 194.939C146.724 190.899 144.681 188.616 141.721 188.733Z" fill="#262626"/>
<path d="M138.44 197.064L139.346 196.552L141.445 199.614L137.242 210.186L135.163 208.988L139.367 198.41L138.44 197.064Z" fill="#0A0A0A"/>
<path d="M141.721 148.685C141.721 149.468 140.534 150.339 139.673 150.886C138.813 151.434 137.697 152.197 138.137 153.779C138.215 154.087 138.356 154.376 138.552 154.626C138.749 154.876 138.996 155.081 139.277 155.229C139.558 155.377 139.867 155.464 140.185 155.484C140.502 155.504 140.82 155.457 141.117 155.346C141.638 155.119 142.091 154.759 142.429 154.303C142.768 153.847 142.981 153.309 143.047 152.745C143.263 151.286 143.754 147.794 141.757 147.384L141.721 148.685Z" fill="#FCA5A5"/>
<path d="M94.0188 152.873C97.48 137.334 99.6508 133.929 104.464 132.152L103.808 141.491C103.808 141.491 99.2924 151.552 98.6115 155.136C98.0124 158.264 97.3417 162.197 97.4492 164.864C97.4698 165.337 97.665 165.786 97.9971 166.124C98.8828 167.045 99.1337 167.818 99.7174 168.842C100.168 169.646 100.654 169.938 100.521 170.122C100.349 170.323 100.105 170.449 99.8415 170.473C99.578 170.498 99.3152 170.42 99.1081 170.255C98.6334 169.917 98.2019 169.521 97.823 169.078C97.9497 170.116 98.2418 171.127 98.6883 172.073C99.7123 174.239 99.4921 175.36 96.5225 174.633C94.6588 174.182 93.4505 172.667 93.0972 168.228C92.9299 166.593 92.8802 164.949 92.9487 163.308C93.2559 159.084 93.4608 155.372 94.0188 152.873Z" fill="#FCA5A5"/>
<path d="M104.883 131.072C103.65 131.113 102.45 131.483 101.407 132.142C100.198 132.956 98.1863 136.238 96.9114 140.298C95.6365 144.358 94.9658 146.611 94.9658 146.611C94.9658 146.611 97.0548 149.791 101.56 148.536C101.56 148.536 104.095 142.188 103.951 142.592C103.936 142.602 107.31 136.341 104.883 131.072Z" fill="#F5F5F5"/>
</svg>
