<svg width="152" height="152" viewBox="0 0 152 152" fill="none" xmlns="http://www.w3.org/2000/svg">
<path d="M23.6117 134.313C-5.32303 117.608 -5.32303 90.5373 23.6117 73.8173C52.5464 57.0973 99.4536 57.0973 128.388 73.8173C157.323 90.5373 157.323 117.593 128.388 134.313C99.4536 151.033 52.5464 151.018 23.6117 134.313Z" fill="#F5F5F5"/>
<path d="M36.0922 105.905C40.1882 108.27 40.1882 112.106 36.0922 114.471C31.9961 116.836 25.3515 116.836 21.2517 114.471C17.1518 112.106 17.1556 108.27 21.2517 105.905C25.3477 103.54 32.0038 103.536 36.0922 105.905Z" fill="#D4D4D4"/>
<path d="M65.7946 64.5317C59.8569 67.9705 59.8569 73.5147 65.7946 76.9421C71.7323 80.3695 81.3534 80.3809 87.2911 76.9421C93.2289 73.5033 93.225 67.9591 87.2911 64.5317C81.3572 61.1043 71.7285 61.1043 65.7946 64.5317Z" fill="#F5F5F5"/>
<path d="M99.1205 116.596C116.562 116.596 130.7 108.432 130.7 98.3622C130.7 88.2921 116.562 80.1287 99.1205 80.1287C81.6794 80.1287 67.5405 88.2921 67.5405 98.3622C67.5405 108.432 81.6794 116.596 99.1205 116.596Z" fill="#F5F5F5"/>
<path d="M131.429 31.5218L130.924 31.8227L120.561 25.84L121.065 25.5391L131.429 31.5218Z" fill="#FAFAFA"/>
<path d="M121.065 25.5391L130.924 31.2299V20.9061L121.065 15.2183V25.5391Z" fill="#FAFAFA"/>
<path d="M119.606 26.3902L131.878 33.4734V20.368L119.606 13.2696V26.3902ZM120.561 14.9203L130.924 20.9061V31.8227L120.561 25.84V14.9203Z" fill="#F5F5F5"/>
<path d="M120.561 25.84L121.065 25.5391V15.2183L120.561 14.9203V25.84Z" fill="#D4D4D4"/>
<path d="M119.606 13.2696L120.12 12.9747L132.392 20.061L131.878 20.3528L119.606 13.2696Z" fill="#FAFAFA"/>
<path d="M132.392 20.061L131.878 20.3528V33.4735L132.392 33.1816V20.061Z" fill="#D4D4D4"/>
<path d="M121.451 25.2289L130.541 30.479V27.8525L128.267 22.6054L126.85 23.9187L127.361 26.1166L124.221 19.4043L121.451 22.6054V25.2289Z" fill="#D4D4D4"/>
<path d="M126.938 20.064C127.134 20.1915 127.297 20.3634 127.413 20.5657C127.53 20.768 127.597 20.9951 127.61 21.2283C127.61 21.657 127.306 21.8363 126.938 21.6144C126.742 21.4874 126.578 21.3157 126.461 21.1133C126.343 20.911 126.276 20.6837 126.263 20.4501C126.263 20.0306 126.564 19.8573 126.938 20.064Z" fill="#FAFAFA"/>
<path d="M131.429 48.0046L130.924 48.3056L120.561 42.3229L121.065 42.0219L131.429 48.0046Z" fill="#FAFAFA"/>
<path d="M121.065 42.0219L130.924 47.7128V37.3859L121.065 31.7011V42.0219Z" fill="#FAFAFA"/>
<path d="M119.606 42.864L131.878 49.9472V36.8387L119.606 29.7525V42.864ZM120.561 31.3941L130.924 37.392V48.3056L120.561 42.3229V31.3941Z" fill="#F5F5F5"/>
<path d="M120.561 42.3229L121.065 42.0219V31.7011L120.561 31.4032V42.3229Z" fill="#D4D4D4"/>
<path d="M119.606 29.7525L120.12 29.4576L132.392 36.5438L131.878 36.8357L119.606 29.7525Z" fill="#FAFAFA"/>
<path d="M132.392 36.5438L131.878 36.8357V49.9563L132.392 49.6645V36.5438Z" fill="#D4D4D4"/>
<path d="M121.451 41.7118L130.541 46.9619V44.3354L128.267 39.0883L126.85 40.4016L127.361 42.5995L124.221 35.8872L121.451 39.0883V41.7118Z" fill="#D4D4D4"/>
<path d="M126.938 36.556C127.134 36.6835 127.297 36.8554 127.413 37.0577C127.53 37.26 127.597 37.4871 127.61 37.7203C127.61 38.149 127.306 38.3283 126.938 38.1064C126.742 37.9795 126.578 37.8077 126.461 37.6054C126.343 37.403 126.276 37.1757 126.263 36.9421C126.263 36.5134 126.564 36.3402 126.938 36.556Z" fill="#FAFAFA"/>
<path d="M65.772 53.9822C65.778 53.9136 65.8026 53.8479 65.8429 53.792C65.8833 53.7362 65.938 53.6923 66.0012 53.665C66.1717 53.5785 66.3602 53.5333 66.5514 53.5333C66.7427 53.5333 66.9312 53.5785 67.1017 53.665C67.1642 53.6929 67.2181 53.737 67.2578 53.7928C67.2974 53.8486 67.3214 53.914 67.3271 53.9822L64.5607 70.3243C64.5546 70.3717 64.5367 70.4168 64.5087 70.4555C64.4806 70.4942 64.4434 70.5253 64.4003 70.5459C64.2812 70.6037 64.1505 70.6337 64.0182 70.6337C63.8858 70.6337 63.7552 70.6037 63.6361 70.5459C63.593 70.5253 63.5557 70.4942 63.5277 70.4555C63.4996 70.4168 63.4817 70.3717 63.4756 70.3243L65.772 53.9822Z" fill="#404040"/>
<path d="M87.123 53.9822C87.1169 53.9136 87.0924 53.8479 87.052 53.792C87.0117 53.7362 86.957 53.6923 86.8937 53.665C86.7232 53.5785 86.5347 53.5333 86.3435 53.5333C86.1523 53.5333 85.9638 53.5785 85.7933 53.665C85.7308 53.6929 85.6768 53.737 85.6372 53.7928C85.5975 53.8486 85.5736 53.914 85.5679 53.9822L88.3342 70.3243C88.3404 70.3717 88.3583 70.4168 88.3863 70.4555C88.4143 70.4942 88.4516 70.5253 88.4947 70.5459C88.6138 70.6037 88.7444 70.6337 88.8768 70.6337C89.0092 70.6337 89.1398 70.6037 89.2589 70.5459C89.302 70.5253 89.3393 70.4942 89.3673 70.4555C89.3953 70.4168 89.4132 70.3717 89.4194 70.3243L87.123 53.9822Z" fill="#404040"/>
<path d="M77.3188 55.2201C77.3131 55.1519 77.2891 55.0865 77.2495 55.0307C77.2098 54.9749 77.1559 54.9308 77.0934 54.903C76.9229 54.8164 76.7344 54.7712 76.5431 54.7712C76.3519 54.7712 76.1634 54.8164 75.9929 54.903C75.9297 54.9302 75.875 54.9741 75.8346 55.03C75.7943 55.0858 75.7697 55.1515 75.7637 55.2201L75.9929 74.6648C75.9997 74.7115 76.0179 74.7558 76.0459 74.7938C76.0739 74.8318 76.1108 74.8623 76.1534 74.8826C76.2723 74.9409 76.403 74.9713 76.5355 74.9713C76.668 74.9713 76.7987 74.9409 76.9176 74.8826C76.9611 74.8635 76.9988 74.8333 77.0269 74.7951C77.0551 74.7569 77.0727 74.712 77.0781 74.6648L77.3188 55.2201Z" fill="#404040"/>
<path d="M90.4779 48.5984C90.4779 46.5389 89.1329 44.4795 86.4086 42.9091C80.9676 39.7683 72.1451 39.7683 66.7041 42.9091C63.9836 44.4795 62.6348 46.5389 62.6348 48.5984V49.7027C62.6653 51.7354 64.0294 53.7605 66.7155 55.3118C72.1565 58.4526 80.979 58.4526 86.42 55.3118C89.0947 53.7605 90.4702 51.7354 90.5046 49.7027L90.4779 48.5984Z" fill="#EC4899"/>
<path opacity="0.4" d="M90.4779 48.5984C90.4779 46.5389 89.1329 44.4795 86.4086 42.9091C80.9676 39.7683 72.1451 39.7683 66.7041 42.9091C63.9836 44.4795 62.6348 46.5389 62.6348 48.5984V49.7027C62.6653 51.7354 64.0294 53.7605 66.7155 55.3118C72.1565 58.4526 80.979 58.4526 86.42 55.3118C89.0947 53.7605 90.4702 51.7354 90.5046 49.7027L90.4779 48.5984Z" fill="#FAFAFA"/>
<path d="M66.7043 42.9091C61.2633 46.0499 61.2633 51.147 66.7043 54.2878C72.1453 57.4286 80.9678 57.4286 86.4088 54.2878C91.8498 51.147 91.8536 46.0499 86.4088 42.9091C80.964 39.7683 72.13 39.7683 66.7043 42.9091Z" fill="#EC4899"/>
<path opacity="0.6" d="M66.7043 42.9091C61.2633 46.0499 61.2633 51.147 66.7043 54.2878C72.1453 57.4286 80.9678 57.4286 86.4088 54.2878C91.8498 51.147 91.8536 46.0499 86.4088 42.9091C80.964 39.7683 72.13 39.7683 66.7043 42.9091Z" fill="#FAFAFA"/>
<g opacity="0.05">
<path d="M79.5961 45.9391C81.3308 46.944 81.3308 48.5679 79.5961 49.569C77.8614 50.57 75.0454 50.57 73.3069 49.569C71.5683 48.5679 71.5722 46.944 73.3069 45.9391C75.0416 44.9342 77.8576 44.938 79.5961 45.9391Z" fill="#0A0A0A"/>
</g>
<path d="M73.6848 47.9795C72.1755 46.4511 71.2853 42.5843 72.7601 41.3616H80.2644C81.7393 42.5843 80.849 46.432 79.3398 47.9757L79.2977 48.0215L79.2481 48.0712L79.1105 48.1935L79.0723 48.2202L78.9615 48.3081C78.8985 48.3538 78.8321 48.3947 78.7628 48.4303C78.0655 48.7847 77.2944 48.9694 76.5123 48.9694C75.7301 48.9694 74.959 48.7847 74.2618 48.4303C74.1925 48.3933 74.1261 48.3512 74.0631 48.3043C74.0271 48.2797 73.9926 48.2529 73.9599 48.224L73.9141 48.1896C73.8682 48.1514 73.8224 48.1132 73.7803 48.0712L73.723 48.0139L73.6848 47.9795Z" fill="#F5F5F5"/>
<path d="M79.6113 40.8687C81.323 41.8584 81.323 43.4593 79.6113 44.4489C77.8995 45.4386 75.1255 45.4347 73.4137 44.4489C71.7019 43.4631 71.7019 41.8584 73.4137 40.8687C75.1255 39.8791 77.8995 39.8791 79.6113 40.8687Z" fill="#FAFAFA"/>
<path d="M78.4003 41.568C79.4396 42.1717 79.4396 43.146 78.4003 43.7459C77.8163 44.0435 77.1701 44.1986 76.5146 44.1986C75.8592 44.1986 75.213 44.0435 74.629 43.7459C73.5859 43.146 73.5859 42.1717 74.629 41.568C75.2136 41.2722 75.8595 41.118 76.5146 41.118C77.1698 41.118 77.8157 41.2722 78.4003 41.568Z" fill="#F5F5F5"/>
<path d="M74.6286 42.6034C75.2126 42.3058 75.8587 42.1507 76.5142 42.1507C77.1697 42.1507 77.8158 42.3058 78.3998 42.6034C78.6508 42.7395 78.8646 42.935 79.0226 43.1727C78.8648 43.4117 78.651 43.6084 78.3998 43.7459C77.8158 44.0434 77.1697 44.1986 76.5142 44.1986C75.8587 44.1986 75.2126 44.0434 74.6286 43.7459C74.3756 43.6094 74.1604 43.4125 74.002 43.1727C74.1606 42.9341 74.3759 42.7385 74.6286 42.6034Z" fill="#D4D4D4"/>
<path d="M78.1669 43.1727C78.6997 42.632 79.1584 42.023 79.531 41.3616C80.1576 40.2459 80.2761 38.7558 79.9513 38.5724C79.6265 38.389 78.2968 39.8753 78.2968 39.8753C78.4189 39.2462 78.4663 38.605 78.4382 37.9648C78.3809 36.9752 78.1402 36.0735 77.8574 35.8901C77.5747 35.7067 76.9366 36.9599 76.6653 37.8655C76.394 38.771 76.2297 39.5199 76.2297 39.5199C76.1197 38.8132 75.9562 38.1157 75.7406 37.4337C75.4082 36.4899 75.1102 36.2874 74.8771 36.3715C74.644 36.4556 74.495 36.9026 74.4224 38.1559C74.3989 38.7551 74.418 39.3552 74.4797 39.9517C74.4797 39.9517 74.0098 39.4397 73.4939 38.9392C72.9781 38.4386 72.6801 38.3164 72.5158 38.4233C72.3515 38.5303 72.3095 39.3786 73.1921 40.9757C73.6294 41.7882 74.1915 42.527 74.858 43.1651C74.858 43.1651 76.0807 43.9637 78.1669 43.1727Z" fill="#EC4899"/>
<path d="M35.472 111.036C38.758 107.643 40.6914 93.842 37.4818 91.1406H21.1626C17.953 93.8153 19.8826 107.639 23.1724 111.032C23.1997 111.066 23.2291 111.098 23.2603 111.128L23.3749 111.239C23.4666 111.33 23.566 111.418 23.673 111.506C23.6967 111.529 23.7223 111.549 23.7494 111.567C23.8296 111.632 23.9099 111.697 23.9977 111.758C24.0856 111.819 24.2805 111.953 24.4219 112.033C27.1271 113.611 31.5135 113.611 34.2187 112.033C34.3665 111.949 34.5094 111.855 34.6467 111.755C34.7269 111.697 34.7995 111.64 34.8759 111.579L34.9714 111.502C35.0746 111.418 35.1701 111.33 35.258 111.246L35.3918 111.116L35.472 111.036Z" fill="#262626"/>
<path d="M22.5802 90.0746C18.8548 92.2487 18.8548 95.7754 22.5802 97.9495C26.3056 100.124 32.3427 100.124 36.0642 97.9495C39.7858 95.7754 39.7896 92.2487 36.0642 90.0746C32.3388 87.9005 26.3018 87.8814 22.5802 90.0746Z" fill="#404040"/>
<path d="M24.3683 91.1024C21.6363 92.6995 21.6363 95.2863 24.3683 96.8835C27.1003 98.4806 31.5402 98.4806 34.2721 96.8835C37.0041 95.2863 37.0079 92.6995 34.2721 91.1024C31.5364 89.5053 27.1041 89.5053 24.3683 91.1024Z" fill="#0A0A0A"/>
<path d="M34.2721 93.8458C31.5401 92.2487 27.1041 92.2487 24.3683 93.8458C23.7053 94.2123 23.1434 94.7374 22.7329 95.3742C23.1425 96.0116 23.7046 96.5369 24.3683 96.9026C27.1041 98.4997 31.5401 98.4997 34.2721 96.9026C34.9376 96.538 35.5011 96.0125 35.9113 95.3742C35.5008 94.736 34.9374 94.2107 34.2721 93.8458Z" fill="#FAFAFA"/>
<path d="M28.1014 94.8011C27.9868 94.8431 27.1233 94.9348 27.0048 94.9424C25.6331 94.9997 23.9481 94.3196 22.4426 93.6548C21.4492 93.2154 20.1081 92.6155 19.47 91.5877C19.2997 91.3458 19.1966 91.0632 19.1711 90.7685C19.1456 90.4739 19.1986 90.1778 19.3248 89.9103C19.6419 89.4097 20.3602 89.2684 20.5016 88.6646C19.447 87.9654 18.0944 87.9272 17.1965 86.9834C16.5489 86.2492 16.1212 85.3474 15.9624 84.3814C15.8401 83.8044 15.8401 83.0211 16.1419 82.5741C16.4973 82.0468 17.2309 82.0927 17.8537 82.1576C18.0153 82.1872 18.1816 82.178 18.339 82.1309C18.4172 82.102 18.4847 82.05 18.5325 81.9817C18.5803 81.9134 18.6061 81.8321 18.6064 81.7488C18.5849 81.6408 18.5394 81.5391 18.4733 81.4511C18.4072 81.3632 18.3221 81.2912 18.2243 81.2406C17.8422 80.9922 17.4258 80.7935 17.0513 80.5184C16.6511 80.2526 16.3428 79.8696 16.1687 79.4218C16.0274 78.8721 16.042 78.294 16.2107 77.7521C16.4137 76.8403 16.6688 75.9409 16.9749 75.0583C17.2048 74.2818 17.3873 73.4919 17.5213 72.6932C19.703 72.7505 21.9497 73.5529 23.9825 74.6036C25.1288 75.1844 26.7297 76.239 27.0583 77.7062C27.1377 78.1153 27.1246 78.537 27.0201 78.9404C26.9661 79.1158 26.9023 79.288 26.8291 79.4562C26.787 79.5632 26.6227 79.9759 26.9017 79.8383C26.9619 79.8017 27.0118 79.7504 27.0469 79.6893L28.1282 78.1189C28.2147 77.9563 28.3477 77.8233 28.5103 77.7368C28.8924 77.6031 29.733 78.0157 30.5545 79.0741C31.0783 79.8143 31.3708 80.6933 31.3951 81.5998C31.4791 83.0173 31.0741 84.3585 30.6729 85.6576L31.6473 84.6603C32.7935 83.4911 32.996 86.2384 32.954 86.8115C32.847 88.3131 32.2471 90.5254 31.4906 91.7176C30.608 93.0931 29.5725 94.2508 28.1014 94.8011Z" fill="#EC4899"/>
<path opacity="0.3" d="M28.1014 94.8011C27.9868 94.8431 27.1233 94.9348 27.0048 94.9424C25.6331 94.9997 23.9481 94.3196 22.4426 93.6548C21.4492 93.2154 20.1081 92.6155 19.47 91.5877C19.2997 91.3458 19.1966 91.0632 19.1711 90.7685C19.1456 90.4739 19.1986 90.1778 19.3248 89.9103C19.6419 89.4097 20.3602 89.2684 20.5016 88.6646C19.447 87.9654 18.0944 87.9272 17.1965 86.9834C16.5489 86.2492 16.1212 85.3474 15.9624 84.3814C15.8401 83.8044 15.8401 83.0211 16.1419 82.5741C16.4973 82.0468 17.2309 82.0927 17.8537 82.1576C18.0153 82.1872 18.1816 82.178 18.339 82.1309C18.4172 82.102 18.4847 82.05 18.5325 81.9817C18.5803 81.9134 18.6061 81.8321 18.6064 81.7488C18.5849 81.6408 18.5394 81.5391 18.4733 81.4511C18.4072 81.3632 18.3221 81.2912 18.2243 81.2406C17.8422 80.9922 17.4258 80.7935 17.0513 80.5184C16.6511 80.2526 16.3428 79.8696 16.1687 79.4218C16.0274 78.8721 16.042 78.294 16.2107 77.7521C16.4137 76.8403 16.6688 75.9409 16.9749 75.0583C17.2048 74.2818 17.3873 73.4919 17.5213 72.6932C19.703 72.7505 21.9497 73.5529 23.9825 74.6036C25.1288 75.1844 26.7297 76.239 27.0583 77.7062C27.1377 78.1153 27.1246 78.537 27.0201 78.9404C26.9661 79.1158 26.9023 79.288 26.8291 79.4562C26.787 79.5632 26.6227 79.9759 26.9017 79.8383C26.9619 79.8017 27.0118 79.7504 27.0469 79.6893L28.1282 78.1189C28.2147 77.9563 28.3477 77.8233 28.5103 77.7368C28.8924 77.6031 29.733 78.0157 30.5545 79.0741C31.0783 79.8143 31.3708 80.6933 31.3951 81.5998C31.4791 83.0173 31.0741 84.3585 30.6729 85.6576L31.6473 84.6603C32.7935 83.4911 32.996 86.2384 32.954 86.8115C32.847 88.3131 32.2471 90.5254 31.4906 91.7176C30.608 93.0931 29.5725 94.2508 28.1014 94.8011Z" fill="#FAFAFA"/>
<path d="M26.5423 87.442C26.9198 85.2361 27.7796 83.1408 29.0603 81.3056L29.0871 81.2635C29.1112 81.2231 29.1199 81.1752 29.1114 81.1288C29.103 81.0825 29.078 81.0407 29.0412 81.0113C29.0257 80.996 29.0069 80.9844 28.9863 80.9773C28.9657 80.9702 28.9437 80.9679 28.922 80.9704C28.9004 80.973 28.8796 80.9804 28.8612 80.9921C28.8428 81.0039 28.8273 81.0196 28.8158 81.0381L28.789 81.0801C27.5935 82.8071 26.7555 84.7558 26.3245 86.8115C24.4141 81.4622 21.3191 75.9906 19.5118 74.298C19.4968 74.2809 19.4782 74.2672 19.4575 74.2579C19.4367 74.2485 19.4142 74.2437 19.3915 74.2437C19.3687 74.2437 19.3462 74.2485 19.3254 74.2579C19.3047 74.2672 19.2862 74.2809 19.2711 74.298C19.242 74.3398 19.2291 74.3907 19.2347 74.4413C19.2403 74.4919 19.2641 74.5387 19.3017 74.5731C21.0822 76.2428 24.1542 81.6303 26.015 86.9223C24.221 85.4708 21.9719 84.6995 19.6646 84.7444C19.643 84.748 19.6223 84.756 19.6039 84.7679C19.5854 84.7798 19.5696 84.7954 19.5575 84.8137C19.5453 84.8319 19.537 84.8525 19.5331 84.8741C19.5292 84.8957 19.5297 84.9179 19.5347 84.9393C19.5387 84.9766 19.5529 85.012 19.5759 85.0417C19.5988 85.0714 19.6295 85.0941 19.6646 85.1074C19.6911 85.1128 19.7184 85.1128 19.7449 85.1074C19.7793 85.1074 23.0729 84.8284 26.2405 87.526C27.0811 90.0364 27.6275 92.4932 27.6084 94.4839C27.6079 94.5174 27.6148 94.5505 27.6287 94.5808C27.6426 94.6112 27.663 94.6382 27.6886 94.6597C27.7125 94.6726 27.7383 94.6816 27.765 94.6864C27.7884 94.6875 27.8117 94.6837 27.8335 94.6753C27.8554 94.6668 27.8752 94.6539 27.8917 94.6374C27.9083 94.6208 27.9212 94.601 27.9296 94.5792C27.9381 94.5574 27.9419 94.534 27.9408 94.5107C27.9637 92.4932 27.4058 89.9943 26.5423 87.442Z" fill="#FAFAFA"/>
<path d="M28.835 96.0734C28.9344 96.1155 29.71 96.253 29.817 96.2683C31.0473 96.4173 32.5489 95.9894 33.8977 95.5576C34.788 95.2749 35.9878 94.8851 36.5724 94.098C36.7236 93.9095 36.8155 93.6804 36.8366 93.4397C36.8577 93.1989 36.807 92.9573 36.6908 92.7454C36.4043 92.3136 35.7585 92.1493 35.6286 91.645C36.5686 91.1559 37.7836 91.2247 38.5822 90.5254C39.154 89.9864 39.5371 89.2778 39.675 88.5042C39.8129 88.0065 39.7512 87.4746 39.503 87.0217C39.1821 86.567 38.5249 86.5479 37.9747 86.5555C37.8271 86.5655 37.679 86.546 37.5391 86.4982C37.4709 86.4711 37.412 86.4251 37.3693 86.3654C37.3266 86.3058 37.302 86.2352 37.2984 86.1619C37.2984 85.9785 37.4818 85.8601 37.6422 85.7799C37.9899 85.6079 38.3568 85.4742 38.693 85.2793C39.0389 85.0994 39.3147 84.8088 39.4763 84.454C39.5978 84.006 39.5805 83.5317 39.4266 83.0937C39.2419 82.3327 39.011 81.5837 38.735 80.8508C38.524 80.208 38.3555 79.5519 38.2307 78.8869C36.2502 78.8333 34.2806 79.1965 32.4496 79.9529C31.4332 80.335 29.9889 81.0763 29.7062 82.2455C29.6379 82.5789 29.6523 82.9239 29.7482 83.2504C29.7972 83.398 29.8559 83.5423 29.924 83.6822C29.9584 83.7739 30.1112 84.1216 29.859 83.9917C29.8054 83.9571 29.7598 83.9115 29.7253 83.8579L28.7509 82.5015C28.6645 82.3588 28.5419 82.2415 28.3956 82.1614C28.067 82.0239 27.299 82.2952 26.5692 83.0976C26.0875 83.6508 25.8086 84.3515 25.7783 85.0844C25.7133 86.2307 26.0839 87.3502 26.4507 88.4354L25.5719 87.5528C24.5441 86.5211 24.3722 88.7372 24.4257 89.2034C24.5791 90.6496 25.0403 92.0463 25.7783 93.2994C26.5654 94.4954 27.5015 95.5156 28.835 96.0734Z" fill="#EC4899"/>
<path opacity="0.5" d="M28.835 96.0734C28.9344 96.1155 29.71 96.253 29.817 96.2683C31.0473 96.4173 32.5489 95.9894 33.8977 95.5576C34.788 95.2749 35.9878 94.8851 36.5724 94.098C36.7236 93.9095 36.8155 93.6804 36.8366 93.4397C36.8577 93.1989 36.807 92.9573 36.6908 92.7454C36.4043 92.3136 35.7585 92.1493 35.6286 91.645C36.5686 91.1559 37.7836 91.2247 38.5822 90.5254C39.154 89.9864 39.5371 89.2778 39.675 88.5042C39.8129 88.0065 39.7512 87.4746 39.503 87.0217C39.1821 86.567 38.5249 86.5479 37.9747 86.5555C37.8271 86.5655 37.679 86.546 37.5391 86.4982C37.4709 86.4711 37.412 86.4251 37.3693 86.3654C37.3266 86.3058 37.302 86.2352 37.2984 86.1619C37.2984 85.9785 37.4818 85.8601 37.6422 85.7799C37.9899 85.6079 38.3568 85.4742 38.693 85.2793C39.0389 85.0994 39.3147 84.8088 39.4763 84.454C39.5978 84.006 39.5805 83.5317 39.4266 83.0937C39.2419 82.3327 39.011 81.5837 38.735 80.8508C38.524 80.208 38.3555 79.5519 38.2307 78.8869C36.2502 78.8333 34.2806 79.1965 32.4496 79.9529C31.4332 80.335 29.9889 81.0763 29.7062 82.2455C29.6379 82.5789 29.6523 82.9239 29.7482 83.2504C29.7972 83.398 29.8559 83.5423 29.924 83.6822C29.9584 83.7739 30.1112 84.1216 29.859 83.9917C29.8054 83.9571 29.7598 83.9115 29.7253 83.8579L28.7509 82.5015C28.6645 82.3588 28.5419 82.2415 28.3956 82.1614C28.067 82.0239 27.299 82.2952 26.5692 83.0976C26.0875 83.6508 25.8086 84.3515 25.7783 85.0844C25.7133 86.2307 26.0839 87.3502 26.4507 88.4354L25.5719 87.5528C24.5441 86.5211 24.3722 88.7372 24.4257 89.2034C24.5791 90.6496 25.0403 92.0463 25.7783 93.2994C26.5654 94.4954 27.5015 95.5156 28.835 96.0734Z" fill="#FAFAFA"/>
<path d="M30.1723 90.2045C29.7979 88.3335 29.0151 86.5683 27.8797 85.0348L27.853 84.9966C27.8312 84.9646 27.823 84.9254 27.8302 84.8874C27.8373 84.8494 27.8593 84.8158 27.8912 84.7941C27.9231 84.7723 27.9624 84.7641 28.0004 84.7712C28.0384 84.7784 28.0719 84.8003 28.0937 84.8323L28.1205 84.8705C29.179 86.314 29.9413 87.9529 30.3633 89.6925C32.0293 85.4895 34.788 81.2864 36.3966 80.0294C36.4292 80.0044 36.4702 79.9932 36.511 79.9982C36.5517 80.0032 36.5888 80.024 36.6144 80.0561C36.6273 80.0724 36.6369 80.091 36.6426 80.111C36.6483 80.131 36.6499 80.1519 36.6474 80.1725C36.6449 80.1931 36.6384 80.2131 36.6281 80.2311C36.6178 80.2492 36.6041 80.265 36.5876 80.2777C35.002 81.5004 32.2776 85.6538 30.6385 89.83C32.3324 88.7733 34.3306 88.3121 36.3164 88.5195C36.3492 88.5239 36.3795 88.5394 36.4023 88.5635C36.425 88.5875 36.4389 88.6186 36.4416 88.6516C36.4443 88.6846 36.4356 88.7175 36.417 88.7449C36.3984 88.7723 36.371 88.7925 36.3393 88.8022C36.3154 88.808 36.2905 88.808 36.2667 88.8022C34.2164 88.5854 32.1564 89.1129 30.4627 90.2886C29.7214 92.264 29.2476 94.2203 29.2744 95.8365C29.2747 95.8661 29.2671 95.8951 29.2523 95.9207C29.2375 95.9462 29.2161 95.9673 29.1903 95.9817C29.1675 95.9853 29.1443 95.9853 29.1215 95.9817C29.1012 95.9822 29.0809 95.9787 29.0619 95.9712C29.0429 95.9638 29.0256 95.9526 29.011 95.9383C28.9964 95.9241 28.9848 95.9071 28.9769 95.8883C28.969 95.8695 28.9649 95.8493 28.9649 95.8289C28.9343 94.205 29.4196 92.2143 30.1723 90.2045Z" fill="#FAFAFA"/>
<path d="M116.85 53.6879C122.692 57.0618 131.144 65.0361 131.144 79.4257C131.144 93.8153 124.343 104.518 111.321 109.298C104.355 111.854 93.1868 111.972 86.0111 109.424C78.6979 105.683 73.7841 101.832 71.0866 94.8431C68.3202 86.7351 73.2683 78.245 79.9893 73.3886C86.7103 68.5322 85.9156 63.0071 90.6879 57.2681C93.2441 54.1808 97.0077 51.5367 101.6 51.0285C106.594 50.4707 112.406 51.1202 116.85 53.6879Z" fill="#EC4899"/>
<path opacity="0.8" d="M116.85 53.6879C122.692 57.0618 131.144 65.0361 131.144 79.4257C131.144 93.8153 124.343 104.518 111.321 109.298C104.355 111.854 93.1868 111.972 86.0111 109.424C78.6979 105.683 73.7841 101.832 71.0866 94.8431C68.3202 86.7351 73.2683 78.245 79.9893 73.3886C86.7103 68.5322 85.9156 63.0071 90.6879 57.2681C93.2441 54.1808 97.0077 51.5367 101.6 51.0285C106.594 50.4707 112.406 51.1202 116.85 53.6879Z" fill="#FAFAFA"/>
<path opacity="0.15" d="M89.1367 110.325C97.4778 111.304 106.197 109.252 113.04 104.594C123.521 97.4642 128.057 86.1619 125.814 72.7696C123.831 60.9247 117.92 54.4291 111.982 51.7316C113.298 52.078 114.578 52.5514 115.803 53.1453C120.61 56.6529 124.885 62.8887 126.521 72.632C128.813 86.3186 124.171 97.8731 113.442 105.171C108.127 108.724 101.964 110.801 95.5826 111.189C93.4141 111.076 91.2584 110.787 89.1367 110.325Z" fill="#EC4899"/>
<path opacity="0.15" d="M84.0778 77.7445C88.4108 75.3488 89.2514 72.7276 93.015 62.9575C96.7786 53.1874 103.633 53.9286 103.633 53.9286C103.633 53.9286 113.705 54.2687 116.112 61.4482C117.771 66.4154 117.74 76.1741 116.17 81.4431C115.23 84.5992 113.946 86.0932 113.946 86.0932C118.894 85.1189 122.841 88.4584 122.841 88.4584C122.841 88.4584 119.127 87.0714 112.272 89.8224C108.211 91.4501 104.65 93.5211 100.359 95.6684C96.9391 97.3764 94.8147 98.8169 94.4555 99.5696C93.0838 102.451 92.5221 106.581 90.7874 110.65C89.0708 110.378 87.3878 109.925 85.7667 109.298C81.4032 107.047 77.9032 104.743 75.2324 101.732C75.1483 100.758 75.2095 99.7568 75.1827 98.7825C75.0872 95.187 75.0414 91.5839 75.2324 87.9922C75.6718 79.7352 79.7449 80.1402 84.0778 77.7445Z" fill="#EC4899"/>
<path d="M83.3594 109.852L83.2065 117.325C83.3017 117.903 83.5689 118.437 83.9732 118.86C84.3775 119.283 84.9 119.574 85.4723 119.694C87.4783 120.107 87.7649 117.601 87.7649 117.601L89.343 108.812L83.3594 109.852Z" fill="#FCA5A5"/>
<path d="M88.2768 121.448C88.2777 121.74 88.2259 122.03 88.1239 122.304C87.9711 122.648 87.0464 123.068 86.5383 123.317C86.1815 123.452 85.8552 123.656 85.5783 123.919C85.3015 124.181 85.0797 124.496 84.9258 124.845C84.3436 126.001 83.3894 126.927 82.2168 127.474C80.6705 128.11 78.967 128.259 77.3336 127.902C75.2971 127.52 75.1519 126.297 75.1519 126.297C75.1519 126.297 75.0602 125.151 75.5722 124.994C76.0842 124.837 88.2768 121.448 88.2768 121.448Z" fill="#0A0A0A"/>
<path d="M87.8647 117.054C88.0175 117.081 88.0366 117.257 88.0596 117.776C88.0825 118.296 88.2735 118.949 88.3308 119.446C88.4468 120.16 88.4326 120.889 88.2888 121.597C87.708 122.572 86.5159 122.403 85.3773 123.424C84.3303 124.36 83.2987 126.584 80.6202 127.073C77.9418 127.562 75.9243 126.691 75.4429 125.926C74.9614 125.162 75.4238 124.451 77.1508 123.554C78.9849 122.602 81.4226 119.714 81.4226 119.714C81.7168 119.331 82.0149 118.949 82.29 118.514C82.4222 118.286 82.5249 118.042 82.5956 117.788L82.8822 116.936C82.9242 116.806 82.9854 116.657 83.1153 116.619C83.1745 116.608 83.235 116.61 83.2935 116.624C83.3519 116.638 83.407 116.663 83.4553 116.699C84.2183 117.117 85.0327 117.435 85.8778 117.643C85.9777 117.658 86.0701 117.705 86.1415 117.776C86.1701 117.84 86.185 117.909 86.185 117.979C86.185 118.049 86.1701 118.118 86.1415 118.181C86.1033 118.361 86.0917 118.545 86.1071 118.728C86.1071 118.808 86.1415 118.907 86.2217 118.923C86.3019 118.938 86.3593 118.858 86.3975 118.789L86.7796 118.109C86.9086 117.875 87.1175 117.696 87.368 117.604C87.5139 117.536 87.6533 117.454 87.7845 117.36L87.8647 117.054Z" fill="#404040"/>
<path d="M82.3698 126.461C82.345 125.843 82.1518 125.243 81.8111 124.727C81.4703 124.21 80.995 123.797 80.4364 123.531C78.438 122.472 77.2077 123.114 76.5811 123.55C75.8398 124.066 74.7738 125.151 75.3966 125.965C76.0729 126.84 77.1695 127.267 79.2175 127.325C81.2655 127.382 82.3698 126.461 82.3698 126.461Z" fill="#FAFAFA"/>
<path d="M85.2166 120.26C85.1804 120.258 85.1451 120.249 85.1133 120.232C85.0815 120.214 85.0541 120.19 85.0332 120.161C84.8115 119.836 83.3634 118.632 81.942 118.995C81.8732 118.831 81.9955 118.663 82.2897 118.495C83.7761 118.384 85.1516 119.526 85.4191 119.916C85.4358 119.94 85.4475 119.967 85.4533 119.996C85.4591 120.025 85.459 120.054 85.4529 120.083C85.4468 120.112 85.4349 120.139 85.4179 120.163C85.4009 120.186 85.3792 120.207 85.3541 120.222C85.3127 120.247 85.2651 120.26 85.2166 120.26Z" fill="#FAFAFA"/>
<path d="M81.1128 120.05C81.1378 119.942 81.188 119.842 81.259 119.758C81.3301 119.674 81.4201 119.607 81.5216 119.564C82.084 119.594 82.6347 119.737 83.1413 119.983C83.6479 120.229 84.1001 120.574 84.4714 120.997C84.4876 121.022 84.4988 121.049 84.5044 121.077C84.5099 121.106 84.5096 121.135 84.5035 121.164C84.4975 121.192 84.4858 121.219 84.4691 121.243C84.4524 121.267 84.4311 121.287 84.4064 121.303C84.3643 121.329 84.3147 121.342 84.2651 121.337C84.2296 121.337 84.1947 121.329 84.1634 121.312C84.1321 121.295 84.1054 121.271 84.0855 121.242C83.8677 120.929 82.4921 119.778 81.1128 120.05Z" fill="#FAFAFA"/>
<path d="M78.8584 122.308C78.9975 122.044 79.2246 121.837 79.5003 121.723C80.9637 121.651 82.3049 122.766 82.5571 123.149C82.5734 123.173 82.5847 123.201 82.5902 123.229C82.5958 123.258 82.5956 123.288 82.5895 123.317C82.5835 123.346 82.5717 123.373 82.555 123.397C82.5383 123.421 82.5169 123.442 82.4921 123.458C82.4403 123.49 82.3784 123.501 82.3189 123.489C82.2594 123.476 82.2066 123.442 82.1711 123.393C81.9495 123.053 80.3486 121.723 78.8584 122.308Z" fill="#FAFAFA"/>
<path d="M83.3173 122.415C83.2816 122.413 83.2467 122.404 83.215 122.387C83.1833 122.371 83.1556 122.348 83.1339 122.319C82.9123 121.998 81.4947 120.81 80.0771 121.143C80.1166 121.027 80.1818 120.922 80.2679 120.835C80.3539 120.748 80.4586 120.682 80.5739 120.642C81.1358 120.671 81.6861 120.813 82.1922 121.06C82.6982 121.306 83.1497 121.651 83.5198 122.075C83.5366 122.099 83.5482 122.126 83.554 122.155C83.5599 122.183 83.5597 122.213 83.5536 122.242C83.5475 122.27 83.5356 122.297 83.5186 122.321C83.5016 122.345 83.4799 122.365 83.4548 122.38C83.4139 122.406 83.3657 122.419 83.3173 122.415Z" fill="#FAFAFA"/>
<path d="M72.3742 103.467L71.7476 110.918C71.8055 111.499 72.038 112.05 72.4143 112.497C72.7907 112.945 73.2935 113.268 73.8567 113.424C75.8321 113.967 76.2792 111.479 76.2792 111.479L78.4151 102.81L72.3742 103.467Z" fill="#FCA5A5"/>
<path d="M76.5429 115.354C76.5241 115.645 76.4543 115.931 76.3366 116.198C76.1608 116.531 75.2094 116.901 74.6897 117.108C74.3255 117.219 73.9869 117.402 73.6938 117.645C73.4006 117.889 73.1586 118.188 72.9818 118.525C72.3274 119.641 71.3167 120.503 70.1123 120.974C68.5278 121.51 66.8178 121.55 65.21 121.089C63.2078 120.562 63.1353 119.351 63.1353 119.351C63.1353 119.351 63.1353 118.204 63.6396 118.078C64.144 117.952 76.5429 115.354 76.5429 115.354Z" fill="#0A0A0A"/>
<path d="M76.4092 110.944C76.5658 110.979 76.5697 111.155 76.5582 111.674C76.5467 112.194 76.6996 112.859 76.7263 113.359C76.7967 114.08 76.7359 114.808 76.5467 115.507C75.901 116.439 74.7241 116.194 73.5244 117.142C72.4201 118.009 71.2318 120.164 68.5572 120.482C65.8825 120.799 63.8995 119.79 63.4677 118.991C63.0359 118.193 63.5403 117.516 65.3208 116.733C67.2313 115.896 69.8295 113.172 69.8295 113.172C70.1505 112.79 70.4715 112.431 70.7695 112.026C70.9167 111.806 71.0349 111.569 71.121 111.319C71.2356 111.044 71.3503 110.765 71.4611 110.486C71.5146 110.36 71.5833 110.219 71.7171 110.184C71.8376 110.175 71.9569 110.213 72.0495 110.291C72.7857 110.755 73.5779 111.124 74.407 111.388C74.5067 111.405 74.5973 111.456 74.663 111.533C74.6912 111.597 74.7058 111.666 74.7058 111.735C74.7058 111.805 74.6912 111.874 74.663 111.938C74.6139 112.114 74.5907 112.297 74.5942 112.481C74.5942 112.565 74.6172 112.664 74.6974 112.683C74.7776 112.702 74.8388 112.626 74.8808 112.561C75.0222 112.343 75.1635 112.125 75.3087 111.907C75.4528 111.683 75.6723 111.518 75.9277 111.441C76.0789 111.384 76.2237 111.311 76.3595 111.223L76.4092 110.944Z" fill="#404040"/>
<path d="M70.3186 119.981C70.3353 119.361 70.1818 118.748 69.8746 118.209C69.5674 117.67 69.1183 117.226 68.5762 116.924C66.6658 115.736 65.3781 116.301 64.7286 116.695C63.9644 117.161 62.8181 118.177 63.3912 119.026C64.0102 119.943 65.0763 120.443 67.1243 120.631C69.1723 120.818 70.3186 119.981 70.3186 119.981Z" fill="#FAFAFA"/>
<path d="M73.5816 113.975C73.5467 113.971 73.5131 113.959 73.4834 113.941C73.4536 113.922 73.4284 113.897 73.4096 113.868C73.2071 113.531 71.8392 112.225 70.3987 112.507C70.3376 112.339 70.4713 112.179 70.7808 112.03C72.2748 112.03 73.5739 113.241 73.8185 113.646C73.8473 113.697 73.8547 113.758 73.8389 113.814C73.8232 113.871 73.7856 113.919 73.7344 113.948C73.6878 113.973 73.6341 113.983 73.5816 113.975Z" fill="#FAFAFA"/>
<path d="M69.4858 113.505C69.5163 113.398 69.5722 113.301 69.6487 113.221C69.7253 113.141 69.8202 113.081 69.9252 113.046C70.484 113.112 71.024 113.289 71.5135 113.567C72.003 113.844 72.4321 114.217 72.7757 114.662C72.8045 114.713 72.8119 114.774 72.7961 114.831C72.7804 114.887 72.7428 114.935 72.6916 114.964C72.6465 114.986 72.5963 114.995 72.5464 114.991C72.5111 114.987 72.4772 114.975 72.4474 114.956C72.4175 114.936 72.3926 114.911 72.3745 114.88C72.1758 114.555 70.8805 113.317 69.4858 113.505Z" fill="#FAFAFA"/>
<path d="M67.0859 115.614C67.2426 115.359 67.4831 115.167 67.7661 115.071C69.2295 115.09 70.498 116.29 70.7387 116.687C70.7541 116.712 70.7641 116.74 70.7682 116.769C70.7723 116.799 70.7703 116.828 70.7624 116.857C70.7546 116.885 70.7409 116.911 70.7224 116.934C70.7038 116.957 70.6808 116.976 70.6547 116.989C70.6025 117.02 70.5402 117.029 70.4815 117.014C70.4227 116.999 70.3724 116.961 70.3414 116.909C70.1427 116.554 68.6143 115.121 67.0859 115.614Z" fill="#FAFAFA"/>
<path d="M71.53 116.003C71.4948 115.999 71.4609 115.987 71.431 115.968C71.4012 115.949 71.3762 115.923 71.3581 115.893C71.1556 115.564 69.8297 114.288 68.3931 114.529C68.4356 114.415 68.5045 114.313 68.5942 114.231C68.6839 114.149 68.7918 114.09 68.9089 114.059C69.4674 114.125 70.0071 114.303 70.4965 114.58C70.9858 114.858 71.4151 115.23 71.7593 115.675C71.7882 115.726 71.7955 115.787 71.7798 115.843C71.764 115.9 71.7264 115.948 71.6752 115.977C71.6308 116.001 71.58 116.01 71.53 116.003Z" fill="#FAFAFA"/>
<path d="M102.181 69.2391C102.617 72.2614 102.724 73.9656 101.566 76.9612C100.408 79.9568 97.7911 84.6985 93.4696 86.93C89.8971 88.7793 84.5058 90.5751 83.4665 91.0336C82.1406 91.6144 81.8922 92.0691 81.6286 94.2547C81.2465 97.4375 80.5473 98.8398 79.1985 102.409C78.5871 104.021 77.0053 108.522 77.0053 108.522C75.5954 108.843 73.3181 108.297 71.9502 107.475C71.9502 107.475 73.5129 89.0506 74.5217 86.5097C75.5304 83.9688 84.1733 80.0905 87.1078 78.5277C90.0423 76.965 91.6929 75.983 95.0439 73.8662L102.181 69.2391Z" fill="#262626"/>
<path d="M83.4665 91.0336C82.1407 91.6144 81.8923 92.0691 81.6287 94.2547C81.4133 96.1484 80.9389 98.0036 80.2188 99.7682C80.4327 98.9467 80.918 96.0696 80.9829 95.5652C81.3154 93.2077 81.2466 91.622 81.579 90.854C81.9114 90.086 84.9796 88.6417 84.9796 88.6417L92.6215 82.5932C91.3147 80.9769 91.7694 78.4513 91.7694 78.4513C91.8328 79.3685 92.1115 80.2578 92.5828 81.0471C93.0542 81.8364 93.7049 82.5036 94.4823 82.9944C93.0227 84.0528 86.8633 89.5167 86.401 89.9294C84.9911 90.4566 83.8983 90.8387 83.4665 91.0336Z" fill="#0A0A0A"/>
<path d="M94.4556 78.287C95.0666 79.2524 95.7472 80.1718 96.4921 81.0381L95.8731 81.5271C95.1795 80.558 94.6966 79.4542 94.4556 78.287Z" fill="#262626"/>
<path d="M110.924 80.6331C110.332 84.3891 109.266 86.2537 108.188 87.3808C106.557 89.0812 105.105 90.1052 100.787 92.348C97.2106 94.1974 93.745 96.4785 92.7631 97.0478C91.6397 97.6973 91.334 98.2285 91.2576 99.6919C91.0092 104.609 89.4503 110.115 88.583 114.777C88.583 114.777 85.2167 116.038 83.2337 114.013C83.2337 114.013 82.6147 94.4763 83.6158 91.9354C84.6168 89.3945 96.5076 81.0381 96.5076 81.0381C96.5076 81.0381 95.6784 76.8886 95.0594 73.8662L110.924 80.6331Z" fill="#262626"/>
<path d="M99.7665 54.9221C98.0012 54.7807 95.9723 55.029 94.9292 56.374C93.5384 58.1584 90.7262 65.4067 89.813 69.0213C89.5646 70.0071 94.1459 72.2614 94.1459 72.2614L97.0307 65.7659L99.7665 54.9221Z" fill="#F87171"/>
<path d="M99.4684 54.8648C97.4777 54.7349 96.0869 55.1017 95.1698 55.969C94.2528 56.8364 93.2594 59.0563 92.7283 60.3402C92.1972 61.624 91.0776 64.803 91.0776 64.803C91.0776 64.803 92.4799 66.6829 96.2894 67.2484C97.4127 63.5727 99.4684 54.8648 99.4684 54.8648Z" fill="#EC4899"/>
<path d="M113.296 58.5023C113.464 60.0306 113.426 71.6615 110.648 82.1041C105.807 84.3967 93.9623 80.4382 92.9497 74.5845C92.9497 74.5845 94.5507 72.1621 95.1391 70.3815C95.2728 67.4127 95.6893 62.6403 95.8842 60.898C96.2663 57.4591 97.7946 55.1666 99.4682 54.8533L105.043 54.9335L108.161 55.564C108.161 55.564 113.189 57.547 113.296 58.5023Z" fill="#404040"/>
<path d="M108.937 40.9489C109.375 41.0179 109.789 41.1933 110.144 41.4597C110.498 41.7262 110.782 42.0756 110.97 42.4773C111.382 43.3523 111.05 45.087 110.504 47.3757C110.198 48.852 109.733 50.2907 109.117 51.6666C108.9 52.0577 108.542 52.3505 108.115 52.4843L108.157 49.7714L108.242 47.8839C108.242 47.8839 106.541 48.4112 106.106 45.6601C105.831 43.9254 106.06 43.3676 106.06 43.3676L108.937 40.9489Z" fill="#0A0A0A"/>
<path d="M106.877 43.914C106.881 44.9142 106.588 45.8931 106.036 46.7269C105.483 47.5608 104.696 48.2121 103.774 48.5987C102.851 48.9853 101.835 49.0898 100.853 48.8989C99.8709 48.708 98.9677 48.2304 98.2572 47.5263C97.5468 46.8223 97.061 45.9234 96.8612 44.9433C96.6614 43.9633 96.7567 42.946 97.1349 42.02C97.5131 41.094 98.1574 40.301 98.9862 39.7411C99.815 39.1811 100.791 38.8795 101.791 38.8742C102.456 38.8706 103.116 38.9983 103.731 39.2497C104.347 39.5012 104.907 39.8716 105.379 40.3396C105.851 40.8077 106.227 41.3644 106.484 41.9777C106.741 42.591 106.875 43.249 106.877 43.914Z" fill="#0A0A0A"/>
<path d="M107.607 47.6623C108.119 47.8113 108.371 46.8981 108.753 46.516C108.931 46.3617 109.14 46.248 109.367 46.183C109.593 46.118 109.831 46.1032 110.063 46.1395C110.296 46.1759 110.517 46.2627 110.713 46.3937C110.908 46.5247 111.073 46.6969 111.195 46.8981C112.062 48.094 111.084 50.0504 110.156 50.4898C108.792 51.1355 108.169 49.76 108.169 49.76L108.077 55.8734C108.077 55.8734 107.726 57.0197 105.403 57.868C103.58 58.5252 100.894 57.4859 102.579 55.7168V53.8598C101.706 54.0304 100.811 54.0524 99.931 53.9248C99.0216 53.7605 98.3147 53.0498 97.8868 51.6322C97.0576 48.862 97.2296 45.2016 98.2689 41.8927C99.6559 40.8037 103.141 41.5106 106.079 43.3485C106.167 47.1465 107.026 47.5094 107.607 47.6623Z" fill="#FCA5A5"/>
<path d="M103.385 50.2414L100.966 50.8298C100.997 50.9891 101.06 51.1405 101.15 51.2748C101.241 51.4092 101.359 51.5236 101.495 51.6112C101.632 51.6987 101.785 51.7576 101.945 51.7842C102.105 51.8108 102.268 51.8046 102.426 51.7659C102.75 51.6825 103.03 51.478 103.209 51.1945C103.387 50.911 103.45 50.5699 103.385 50.2414Z" fill="#F87171"/>
<path d="M103.278 51.0667C103.14 50.9465 102.973 50.8647 102.794 50.8295C102.615 50.7943 102.43 50.807 102.257 50.8662C102.084 50.9255 101.93 51.0293 101.81 51.1671C101.69 51.305 101.609 51.472 101.574 51.6513C101.835 51.7951 102.14 51.836 102.43 51.7659C102.614 51.7187 102.785 51.6316 102.932 51.5108C103.078 51.3899 103.196 51.2383 103.278 51.0667Z" fill="#F87171"/>
<path d="M97.1762 38.5723C97.1908 38.5349 97.2152 38.502 97.2468 38.4772C97.2784 38.4523 97.316 38.4363 97.3558 38.4309C97.42 38.4337 97.481 38.4595 97.5278 38.5035C97.8773 38.7798 98.2492 39.0264 98.6396 39.241C98.5321 38.7381 98.5217 38.2193 98.6091 37.7126C98.6626 37.4069 98.7428 36.6962 99.1211 36.616C99.3465 36.5701 99.5452 36.7574 99.7171 36.914C101.246 38.3239 103.225 37.6515 105.066 37.6782C106.595 37.7164 108.452 38.3239 109.155 39.8103C109.476 40.4866 109.537 41.2049 108.914 41.6825C108.026 42.334 107.07 42.8887 106.064 43.337C104.39 43.8414 100.027 44.4833 97.7455 41.6443C97.3547 41.0934 97.0935 40.4612 96.9814 39.795C96.9241 39.374 96.985 38.9454 97.1571 38.557C97.1571 38.557 97.1724 38.5761 97.1762 38.5723Z" fill="#0A0A0A"/>
<path d="M102.548 53.8828C102.548 53.8828 104.841 53.2867 105.766 52.683C106.369 52.2922 106.867 51.7579 107.214 51.1279C107.214 51.1279 106.988 52.4308 106.346 53.1186C105.219 54.3222 102.548 54.6202 102.548 54.6202V53.8828Z" fill="#F87171"/>
<path d="M102.598 47.242C102.602 47.3514 102.639 47.4571 102.703 47.5458C102.767 47.6346 102.856 47.7025 102.958 47.7411C103.061 47.7797 103.172 47.7873 103.279 47.7629C103.386 47.7386 103.483 47.6833 103.559 47.6041C103.634 47.5249 103.685 47.4252 103.704 47.3174C103.724 47.2096 103.711 47.0985 103.667 46.998C103.624 46.8974 103.552 46.8119 103.46 46.752C103.369 46.6921 103.261 46.6605 103.152 46.6612C103.001 46.6652 102.859 46.7285 102.755 46.8373C102.651 46.9462 102.595 47.0916 102.598 47.242Z" fill="#0A0A0A"/>
<path d="M103.103 44.8501L104.321 45.4538C104.399 45.287 104.41 45.0965 104.351 44.922C104.292 44.7476 104.168 44.6028 104.004 44.5177C103.923 44.4788 103.836 44.4565 103.746 44.4522C103.657 44.448 103.567 44.4617 103.483 44.4928C103.399 44.5238 103.322 44.5714 103.256 44.6328C103.191 44.6942 103.139 44.7681 103.103 44.8501Z" fill="#0A0A0A"/>
<path d="M98.0355 45.1023L99.3461 44.7202C99.325 44.6333 99.2864 44.5517 99.2326 44.4802C99.1789 44.4088 99.1112 44.3491 99.0335 44.3047C98.9559 44.2604 98.8701 44.2323 98.7813 44.2223C98.6924 44.2123 98.6025 44.2204 98.517 44.2464C98.3436 44.302 98.1976 44.4212 98.1084 44.5799C98.0191 44.7386 97.9931 44.9252 98.0355 45.1023Z" fill="#0A0A0A"/>
<path d="M98.3907 46.8981C98.3952 47.0075 98.4319 47.1132 98.496 47.2019C98.5601 47.2907 98.649 47.3586 98.7514 47.3972C98.8539 47.4358 98.9655 47.4434 99.0722 47.4191C99.179 47.3947 99.2762 47.3395 99.3518 47.2602C99.4274 47.181 99.4779 47.0813 99.4972 46.9735C99.5165 46.8657 99.5037 46.7546 99.4603 46.6541C99.4169 46.5536 99.3449 46.468 99.2532 46.4081C99.1615 46.3483 99.0543 46.3167 98.9448 46.3173C98.7945 46.3213 98.6518 46.3847 98.548 46.4935C98.4442 46.6023 98.3877 46.7478 98.3907 46.8981Z" fill="#0A0A0A"/>
<path d="M101.035 49.5613L99.1934 48.9729L101.108 45.9085L101.035 49.5613Z" fill="#F87171"/>
<path d="M87.2452 65.72L87.6273 65.4105C87.6848 65.3772 87.7491 65.3575 87.8153 65.3529C87.8815 65.3482 87.9479 65.3588 88.0094 65.3838L92.1016 66.6982C92.3078 66.7768 92.4944 66.8992 92.6487 67.0568C92.8031 67.2144 92.9214 67.4036 92.9957 67.6113L95.5902 76.3498C95.6241 76.4214 95.6351 76.5017 95.6214 76.5798C95.6077 76.6578 95.5701 76.7297 95.5137 76.7854L95.1049 77.1102C95.048 77.1446 94.9838 77.1653 94.9175 77.1706C94.8511 77.1759 94.7845 77.1657 94.7228 77.1407L90.6268 75.8263C90.4214 75.7472 90.2355 75.6247 90.0818 75.467C89.9282 75.3094 89.8104 75.1205 89.7365 74.9131C89.2283 73.1975 87.6503 67.8941 87.1421 66.1747C87.0848 65.9569 87.1268 65.8002 87.2452 65.72Z" fill="#404040"/>
<path d="M92.1631 67.2751C92.372 67.4469 92.5293 67.673 92.6178 67.9285L95.2122 76.6632C95.2433 76.7337 95.2541 76.8115 95.2433 76.8878C95.2325 76.9641 95.2005 77.0358 95.1511 77.0949L95.5331 76.7931C95.5903 76.737 95.6284 76.6645 95.6421 76.5857C95.6558 76.5068 95.6444 76.4257 95.6096 76.3537L93.0151 67.6152C92.9296 67.3776 92.7865 67.165 92.5987 66.9962L92.1631 67.2751Z" fill="#0A0A0A"/>
<path d="M95.2117 76.667L92.6173 67.9132C92.543 67.7055 92.4246 67.5163 92.2703 67.3587C92.1159 67.201 91.9293 67.0787 91.7232 67L87.631 65.6856C87.2489 65.5633 87.0349 65.7735 87.1496 66.1556C87.6577 67.875 89.2358 73.1785 89.744 74.894C89.8178 75.1014 89.9356 75.2903 90.0893 75.4479C90.2429 75.6056 90.4288 75.7281 90.6342 75.8073L94.7303 77.1217C95.1085 77.2592 95.3225 77.0491 95.2117 76.667Z" fill="#262626"/>
<path d="M87.9904 69.0022C87.2682 68.7959 86.8441 69.5677 86.8976 70.9127C86.9511 72.2576 87.7649 74.7336 89.8397 74.1108C90.6459 73.8624 91.2191 72.5136 90.367 71.9214C89.6616 71.4581 88.9992 70.9326 88.3878 70.351L87.9904 69.0022Z" fill="#F87171"/>
<path d="M113.587 77.0834C114.988 73.85 115.92 70.4325 116.353 66.935C117.014 61.261 116.632 59.0028 112.578 57.7419C109.628 60.3707 110.545 66.7325 110.545 66.7325C110.041 69.1091 109.2 73.1517 108.635 74.6571C104.814 74.6571 97.8253 72.5365 97.042 72.12C96.6063 71.7929 96.2313 71.392 95.9339 70.9355C95.6655 70.5398 95.3066 70.2136 94.887 69.9841C94.3521 69.7052 93.9127 69.5409 93.5306 69.3346L94.0693 71.161C94.0273 71.2641 93.7866 71.2909 93.6872 71.3291C92.8765 71.5976 92.0214 71.7065 91.1692 71.6501C89.3925 71.524 87.7304 70.2401 88.0743 71.8182C88.2157 72.4448 88.4793 73.6217 89.4231 74.4126C90.3668 75.2035 93.8286 75.5589 94.8029 75.9944C94.8029 75.9944 103.713 79.7237 107.362 80.1516C111.244 80.5872 111.963 80.4458 113.587 77.0834Z" fill="#FCA5A5"/>
<path d="M112.211 57.4935C114.179 58.059 115.849 58.5405 116.582 61.345C117.316 64.1496 115.852 70.9432 115.852 70.9432C115.852 70.9432 112.177 71.7418 109.659 70.179L110.232 66.7402C110.033 62.7167 110.423 59.4231 112.211 57.4935Z" fill="#EC4899"/>
</svg>
