<svg width="112" height="23" viewBox="0 0 112 23" fill="none" xmlns="http://www.w3.org/2000/svg">
<path d="M6.21681 14.6967C8.28233 11.993 7.93096 7.5766 5.42589 5.51074C4.61273 4.85069 3.71139 4.52119 2.50277 4.52119C2.4368 3.73027 1.47089 3.68617 0.76675 3.99344C0.569548 4.05976 0.481353 4.19205 0.481353 4.433C0.481353 6.30166 0.459128 8.19114 0.459128 10.0817C0.459128 12.3225 0.437256 14.5866 0.437256 16.8271C0.437256 17.333 0.437256 17.8167 0.437256 18.3226C0.437256 18.5194 0.503578 18.6298 0.678556 18.6958C1.00911 19.0253 2.4368 18.9371 2.4368 18.3003C2.4368 17.7726 2.4368 16.5862 2.4368 16.5199C2.70138 16.498 2.94268 16.498 3.18363 16.4758C3.49231 16.4758 3.79958 16.3876 4.10685 16.2789C4.9641 15.9702 5.66683 15.4217 6.21681 14.6967ZM5.35956 9.02617C5.77725 10.608 5.55818 12.3444 4.61273 13.5089C4.26137 13.9707 3.79958 14.3439 3.20586 14.4544C2.96456 14.5203 2.72326 14.4985 2.45867 14.4762C2.4368 14.4103 2.4368 14.6526 2.4368 11.708C2.4368 10.9167 2.4809 6.98252 2.4809 6.56484C3.20586 6.45477 3.77771 6.69713 4.28324 7.15891C4.83181 7.68526 5.16271 8.32343 5.35956 9.02617Z" fill="white"/>
<path d="M8.67778 11.993C8.52503 14.1249 8.61181 18.4545 9.42496 18.4545C10.7214 18.1681 10.9641 18.3004 10.9641 17.7504C10.9641 17.1799 10.92 16.6303 10.986 16.0584C11.3815 12.718 12.9637 10.8066 13.9751 11.708C14.8528 12.4989 15.4688 14.6749 15.1837 16.3008C15.0955 16.8053 15.0514 17.3108 14.9191 17.7945C14.8528 18.058 14.9632 18.2122 15.1615 18.3663C15.4469 18.5857 15.7982 18.6517 16.1718 18.6517C16.3041 18.6517 16.4583 18.6298 16.5892 18.6076C16.7437 18.5857 16.8097 18.4753 16.8538 18.3226C17.0287 17.7063 17.0951 17.0476 17.1833 16.4098C17.5565 13.6853 16.2378 9.59803 13.7105 9.59803C12.3918 9.59803 11.4478 9.99349 10.7655 10.6521L10.8978 9.72891C10.986 9.13624 11.0742 8.52029 11.1832 7.94985C11.3374 7.0926 11.5346 6.25758 11.7992 5.46665C12.0182 4.8066 10.2173 3.77437 9.97459 4.52121C9.62323 5.64163 9.36005 6.80615 9.13957 7.97208C8.89827 9.26854 8.76598 10.5639 8.67778 11.993Z" fill="white"/>
<path d="M27.622 13.8617C28.5671 10.9167 27.7762 7.378 25.2916 5.92844C23.1611 4.6094 20.5015 5.59753 19.0283 7.97208C18.0624 9.53206 17.7329 11.4653 17.9961 13.3117C18.2155 14.6749 18.7874 15.9272 19.7325 16.8494C20.5897 17.6622 21.5997 18.124 22.8084 18.1017C24.1934 18.0372 25.402 17.3549 26.3252 16.2567C26.9189 15.5526 27.3366 14.7394 27.622 13.8617ZM25.5561 13.6853C25.1166 14.8498 24.0829 15.9703 22.9629 16.0803C21.7761 16.2348 20.7869 15.3776 20.3029 14.169C19.7547 12.9604 19.7766 11.3122 20.2602 10.0157C20.5238 9.22444 20.9633 8.54252 21.5997 7.99395C22.3907 7.31203 23.4684 7.1367 24.3256 7.6634C24.9402 8.03664 25.3357 8.58662 25.6002 9.24666C25.7533 9.59803 25.8634 9.9494 25.9297 10.323C26.1266 11.4872 25.9957 12.609 25.5561 13.6853Z" fill="white"/>
<path d="M29.8847 6.08118C29.9065 6.1916 29.9506 7.64116 29.9506 8.49841C29.9506 9.37753 29.9947 10.2567 29.9947 11.1358C29.9947 12.0153 30.0388 12.8722 30.0388 13.7513C30.0388 14.9158 30.0829 16.1025 30.0829 17.2889C30.0829 17.5754 30.0829 17.9049 30.1051 18.1899C30.127 18.4753 30.1933 18.5857 30.4565 18.6739C30.8961 18.8281 31.3134 18.8503 31.7533 18.6517C32.0165 18.5635 32.0825 18.4545 32.0825 18.1681C32.0825 17.333 32.0606 16.498 32.0384 15.6185C32.0165 14.7394 32.0165 13.8176 31.9943 12.9162C31.9724 12.0594 31.9724 11.2462 31.9516 10.3671C31.9297 9.48795 31.9297 8.58661 31.9075 7.66339C31.8856 6.58706 31.9075 6.80614 31.9075 6.1916V6.01521C33.2911 6.01521 36.5225 6.1034 36.852 6.1916C37.0711 6.25757 37.2034 6.08118 37.3357 5.84023C37.5325 5.44477 37.5325 5.00521 37.5325 4.56529C37.5325 4.30071 37.1593 4.16983 36.9621 4.16983C36.5007 4.16983 36.0389 4.03754 32.6324 4.03754H30.962C29.0288 4.03754 27.3147 4.25802 26.6765 4.41113C26.4352 4.49932 26.347 4.56529 26.3029 4.78437C26.2369 5.11386 26.281 5.46664 26.281 5.79613C26.281 5.97111 26.3692 6.43254 26.6765 6.38845C26.9189 6.34576 27.1602 6.34576 27.3792 6.30166C27.9292 6.21347 29.3361 6.1034 29.8847 6.08118ZM39.7307 14.1249C41.0716 11.774 40.2362 8.19114 37.4225 7.79568C35.0493 7.46618 32.7866 10.7625 33.247 13.444C33.357 14.0808 33.5334 14.6307 33.973 15.2012C35.1816 16.7845 37.0711 16.9376 38.5443 15.5967C39.028 15.1571 39.4012 14.6967 39.7307 14.1249ZM38.5221 10.9816C38.8075 12.2121 38.2148 13.9044 37.027 14.4544C36.6534 14.7394 36.0607 14.6967 35.6434 14.3439C34.2584 13.1794 35.1816 10.0598 37.0711 9.66434C37.7752 9.50983 38.3457 10.2348 38.5221 10.9816Z" fill="white"/>
<path d="M78.5667 6.52075C78.8958 7.51029 79.1163 8.47619 79.1163 9.94939C79.1163 10.2567 78.5667 17.9709 78.5667 18.3885C78.5667 18.6739 80.6985 18.6298 80.6322 18.2563C80.5235 17.6403 80.7204 15.773 80.8749 14.8717C80.9631 14.4321 81.0499 13.9926 81.1599 13.553C81.4672 12.3225 81.9071 10.8507 82.5231 9.75113C82.8744 9.15847 83.2699 8.58661 83.7976 8.12483C83.9945 7.94985 84.1931 7.81756 84.4344 7.75159C84.8958 7.66339 85.1812 8.25712 85.3795 9.04805C85.5559 9.70703 85.5986 10.389 85.5986 11.0476C85.5986 11.3344 85.5767 11.6198 85.5559 11.883C85.5559 13.3999 85.0722 15.4436 84.4344 17.0699C84.3462 17.2889 84.3903 17.4431 84.5445 17.5754C84.9399 17.9268 85.3795 18.124 85.9072 18.124C86.1045 18.124 86.1926 18.015 86.2808 17.8386C86.7867 16.7404 87.8408 11.8607 87.4672 9.31157C87.4013 8.8512 87.2908 8.36754 87.1381 7.92798C86.9176 7.31203 86.5881 6.76346 86.1045 6.3239C85.6649 5.94889 85.1812 5.75204 84.5886 5.72982C83.3581 5.72982 82.2585 6.65304 81.4453 7.77346C81.2922 7.97207 81.1599 8.19115 81.0058 8.38941C80.9835 8.16892 80.9408 7.92798 80.8968 7.68526C80.8086 6.96031 80.6322 6.2798 80.3471 5.75204C80.2367 5.55343 80.1485 5.48887 79.9294 5.51074C79.4458 5.55343 78.4358 6.10341 78.5667 6.52075Z" fill="#DA1884"/>
<path d="M98.1472 13.8617C99.0923 10.9167 98.3014 7.378 95.8182 5.92844C93.6863 4.6094 91.0267 5.59753 89.555 7.97208C88.5876 9.53206 88.2581 11.4653 88.5217 13.3117C88.7418 14.6749 89.314 15.9272 90.2577 16.8494C91.1149 17.6622 92.1264 18.124 93.335 18.1017C94.72 18.0372 95.9286 17.3549 96.8504 16.2567C97.4441 15.5526 97.8618 14.7394 98.1472 13.8617ZM96.0813 13.6853C95.6418 14.8498 94.6095 15.9703 93.4895 16.0803C92.3013 16.2348 91.3136 15.3776 90.8295 14.169C90.2799 12.9604 90.3018 11.3122 90.7854 10.0157C91.049 9.22444 91.4885 8.54252 92.1264 7.99395C92.9173 7.31203 93.9936 7.1367 94.8509 7.6634C95.4668 8.03664 95.8623 8.58662 96.1254 9.24666C96.28 9.59803 96.39 9.9494 96.4549 10.323C96.6532 11.4872 96.5209 12.609 96.0813 13.6853Z" fill="#DA1884"/>
<path d="M110.587 16.7845C111.422 14.8939 111.861 11.9271 111.334 9.79522C111.113 8.91575 110.806 8.08072 110.432 7.26792C110.125 6.63116 109.686 6.08118 109.091 5.68571C108.895 5.57565 108.696 5.46664 108.499 5.35657C107.971 5.02708 107.443 5.818 107.289 6.78391C107.289 6.98252 107.554 7.13669 107.729 7.2016C108.74 7.66338 109.465 9.90529 109.553 11.4871C109.73 13.1794 108.718 17.5313 107.706 17.0258C107.289 16.8053 106.96 16.2789 106.719 15.7508C106.389 15.0703 106.08 13.6853 106.016 12.8281C105.971 11.993 106.125 11.0035 106.345 9.94938C106.411 9.70703 106.191 9.46573 106.058 9.42163C105.356 9.02617 104.653 8.78487 104.41 9.35566C104.323 9.59802 104.235 9.83932 104.147 10.1039C103.663 11.4434 102.455 13.2898 101.51 14.0367C101.356 13.4867 101.423 12.543 101.531 11.6858C101.62 11.0698 101.73 10.4771 101.883 9.88342C102.104 8.91575 102.411 7.99394 102.828 7.11482C103.093 6.54296 103.224 6.1916 103.488 5.64162C103.488 5.37844 102.345 4.3889 102.192 4.45522C102.104 4.4771 102.037 4.54342 101.993 4.60939C101.84 4.80659 101.664 5.0052 101.554 5.22428C101.092 6.01521 100.74 6.82801 100.433 7.68526C99.8173 9.44385 99.2468 12.4989 99.4659 13.9707C99.576 14.7394 99.8836 15.5744 100.588 15.9494C101.598 16.498 102.499 15.9272 103.378 15.004C103.641 14.7175 103.906 14.4103 104.169 14.103C104.499 15.5526 104.675 16.3671 105.422 17.5094C106.125 18.5635 107.268 19.3767 108.564 18.9812C109.312 18.8062 110.125 17.8386 110.587 16.7845Z" fill="#DA1884"/>
<path fill-rule="evenodd" clip-rule="evenodd" d="M49.1482 0H53.0369V1.02658H49.1482V0Z" fill="white"/>
<path fill-rule="evenodd" clip-rule="evenodd" d="M72.109 2.75061C73.246 2.75061 74.1622 3.66713 74.1266 4.76815V20.5398C74.1266 21.6394 73.246 22.5559 72.109 22.5559H46.8015C45.7019 22.5559 44.7839 21.6764 44.7839 20.5398V4.76815C44.7839 3.66713 45.6645 2.75061 46.8015 2.75061H72.109ZM46.8015 3.74121C46.2144 3.74121 45.7749 4.21817 45.7749 4.76815V20.5398C45.7749 21.1254 46.2515 21.5664 46.8015 21.5664H72.109C72.6961 21.5664 73.1356 21.0894 73.1356 20.5398V4.76815C73.1356 4.18112 72.659 3.74121 72.109 3.74121H46.8015Z" fill="#DA1884"/>
<path fill-rule="evenodd" clip-rule="evenodd" d="M63.3793 6.16125C59.8211 6.16125 56.8875 9.09637 56.8875 12.6531C56.8875 16.2112 59.8211 19.1452 63.3793 19.1452C66.9374 19.1452 69.8711 16.2112 69.8711 12.6531C69.8711 9.09637 66.9744 6.16125 63.3793 6.16125ZM63.3793 18.1557C60.3725 18.1557 57.8781 15.6972 57.8781 12.6531C57.8781 9.60895 60.3351 7.15186 63.3793 7.15186C66.4234 7.15186 68.8819 9.60895 68.8819 12.6531C68.8819 15.6972 66.4234 18.1557 63.3793 18.1557Z" fill="white"/>
<path fill-rule="evenodd" clip-rule="evenodd" d="M47.938 10.4895H54.3197V6.27133H47.938V10.4895ZM48.9649 7.26228H53.3306V9.46291H48.9649V7.26228Z" fill="white"/>
<path fill-rule="evenodd" clip-rule="evenodd" d="M63.3791 8.39929C61.0324 8.39929 59.0879 10.3064 59.0879 12.6905C59.0879 15.0742 60.995 16.9817 63.3791 16.9817C65.7632 16.9817 67.6703 15.0742 67.6703 12.6905C67.6703 10.3064 65.7632 8.39929 63.3791 8.39929ZM63.3791 15.9177C61.582 15.9177 60.1145 14.4501 60.1145 12.6531C60.1145 10.856 61.582 9.38848 63.3791 9.38848C65.1761 9.38848 66.6437 10.856 66.6437 12.6531C66.6437 14.4501 65.1761 15.9177 63.3791 15.9177Z" fill="white"/>
</svg>
