<svg width="152" height="147" viewBox="0 0 152 147" fill="none" xmlns="http://www.w3.org/2000/svg">
<g clip-path="url(#clip0_199_1646)">
<path d="M136.883 141.858C137.458 141.894 137.777 141.179 137.341 140.762L137.298 140.59C137.304 140.576 137.309 140.563 137.315 140.549C137.897 139.161 139.87 139.17 140.447 140.561C140.959 141.794 141.611 143.03 141.772 144.335C141.844 144.91 141.812 145.497 141.684 146.062C142.884 143.44 143.516 140.577 143.516 137.698C143.516 136.975 143.476 136.251 143.395 135.53C143.329 134.939 143.237 134.353 143.118 133.771C142.476 130.629 141.085 127.637 139.078 125.137C138.114 124.61 137.309 123.786 136.823 122.798C136.649 122.442 136.512 122.058 136.447 121.668C136.557 121.682 136.861 120.011 136.778 119.908C136.931 119.676 137.205 119.56 137.372 119.334C138.203 118.207 139.348 118.404 139.946 119.935C141.222 120.579 141.235 121.648 140.451 122.676C139.953 123.329 139.884 124.214 139.447 124.914C139.492 124.972 139.539 125.028 139.584 125.085C140.409 126.143 141.122 127.281 141.724 128.475C141.554 127.148 141.805 125.548 142.233 124.517C142.72 123.342 143.633 122.352 144.437 121.336C145.402 120.116 147.383 120.649 147.553 122.195C147.554 122.21 147.556 122.225 147.557 122.24C147.438 122.308 147.321 122.379 147.207 122.455C146.555 122.886 146.78 123.896 147.553 124.015L147.57 124.018C147.527 124.448 147.453 124.875 147.345 125.294C148.376 129.282 146.15 130.735 142.971 130.8C142.9 130.836 142.832 130.872 142.762 130.907C143.084 131.814 143.341 132.744 143.532 133.687C143.703 134.52 143.822 135.362 143.888 136.208C143.971 137.275 143.964 138.348 143.874 139.413L143.879 139.375C144.108 138.202 144.745 137.106 145.67 136.347C147.048 135.215 148.994 134.798 150.481 133.888C151.196 133.45 152.113 134.016 151.989 134.846L151.982 134.885C151.761 134.975 151.545 135.08 151.336 135.197C151.217 135.264 151.1 135.336 150.986 135.411C150.334 135.842 150.559 136.853 151.332 136.972L151.349 136.975C151.362 136.976 151.372 136.978 151.385 136.98C151.005 137.881 150.476 138.718 149.814 139.44C149.169 142.922 146.399 143.252 143.437 142.238H143.435C143.111 143.649 142.638 145.027 142.029 146.341H137.009C136.991 146.285 136.975 146.228 136.958 146.172C137.423 146.201 137.89 146.174 138.348 146.089C137.975 145.632 137.603 145.171 137.23 144.714C137.221 144.705 137.214 144.696 137.207 144.687C137.018 144.453 136.827 144.221 136.638 143.987L136.638 143.987C136.626 143.269 136.712 142.553 136.883 141.858L136.883 141.858V141.858Z" fill="#F2F2F2"/>
<path d="M44.5088 146.077C44.5088 146.261 44.6565 146.409 44.8403 146.409H151.629C151.813 146.409 151.961 146.261 151.961 146.077C151.961 145.893 151.813 145.746 151.629 145.746H44.8404C44.6565 145.746 44.5088 145.893 44.5088 146.077Z" fill="#CCCCCC"/>
<path d="M60.7129 146.268H11.559C5.56554 146.268 0.689453 141.392 0.689453 135.398V29.7629C0.689453 23.7695 5.56554 18.8934 11.559 18.8934H60.7129C66.7063 18.8934 71.5824 23.7695 71.5824 29.7629V135.398C71.5824 141.392 66.7063 146.268 60.7129 146.268Z" fill="#3F3D56"/>
<path d="M71.5829 57.7494C71.3293 57.7494 71.123 57.9557 71.123 58.2093V72.9239C71.123 73.1775 71.3293 73.3838 71.5829 73.3838C71.8365 73.3838 72.0427 73.1775 72.0427 72.9239V58.2093C72.0427 57.9556 71.8365 57.7494 71.5829 57.7494Z" fill="#3F3D56"/>
<path d="M70.5482 29.763V135.396C70.5482 140.613 66.4879 144.88 61.3539 145.211H61.3516C61.2757 145.216 61.1998 145.221 61.1216 145.223C60.986 145.23 60.8503 145.232 60.7124 145.232C60.7124 145.232 60.2066 145.195 59.2823 145.126C58.3488 145.057 56.99 144.954 55.2955 144.818C54.7874 144.779 54.2517 144.735 53.6861 144.689C52.5595 144.597 51.3226 144.496 49.9959 144.381C49.4671 144.338 48.9199 144.289 48.3612 144.241C45.5056 143.995 42.3075 143.708 38.9346 143.381C38.3644 143.328 37.7896 143.273 37.2102 143.216C37.0585 143.2 36.9044 143.186 36.7504 143.17C34.3454 142.933 1.72461 136.629 1.72461 135.396V29.763C1.72461 24.33 6.12753 19.9271 11.5605 19.9271H17.4326C18.3706 19.9271 19.1248 20.6583 19.2052 21.594C19.2121 21.6561 19.219 21.7182 19.2305 21.7803C19.4007 22.7206 20.2629 23.3759 21.2193 23.3759H51.0536C52.01 23.3759 52.8722 22.7206 53.0423 21.7803C53.0538 21.7182 53.0607 21.6561 53.0676 21.594C53.1481 20.6583 53.9022 19.9271 54.8403 19.9271H60.7124C66.1453 19.9271 70.5482 24.33 70.5482 29.763Z" fill="white"/>
<path d="M0.459834 46.7134C0.206228 46.7134 0 46.9196 0 47.1732V50.8519C0 51.1055 0.206231 51.3117 0.459834 51.3117C0.713437 51.3117 0.919668 51.1055 0.919668 50.8519V47.1732C0.919668 46.9196 0.713437 46.7134 0.459834 46.7134Z" fill="#3F3D56"/>
<path d="M0.459834 57.7494C0.206228 57.7494 0 57.9557 0 58.2093V65.3367C0 65.5903 0.206231 65.7965 0.459834 65.7965C0.713437 65.7965 0.919668 65.5903 0.919668 65.3367V58.2093C0.919668 57.9556 0.713437 57.7494 0.459834 57.7494Z" fill="#3F3D56"/>
<path d="M0.459834 67.8658C0.206228 67.8658 0 68.072 0 68.3256V75.453C0 75.7066 0.206231 75.9129 0.459834 75.9129C0.713437 75.9129 0.919668 75.7066 0.919668 75.453V68.3256C0.919668 68.072 0.713437 67.8658 0.459834 67.8658Z" fill="#3F3D56"/>
<path d="M17.272 21.5374H8.47803C8.4303 21.5374 8.3916 21.5761 8.3916 21.6239V22.6006C8.3916 22.6483 8.4303 22.687 8.47803 22.687H17.272C17.3197 22.687 17.3584 22.6483 17.3584 22.6006V21.6239C17.3584 21.5761 17.3197 21.5374 17.272 21.5374Z" fill="#E6E6E6"/>
<path d="M56.2927 22.6871C56.8006 22.6871 57.2124 22.2753 57.2124 21.7674C57.2124 21.2595 56.8006 20.8477 56.2927 20.8477C55.7848 20.8477 55.373 21.2595 55.373 21.7674C55.373 22.2753 55.7848 22.6871 56.2927 22.6871Z" fill="#E6E6E6"/>
<path d="M58.822 22.6871C59.3299 22.6871 59.7417 22.2753 59.7417 21.7674C59.7417 21.2595 59.3299 20.8477 58.822 20.8477C58.3141 20.8477 57.9023 21.2595 57.9023 21.7674C57.9023 22.2753 58.3141 22.6871 58.822 22.6871Z" fill="#E6E6E6"/>
<path d="M61.3513 22.6871C61.8592 22.6871 62.271 22.2753 62.271 21.7674C62.271 21.2595 61.8592 20.8477 61.3513 20.8477C60.8434 20.8477 60.4316 21.2595 60.4316 21.7674C60.4316 22.2753 60.8434 22.6871 61.3513 22.6871Z" fill="#E6E6E6"/>
<path d="M55.5243 83.7256H16.5187C15.9042 83.7256 15.4043 83.2257 15.4043 82.6112C15.4043 81.9967 15.9042 81.4967 16.5187 81.4967H55.5243C56.1388 81.4967 56.6387 81.9967 56.6387 82.6112C56.6387 83.2257 56.1388 83.7256 55.5243 83.7256Z" fill="#E6E6E6"/>
<path d="M36.1614 126.91C45.086 126.91 52.3208 119.676 52.3208 110.751C52.3208 101.826 45.086 94.5915 36.1614 94.5915C27.2368 94.5915 20.002 101.826 20.002 110.751C20.002 119.676 27.2368 126.91 36.1614 126.91Z" fill="#8C2667"/>
<path d="M121.776 0.555908H42.1049C39.1822 0.555908 36.8057 2.93245 36.8057 5.85508V60.4517C36.8057 63.3743 39.1822 65.7508 42.1049 65.7508H121.776C124.699 65.7508 127.076 63.3743 127.076 60.4517V5.85508C127.076 2.93245 124.699 0.555908 121.776 0.555908Z" fill="white"/>
<path d="M81.5747 33.0185C86.4987 33.0185 90.4903 29.0268 90.4903 24.1029C90.4903 19.179 86.4987 15.1874 81.5747 15.1874C76.6508 15.1874 72.6592 19.179 72.6592 24.1029C72.6592 29.0268 76.6508 33.0185 81.5747 33.0185Z" fill="#8C2667"/>
<path d="M83.2656 20.1244C82.162 20.1699 80.9196 20.2398 80.0848 21.0611C79.3932 21.7414 79.1514 22.8005 79.7869 23.6015C80.4559 24.4448 81.5685 24.6049 82.4419 25.1438C82.9847 25.4788 83.3444 25.9862 83.3561 26.6384C83.367 27.2489 83.0853 27.8193 82.6142 28.202C81.4585 29.1408 79.8825 28.7522 78.7891 27.9311C78.574 27.7696 78.3655 28.1322 78.5782 28.292C79.4837 28.972 80.6496 29.3669 81.7763 29.0743C82.8135 28.805 83.6489 27.9891 83.7613 26.8989C83.8797 25.7499 83.1253 24.9675 82.1469 24.5186C81.2527 24.1083 79.6843 23.6712 79.8321 22.3966C80.0201 20.776 82.004 20.5943 83.2656 20.5423C83.5335 20.5312 83.5349 20.1133 83.2656 20.1244V20.1244Z" fill="white"/>
<path d="M81.348 19.3665L81.2979 30.8336C81.2967 31.1026 81.7146 31.1029 81.7158 30.8336L81.7659 19.3665C81.767 19.0976 81.3491 19.0972 81.348 19.3665Z" fill="white"/>
<path d="M121.776 0.555908H42.1049C39.1822 0.555908 36.8057 2.93245 36.8057 5.85508V60.4517C36.8057 63.3743 39.1822 65.7508 42.1049 65.7508H121.776C124.699 65.7508 127.076 63.3743 127.076 60.4517V5.85508C127.076 2.93245 124.699 0.555908 121.776 0.555908ZM126.518 60.4517C126.518 63.0678 124.393 65.1936 121.776 65.1936H42.1049C39.4887 65.1936 37.3629 63.0678 37.3629 60.4517V5.85508C37.3629 3.23893 39.4887 1.11313 42.1049 1.11313H121.776C124.393 1.11313 126.518 3.23893 126.518 5.85508V60.4517Z" fill="#3F3D56"/>
<path d="M72.7557 5.94702H64.9379C64.545 5.94702 64.2246 6.26743 64.2246 6.66027C64.2246 7.05589 64.545 7.3763 64.9379 7.3763H72.7557C73.1485 7.3763 73.4689 7.05589 73.4689 6.66027C73.4689 6.26743 73.1485 5.94702 72.7557 5.94702Z" fill="#E6E6E6"/>
<path d="M85.8504 5.94702H78.0326C77.6398 5.94702 77.3193 6.26743 77.3193 6.66027C77.3193 7.05589 77.6398 7.3763 78.0326 7.3763H85.8504C86.2433 7.3763 86.5637 7.05589 86.5637 6.66027C86.5637 6.26743 86.2433 5.94702 85.8504 5.94702Z" fill="#E6E6E6"/>
<path d="M98.9451 5.94702H91.1273C90.7345 5.94702 90.4141 6.26743 90.4141 6.66027C90.4141 7.05589 90.7345 7.3763 91.1273 7.3763H98.9451C99.338 7.3763 99.6584 7.05589 99.6584 6.66027C99.6584 6.26743 99.338 5.94702 98.9451 5.94702Z" fill="#E6E6E6"/>
<path d="M111.838 38.0334H52.0429C49.5549 38.0334 47.5322 40.0562 47.5322 42.5442V46.6175C47.5322 49.1054 49.5549 51.1282 52.0429 51.1282H111.838C114.326 51.1282 116.349 49.1054 116.349 46.6175V42.5442C116.349 40.0562 114.326 38.0334 111.838 38.0334Z" fill="#8C2667"/>
<path d="M30.9421 70.6309H16.4543C15.8398 70.6309 15.3398 70.131 15.3398 69.5165C15.3398 68.902 15.8398 68.402 16.4543 68.402H30.9421C31.5566 68.402 32.0565 68.902 32.0565 69.5165C32.0565 70.131 31.5566 70.6309 30.9421 70.6309Z" fill="#E6E6E6"/>
<path d="M127.319 67.0013L127.173 78.3794L124.342 88.5224L122.079 87.6782L123.084 78.3811L122.952 65.7998L127.319 67.0013Z" fill="#FFB6B6"/>
<path d="M124.333 90.1579C124.598 88.6994 124.111 87.3893 123.245 87.2316C122.379 87.074 121.462 88.1285 121.197 89.587C120.931 91.0454 121.418 92.3556 122.284 92.5133C123.15 92.6709 124.067 91.6164 124.333 90.1579Z" fill="#FFB6B6"/>
<path d="M123.884 53.4533C123.884 53.4533 128.733 53.5201 128.729 56.0964C128.727 57.551 128.415 70.7578 127.545 78.7808C126.875 84.9678 125.595 86.5819 125.595 86.5819L122.53 79.6166L123.884 53.4533Z" fill="#E6E6E6"/>
<path d="M123.759 76.6999H107.38C108.753 73.6364 109.597 70.7189 108.277 68.3982L123.759 67.5008C122.985 70.6336 122.891 73.7081 123.759 76.6999Z" fill="#FFB6B6"/>
<path d="M121.739 49.5513L115.233 49.1026L112.54 52.4681L111.175 52.7163C109.129 53.0883 107.672 54.9142 107.764 56.9918L108.295 69.0592L123.847 70.1932L127.573 54.479L123.086 52.6925L121.739 49.5513V49.5513Z" fill="#E6E6E6"/>
<path d="M82.0595 53.1916C82.5211 53.6068 82.8507 54.092 83.0247 54.5625L87.6723 58.2409L85.8573 60.4012L81.3382 56.4372C80.8519 56.3137 80.3348 56.0372 79.8731 55.6219C78.8185 54.6731 78.453 53.36 79.0568 52.6889C79.6605 52.0178 81.0049 52.2428 82.0595 53.1916L82.0595 53.1916Z" fill="#FFB6B6"/>
<path d="M114.918 56.2883V56.2883L97.1097 68.313L84.3447 59.4297L86.2612 55.9583L96.3079 61.797L105.573 54.6828C108.872 51.5838 113.007 52.1845 114.918 56.2883H114.918Z" fill="#E6E6E6"/>
<path d="M118.101 48.0948C120.767 48.0948 122.928 45.9336 122.928 43.2676C122.928 40.6016 120.767 38.4404 118.101 38.4404C115.435 38.4404 113.273 40.6016 113.273 43.2676C113.273 45.9336 115.435 48.0948 118.101 48.0948Z" fill="#FFB6B6"/>
<path d="M124.662 42.0817V43.0178L119.218 41.4855L115.136 42.3408C115.089 41.7195 114.905 41.1093 114.598 40.5688C114.812 41.4357 114.836 42.1064 114.61 42.4522L114.061 42.5664C113.972 42.3241 113.799 42.1123 113.573 41.9842C113.551 41.9702 113.523 41.9591 113.498 41.9674C113.459 41.9814 113.456 42.0315 113.456 42.0705C113.462 42.2767 113.467 42.4829 113.476 42.689L111.899 43.0178V42.0817C110.386 38.6776 114.373 35.732 118.282 35.7015C120.045 35.6877 121.639 36.4147 122.795 37.5682C123.949 38.7244 124.662 40.3181 124.662 42.0817Z" fill="#2F2E41"/>
<path d="M127.725 53.0585L127.314 53.0244C127.343 52.89 127.372 52.7573 127.399 52.6228C127.627 51.4946 127.125 50.0583 127.088 48.9743C126.895 50.1196 127.226 51.5286 126.883 52.616C126.845 52.7368 125.358 53.5166 125.317 53.6357C123.67 53.0336 121.956 51.1098 120.015 52.2334C118.866 52.898 117.556 52.6067 116.252 52.3024C115.93 52.2271 115.885 50.6336 115.566 50.571C114.994 50.4588 114.154 51.9074 113.615 51.964L115.844 43.3271C115.844 38.6286 115.409 33.699 121.361 35.3604C122.858 35.7782 124.339 36.1058 125.444 37.3412C126.549 38.5784 127.335 40.3073 127.614 42.2763C127.782 43.4641 128.831 47.4972 127.725 53.0585Z" fill="#2F2E41"/>
<path d="M123.881 139.912L121.224 139.974L119.743 128.037L123.664 127.945L123.881 139.912Z" fill="#FFB7B7"/>
<path d="M114.766 145.455C114.766 145.904 115.084 146.268 115.477 146.268H120.751C120.751 146.268 121.27 144.181 123.386 143.284L123.532 146.268H126.253L125.923 141.469C125.923 141.469 126.651 138.902 125.139 137.59C123.628 136.278 124.852 136.461 124.852 136.461L124.258 133.491L120.146 133.974L120.116 138.636L118.121 143.263L115.195 144.709C114.934 144.838 114.766 145.131 114.766 145.455H114.766H114.766Z" fill="#2F2E41"/>
<path d="M115.797 137.966L113.243 138.701L108.781 127.531L112.55 126.446L115.797 137.966Z" fill="#FFB7B7"/>
<path d="M108.387 145.641C108.501 146.076 108.901 146.347 109.281 146.247L114.382 144.909C114.382 144.909 114.355 142.759 116.174 141.354L117.072 144.203L119.704 143.513L118.168 138.955C118.168 138.955 118.22 136.287 116.425 135.402C114.63 134.516 115.861 134.382 115.861 134.382L114.532 131.66L110.678 133.171L111.832 137.688L111.076 142.67L108.612 144.811C108.393 145.001 108.304 145.328 108.387 145.641L108.387 145.641L108.387 145.641Z" fill="#2F2E41"/>
<path d="M122.252 75.9947L123.924 76.5519C126.537 81.3791 127.646 87.7894 127.499 95.5193L124.529 130.237H119.671L116.116 91.5601L109.847 106.077L114.434 130.237L109.847 130.705L100.609 105.582L107.043 76.3833L122.252 75.9947Z" fill="#2F2E41"/>
<path d="M29.5332 111.443L35.1054 117.155L45.1354 107.125" stroke="white" stroke-width="4"/>
</g>
<defs>
<clipPath id="clip0_199_1646">
<rect width="152" height="145.853" fill="white" transform="translate(0 0.555908)"/>
</clipPath>
</defs>
</svg>
