<svg width="152" height="147" viewBox="0 0 152 147" fill="none" xmlns="http://www.w3.org/2000/svg">
<g clip-path="url(#clip0_316_212)">
<path d="M127.923 35.1697H127.124V13.2452C127.124 9.87976 125.789 6.6522 123.412 4.2725C121.034 1.89281 117.81 0.555908 114.448 0.555908H68.0446C66.38 0.555881 64.7316 0.884072 63.1936 1.52174C61.6557 2.15941 60.2582 3.09407 59.0811 4.27236C57.904 5.45064 56.9702 6.84948 56.3332 8.389C55.6961 9.92852 55.3682 11.5786 55.3682 13.245V133.525C55.3682 136.89 56.7037 140.118 59.081 142.497C61.4582 144.877 64.6825 146.214 68.0444 146.214H114.448C117.81 146.214 121.034 144.877 123.411 142.497C125.788 140.118 127.124 136.89 127.124 133.525V50.776H127.922L127.923 35.1697Z" fill="#3F3D56"/>
<path d="M124.524 12.3951V134.374C124.524 136.926 123.511 139.373 121.709 141.177C119.906 142.982 117.462 143.996 114.913 143.997H67.5575C65.0075 143.997 62.5618 142.984 60.7583 141.179C58.9548 139.374 57.9412 136.927 57.9404 134.374V12.3951C57.9412 9.84264 58.9547 7.39495 60.7582 5.59044C62.5616 3.78593 65.0072 2.77238 67.5571 2.77271H73.3016C73.0196 3.46706 72.9122 4.22014 72.989 4.96576C73.0658 5.71138 73.3243 6.4267 73.742 7.04886C74.1596 7.67101 74.7235 8.18095 75.3841 8.53385C76.0448 8.88675 76.7819 9.07181 77.5307 9.07276H104.529C105.278 9.07181 106.015 8.88675 106.675 8.53385C107.336 8.18095 107.9 7.67101 108.318 7.04886C108.735 6.4267 108.994 5.71138 109.071 4.96576C109.147 4.22014 109.04 3.46706 108.758 2.77271H114.911C117.46 2.77314 119.905 3.78682 121.707 5.59088C123.51 7.39494 124.523 9.84172 124.524 12.3933V12.3951Z" fill="white"/>
<path d="M91.2651 45.3414C97.902 45.3414 103.282 40.1107 103.282 33.6582C103.282 27.2058 97.902 21.9751 91.2651 21.9751C84.6283 21.9751 79.248 27.2058 79.248 33.6582C79.248 40.1107 84.6283 45.3414 91.2651 45.3414Z" fill="#8C2667"/>
<path d="M112.786 63.1919H70.705C70.4984 63.1917 70.3003 63.1094 70.1542 62.9632C70.0082 62.817 69.926 62.6187 69.9258 62.4119V51.9629C69.9261 51.7561 70.0082 51.5578 70.1543 51.4116C70.3004 51.2654 70.4984 51.1831 70.705 51.1829H112.786C112.993 51.1831 113.191 51.2654 113.337 51.4116C113.483 51.5578 113.565 51.7561 113.565 51.9629V62.4121C113.565 62.6189 113.483 62.8171 113.337 62.9633C113.191 63.1096 112.993 63.1918 112.786 63.1921V63.1919ZM70.705 51.4948C70.581 51.4949 70.4621 51.5442 70.3745 51.632C70.2868 51.7198 70.2375 51.8388 70.2374 51.9629V62.4121C70.2375 62.5362 70.2868 62.6552 70.3745 62.743C70.4621 62.8307 70.581 62.8801 70.705 62.8802H112.786C112.91 62.8801 113.029 62.8307 113.116 62.743C113.204 62.6552 113.253 62.5362 113.254 62.4121V51.9629C113.253 51.8388 113.204 51.7198 113.116 51.632C113.029 51.5442 112.91 51.4949 112.786 51.4948H70.705Z" fill="#E6E6E6"/>
<path d="M83.7184 54.9458C83.5737 54.9458 83.4349 55.0033 83.3326 55.1057C83.2303 55.2081 83.1729 55.347 83.1729 55.4919C83.1729 55.6367 83.2303 55.7756 83.3326 55.878C83.4349 55.9804 83.5737 56.0379 83.7184 56.0379H109.434C109.579 56.0435 109.72 55.9913 109.826 55.8929C109.932 55.7944 109.995 55.6578 110 55.5131C110.006 55.3683 109.954 55.2273 109.856 55.121C109.757 55.0148 109.621 54.9519 109.476 54.9464C109.468 54.9461 109.46 54.946 109.452 54.946H83.7184L83.7184 54.9458Z" fill="#E6E6E6"/>
<path d="M83.7184 58.2217C83.5737 58.2217 83.4349 58.2792 83.3326 58.3816C83.2303 58.484 83.1729 58.6229 83.1729 58.7678C83.1729 58.9126 83.2303 59.0515 83.3326 59.1539C83.4349 59.2563 83.5737 59.3138 83.7184 59.3138H109.434C109.579 59.3194 109.72 59.2672 109.826 59.1688C109.932 59.0703 109.995 58.9337 110 58.789C110.006 58.6442 109.954 58.5032 109.856 58.3969C109.757 58.2906 109.621 58.2278 109.476 58.2223C109.468 58.222 109.46 58.2218 109.452 58.2219H83.7184L83.7184 58.2217Z" fill="#E6E6E6"/>
<path d="M112.786 80.6082H70.705C70.4984 80.6079 70.3003 80.5257 70.1542 80.3794C70.0082 80.2332 69.926 80.0349 69.9258 79.8281V69.3792C69.9261 69.1724 70.0082 68.9741 70.1543 68.8279C70.3004 68.6817 70.4984 68.5994 70.705 68.5991H112.786C112.993 68.5994 113.191 68.6817 113.337 68.8279C113.483 68.9741 113.565 69.1724 113.565 69.3792V79.8283C113.565 80.0351 113.483 80.2333 113.337 80.3795C113.191 80.5256 112.992 80.6079 112.786 80.6082ZM70.705 68.911C70.581 68.9112 70.4621 68.9605 70.3745 69.0483C70.2868 69.136 70.2375 69.255 70.2374 69.3791V79.8283C70.2375 79.9524 70.2868 80.0714 70.3745 80.1592C70.4621 80.247 70.581 80.2963 70.705 80.2964H112.786C112.91 80.2963 113.029 80.247 113.116 80.1592C113.204 80.0714 113.253 79.9524 113.254 79.8283V69.3791C113.253 69.255 113.204 69.136 113.116 69.0483C113.029 68.9605 112.91 68.9112 112.786 68.911H70.705Z" fill="#E6E6E6"/>
<path d="M83.7184 72.4187C83.5737 72.4187 83.4349 72.4762 83.3326 72.5787C83.2303 72.6811 83.1729 72.82 83.1729 72.9648C83.1729 73.1096 83.2303 73.2485 83.3326 73.3509C83.4349 73.4533 83.5737 73.5109 83.7184 73.5109H109.434C109.577 73.5101 109.714 73.4534 109.815 73.353C109.916 73.2525 109.974 73.1164 109.977 72.9736C109.979 72.8309 109.926 72.6929 109.827 72.5892C109.729 72.4855 109.595 72.4244 109.452 72.4189H83.7184V72.4187Z" fill="#E6E6E6"/>
<path d="M83.7184 75.6956C83.5737 75.6956 83.4349 75.7531 83.3326 75.8555C83.2303 75.9579 83.1729 76.0968 83.1729 76.2416C83.1729 76.3865 83.2303 76.5254 83.3326 76.6278C83.4349 76.7302 83.5737 76.7877 83.7184 76.7877H109.434C109.577 76.7869 109.714 76.7302 109.815 76.6298C109.916 76.5294 109.974 76.3932 109.977 76.2505C109.979 76.1077 109.926 75.9697 109.827 75.866C109.729 75.7623 109.595 75.7012 109.452 75.6958H83.7184V75.6956Z" fill="#E6E6E6"/>
<path d="M112.786 98.0815H70.705C70.4984 98.0813 70.3003 97.9991 70.1542 97.8528C70.0082 97.7066 69.926 97.5083 69.9258 97.3015V86.8525C69.9261 86.6457 70.0082 86.4475 70.1543 86.3013C70.3004 86.155 70.4984 86.0728 70.705 86.0725H112.786C112.993 86.0728 113.191 86.155 113.337 86.3013C113.483 86.4475 113.565 86.6457 113.565 86.8525V97.3017C113.565 97.5085 113.483 97.7068 113.337 97.853C113.191 97.9992 112.993 98.0815 112.786 98.0818V98.0815ZM70.705 86.3844C70.581 86.3845 70.4621 86.4339 70.3745 86.5217C70.2868 86.6094 70.2375 86.7284 70.2374 86.8525V97.3017C70.2375 97.4258 70.2868 97.5448 70.3745 97.6326C70.4621 97.7204 70.581 97.7697 70.705 97.7698H112.786C112.91 97.7697 113.029 97.7204 113.116 97.6326C113.204 97.5448 113.253 97.4258 113.254 97.3017V86.8525C113.253 86.7284 113.204 86.6094 113.116 86.5217C113.029 86.4339 112.91 86.3845 112.786 86.3844H70.705Z" fill="#E6E6E6"/>
<path d="M83.7184 89.8926C83.5737 89.8926 83.4349 89.9501 83.3326 90.0525C83.2303 90.1549 83.1729 90.2938 83.1729 90.4387C83.1729 90.5835 83.2303 90.7224 83.3326 90.8248C83.4349 90.9272 83.5737 90.9847 83.7184 90.9847H109.434C109.506 90.9875 109.577 90.9761 109.645 90.9512C109.712 90.9263 109.773 90.8884 109.826 90.8397C109.879 90.7909 109.921 90.7323 109.951 90.6671C109.981 90.602 109.998 90.5315 110 90.4599C110.003 90.3882 109.992 90.3167 109.967 90.2494C109.942 90.1821 109.904 90.1204 109.856 90.0678C109.807 90.0152 109.748 89.9727 109.683 89.9427C109.618 89.9127 109.548 89.8959 109.476 89.8932C109.468 89.8929 109.46 89.8927 109.452 89.8928H83.7184L83.7184 89.8926Z" fill="#E6E6E6"/>
<path d="M83.7184 93.1692C83.5737 93.1692 83.4349 93.2267 83.3326 93.3291C83.2303 93.4316 83.1729 93.5705 83.1729 93.7153C83.1729 93.8601 83.2303 93.999 83.3326 94.1014C83.4349 94.2038 83.5737 94.2614 83.7184 94.2614H109.434C109.506 94.2641 109.577 94.2527 109.645 94.2278C109.712 94.2029 109.773 94.165 109.826 94.1163C109.879 94.0676 109.921 94.0089 109.951 93.9438C109.981 93.8786 109.998 93.8082 110 93.7365C110.003 93.6648 109.992 93.5933 109.967 93.526C109.942 93.4588 109.904 93.3971 109.856 93.3444C109.807 93.2918 109.748 93.2493 109.683 93.2193C109.618 93.1894 109.548 93.1725 109.476 93.1698C109.468 93.1695 109.46 93.1694 109.452 93.1694H83.7184L83.7184 93.1692Z" fill="#E6E6E6"/>
<path d="M151.603 146.595H0.396777C0.177504 146.595 0 146.499 0 146.381C0 146.263 0.177709 146.167 0.396777 146.167H151.603C151.822 146.167 152 146.263 152 146.381C152 146.499 151.822 146.595 151.603 146.595Z" fill="#E6E6E6"/>
<path d="M145.199 138.24C144.553 138.468 143.859 138.525 143.185 138.406C142.511 138.287 141.878 137.996 141.349 137.561C140 136.428 139.577 134.562 139.233 132.833L138.216 127.721L140.346 129.189C141.878 130.245 143.445 131.335 144.506 132.865C145.566 134.394 146.029 136.482 145.177 138.137" fill="#E6E6E6"/>
<path d="M144.871 144.786C145.139 142.83 145.415 140.85 145.226 138.873C145.059 137.118 144.524 135.404 143.435 133.998C142.857 133.253 142.154 132.615 141.356 132.112C141.149 131.981 140.957 132.311 141.164 132.442C142.544 133.314 143.61 134.603 144.211 136.122C144.874 137.81 144.981 139.652 144.866 141.445C144.797 142.53 144.65 143.608 144.503 144.685C144.491 144.733 144.499 144.785 144.523 144.828C144.548 144.872 144.588 144.904 144.636 144.919C144.685 144.932 144.737 144.926 144.78 144.901C144.824 144.876 144.857 144.834 144.87 144.786H144.871Z" fill="#F2F2F2"/>
<path d="M142.94 141.648C142.663 142.07 142.282 142.413 141.835 142.644C141.387 142.875 140.887 142.987 140.383 142.969C139.088 142.908 138.009 142.003 137.038 141.145L134.164 138.605L136.066 138.514C137.434 138.448 138.837 138.387 140.14 138.81C141.444 139.232 142.644 140.248 142.882 141.597" fill="#E6E6E6"/>
<path d="M145.628 145.91C144.338 143.624 142.84 141.082 140.164 140.27C139.42 140.045 138.64 139.965 137.866 140.033C137.622 140.053 137.683 140.43 137.928 140.409C139.225 140.301 140.52 140.644 141.595 141.38C142.629 142.085 143.434 143.065 144.115 144.103C144.533 144.739 144.907 145.403 145.281 146.065C145.399 146.277 145.749 146.124 145.628 145.91Z" fill="#F2F2F2"/>
<path d="M75.9546 60.3995C77.7621 60.3995 79.2275 58.9326 79.2275 57.1232C79.2275 55.3138 77.7621 53.8469 75.9546 53.8469C74.147 53.8469 72.6816 55.3138 72.6816 57.1232C72.6816 58.9326 74.147 60.3995 75.9546 60.3995Z" fill="#8C2667"/>
<path d="M74.3875 56.5112C74.3498 56.5112 74.3193 56.7557 74.3193 57.0572C74.3193 57.3587 74.3498 57.6034 74.3875 57.6034H77.6058C77.6435 57.6083 77.6746 57.3679 77.6752 57.0664C77.6961 56.8787 77.6731 56.6887 77.608 56.5114H74.3875V56.5112Z" fill="#E6E6E6"/>
<path d="M75.9546 77.8799C77.7621 77.8799 79.2275 76.4131 79.2275 74.6037C79.2275 72.7942 77.7621 71.3274 75.9546 71.3274C74.147 71.3274 72.6816 72.7942 72.6816 74.6037C72.6816 76.4131 74.147 77.8799 75.9546 77.8799Z" fill="#8C2667"/>
<path d="M74.3875 73.9917C74.3498 73.9917 74.3193 74.2362 74.3193 74.5377C74.3193 74.8391 74.3498 75.0838 74.3875 75.0838H77.6058C77.6435 75.0888 77.6746 74.8484 77.6752 74.5469C77.6961 74.3592 77.6731 74.1692 77.608 73.9919H74.3875V73.9917Z" fill="#E6E6E6"/>
<path d="M75.9546 95.3533C77.7621 95.3533 79.2275 93.8865 79.2275 92.0771C79.2275 90.2676 77.7621 88.8008 75.9546 88.8008C74.147 88.8008 72.6816 90.2676 72.6816 92.0771C72.6816 93.8865 74.147 95.3533 75.9546 95.3533Z" fill="#8C2667"/>
<path d="M74.3875 91.4651C74.3498 91.4651 74.3193 91.7096 74.3193 92.0111C74.3193 92.3125 74.3498 92.5572 74.3875 92.5572H77.6058C77.6435 92.5622 77.6746 92.3218 77.6752 92.0203C77.6961 91.8326 77.6731 91.6426 77.608 91.4653H74.3875V91.4651Z" fill="#E6E6E6"/>
<path d="M88.6816 30.3263L87.9922 31.0164L93.7658 36.7959L94.4552 36.1058L88.6816 30.3263Z" fill="white"/>
<path d="M94.455 31.0165L93.7656 30.3264L87.992 36.1059L88.6814 36.796L94.455 31.0165Z" fill="white"/>
<path d="M18.4793 94.0392C18.763 93.9386 19.0213 93.7771 19.2359 93.5658C19.4505 93.3546 19.6162 93.0988 19.7214 92.8165C19.8265 92.5342 19.8686 92.2322 19.8446 91.9319C19.8205 91.6316 19.731 91.3402 19.5823 91.0782L24.407 85.5726L20.6408 85.0525L16.6366 90.3605C16.2135 90.6397 15.9075 91.0645 15.7765 91.5546C15.6454 92.0446 15.6985 92.5657 15.9256 93.0191C16.1528 93.4726 16.5382 93.8269 17.0088 94.0149C17.4795 94.2029 18.0027 94.2115 18.4793 94.0392Z" fill="#9F616A"/>
<path d="M24.2977 142.833L20.9329 142.832L19.332 129.84L24.2983 129.84L24.2977 142.833Z" fill="#9F616A"/>
<path d="M25.1556 146.098L14.3057 146.097V145.96C14.3057 144.839 14.7507 143.764 15.5427 142.971C16.3346 142.178 17.4088 141.733 18.5288 141.733H18.529L25.1558 141.733L25.1556 146.098Z" fill="#2F2E41"/>
<path d="M41.9124 140.014L38.6989 141.012L33.3213 129.08L38.0642 127.606L41.9124 140.014Z" fill="#9F616A"/>
<path d="M43.6991 142.878L33.337 146.098L33.2963 145.967C32.9643 144.896 33.0707 143.737 33.5922 142.745C34.1137 141.753 35.0076 141.008 36.0772 140.676L36.0774 140.676L42.4062 138.709L43.6991 142.878Z" fill="#2F2E41"/>
<path d="M21.7208 82.9326L16.7373 88.646L20.6388 88.9974L21.7208 82.9326Z" fill="#E6E6E6"/>
<path d="M19.7742 90.2971C19.7742 90.2971 18.0431 91.1634 17.8267 95.0623C17.6103 98.9612 18.4759 109.142 18.4759 109.142C18.4759 109.142 17.6105 113.691 18.4759 117.806C19.3414 121.921 17.6105 136.866 18.6924 136.866C19.7742 136.866 25.3999 137.516 25.6163 136.866C25.8327 136.216 26.0492 126.469 26.0492 126.469C26.0492 126.469 27.7802 121.487 26.0492 118.456C26.0492 118.456 32.0932 129.021 36.0024 137.083C36.858 138.848 43.3592 136.867 42.2774 134.917C41.1956 132.968 38.5991 124.087 38.5991 124.087C38.5991 124.087 36.6516 117.589 33.1898 114.773L34.9208 100.911C34.9208 100.911 38.5993 91.5973 36.4359 90.2977C34.2724 88.9981 19.7742 90.2971 19.7742 90.2971Z" fill="#2F2E41"/>
<path d="M26.2654 54.9911C29.3724 54.9911 31.8912 52.4697 31.8912 49.3595C31.8912 46.2493 29.3724 43.728 26.2654 43.728C23.1584 43.728 20.6396 46.2493 20.6396 49.3595C20.6396 52.4697 23.1584 54.9911 26.2654 54.9911Z" fill="#A0616A"/>
<path d="M32.5402 55.4243L25.5464 59.5396C25.5464 59.5396 22.8685 61.0493 21.8681 63.655C20.8018 66.432 21.4216 70.3419 21.8681 71.2359C22.7335 72.9687 21.5051 77.3007 21.5051 77.3007L20.4233 87.2641C20.4233 87.2641 16.5286 90.9462 19.5579 91.3795C22.5871 91.8127 27.9965 91.1628 31.2422 91.3795C34.4879 91.5961 38.1662 92.0294 37.0843 89.8629C36.0025 87.6964 34.7043 86.1806 36.0025 81.8495C37.0184 78.4597 36.9744 65.7852 36.9072 60.4326C36.898 59.6975 36.7011 58.9771 36.3351 58.3397C35.9692 57.7024 35.4465 57.1693 34.8167 56.7913L32.5402 55.4243Z" fill="#E5E5E5"/>
<path opacity="0.1" d="M29.4039 62.2473L30.0529 75.4598L23.7622 88.2122L22.6953 87.8058L29.1867 75.8928L29.4039 62.2473Z" fill="black"/>
<path opacity="0.1" d="M36.5435 78.2754V76.7588L29.1875 88.8887L36.5435 78.2754Z" fill="black"/>
<path d="M22.2726 44.1427L21.3433 43.7706C21.3433 43.7706 23.2883 41.6274 25.9935 41.8137L25.2325 40.9751C25.2325 40.9751 27.0925 40.2297 28.7836 42.1863C29.6726 43.2149 30.701 44.4241 31.3429 45.786H32.3389L31.9233 46.7023L33.3781 47.6186L31.8848 47.4547C32.0262 48.2457 31.9778 49.0591 31.7435 49.8277L31.7845 50.552C31.7845 50.552 30.0526 47.8695 30.0526 47.4973V48.4292C30.0526 48.4292 29.1225 47.5905 29.1225 47.0314L28.6152 47.6838L28.3615 46.6591L25.2331 47.6838L25.74 46.8447L23.795 47.1243L24.556 46.0996C24.556 46.0996 22.3578 47.3108 22.2732 48.3359C22.1887 49.3611 21.0897 50.6654 21.0897 50.6654L20.5823 49.7335C20.5823 49.7335 19.8215 45.5405 22.2726 44.1427Z" fill="#2F2E41"/>
<path d="M25.9123 94.652C26.1737 94.5026 26.3992 94.2977 26.5729 94.0517C26.7467 93.8057 26.8644 93.5245 26.9178 93.228C26.9713 92.9315 26.9591 92.6269 26.8822 92.3356C26.8053 92.0443 26.6656 91.7734 26.4728 91.5421L30.2446 85.2666L26.4459 85.4239L23.4466 91.3591C23.0797 91.7091 22.8539 92.1816 22.8118 92.6871C22.7698 93.1926 22.9144 93.696 23.2183 94.1019C23.5223 94.5077 23.9644 94.7879 24.4609 94.8893C24.9574 94.9907 25.4738 94.9063 25.9123 94.652Z" fill="#9F616A"/>
<path d="M34.4879 58.2406L36.1107 57.9158C36.1107 57.9158 40.9791 61.4896 39.4645 68.6373C37.9498 75.785 31.2422 86.615 31.2422 86.615C31.2422 86.615 29.7272 88.5645 29.2948 88.9975C28.8624 89.4306 27.9966 88.9975 28.4294 89.6474C28.8622 90.2973 27.7801 90.7303 27.7801 90.7303C27.7801 90.7303 23.0198 90.7303 23.4526 88.9975C23.8854 87.2647 31.2422 74.9177 31.2422 74.9177L30.1604 63.4381C30.1604 63.4381 29.2946 57.8074 34.4879 58.2406Z" fill="#E5E5E5"/>
<path d="M48.7182 21.9751H35.0771V8.34473H48.7182V21.9751ZM35.6702 21.3824H48.1251V8.93735H35.6702V21.3824Z" fill="#3F3D56"/>
<path d="M147.453 70.6547H133.812V57.0244H147.453V70.6547ZM134.405 70.0621H146.859V57.617H134.405V70.0621Z" fill="#3F3D56"/>
<path d="M114.335 103.757H68.3785C67.2989 103.757 66.2634 104.185 65.5 104.948C64.7365 105.711 64.3076 106.745 64.3076 107.824V130.195C64.3076 131.274 64.7365 132.309 65.5 133.072C66.2634 133.834 67.2989 134.263 68.3785 134.263H114.335C115.415 134.263 116.45 133.834 117.214 133.072C117.977 132.309 118.406 131.274 118.406 130.195V107.824C118.406 106.745 117.977 105.711 117.214 104.948C116.45 104.185 115.415 103.757 114.335 103.757ZM67.2415 106.531C67.3323 106.515 69.4842 106.149 71.2661 107.22C73.0479 108.291 73.7325 110.363 73.7608 110.45L73.8328 110.674L73.6016 110.715C73.2717 110.766 72.9382 110.79 72.6043 110.788C71.5451 110.808 70.4999 110.545 69.5769 110.025C67.795 108.954 67.1105 106.883 67.0823 106.796L67.0103 106.572L67.2415 106.531ZM77.2175 127.302H69.0207C68.4229 127.302 67.8496 127.064 67.4268 126.642C67.0041 126.22 66.7666 125.647 66.7666 125.05C66.7666 124.452 67.0041 123.879 67.4268 123.457C67.8496 123.035 68.4229 122.797 69.0207 122.797H77.2175C77.8153 122.797 78.3886 123.035 78.8113 123.457C79.2341 123.879 79.4715 124.452 79.4715 125.05C79.4715 125.647 79.2341 126.22 78.8113 126.642C78.3886 127.064 77.8153 127.302 77.2175 127.302ZM114.513 126.892C114.511 127.543 114.251 128.167 113.79 128.627C113.329 129.088 112.705 129.347 112.053 129.349H105.906C105.254 129.347 104.63 129.088 104.169 128.627C103.709 128.167 103.449 127.543 103.447 126.892V123.207C103.449 122.556 103.709 121.932 104.169 121.472C104.63 121.011 105.254 120.752 105.906 120.75H112.053C112.705 120.752 113.329 121.011 113.79 121.472C114.251 121.932 114.511 122.556 114.513 123.207L114.513 126.892Z" fill="#8C2667"/>
<path d="M107.887 126.133H105.415C105.239 126.133 105.07 126.203 104.945 126.328C104.82 126.452 104.75 126.621 104.75 126.798C104.75 126.974 104.82 127.143 104.945 127.268C105.07 127.393 105.239 127.463 105.415 127.463H107.887C108.064 127.463 108.233 127.393 108.358 127.268C108.483 127.143 108.553 126.974 108.553 126.798C108.553 126.621 108.483 126.452 108.358 126.328C108.233 126.203 108.064 126.133 107.887 126.133Z" fill="#3F3D56"/>
<path d="M112.451 126.133H109.979C109.802 126.133 109.633 126.203 109.508 126.328C109.384 126.452 109.313 126.621 109.313 126.798C109.313 126.974 109.384 127.143 109.508 127.268C109.633 127.393 109.802 127.463 109.979 127.463H112.451C112.627 127.463 112.796 127.393 112.921 127.268C113.046 127.143 113.116 126.974 113.116 126.798C113.116 126.621 113.046 126.452 112.921 126.328C112.796 126.203 112.627 126.133 112.451 126.133Z" fill="#3F3D56"/>
<path d="M107.887 124.256H105.415C105.239 124.256 105.07 124.326 104.945 124.451C104.82 124.575 104.75 124.744 104.75 124.921C104.75 125.097 104.82 125.266 104.945 125.391C105.07 125.516 105.239 125.586 105.415 125.586H107.887C108.064 125.586 108.233 125.516 108.358 125.391C108.483 125.266 108.553 125.097 108.553 124.921C108.553 124.744 108.483 124.575 108.358 124.451C108.233 124.326 108.064 124.256 107.887 124.256Z" fill="#3F3D56"/>
<path d="M112.451 124.256H109.979C109.802 124.256 109.633 124.326 109.508 124.451C109.384 124.575 109.313 124.744 109.313 124.921C109.313 125.097 109.384 125.266 109.508 125.391C109.633 125.516 109.802 125.586 109.979 125.586H112.451C112.627 125.586 112.796 125.516 112.921 125.391C113.046 125.266 113.116 125.097 113.116 124.921C113.116 124.744 113.046 124.575 112.921 124.451C112.796 124.326 112.627 124.256 112.451 124.256H112.451Z" fill="#3F3D56"/>
<path d="M107.887 122.417H105.415C105.239 122.417 105.07 122.487 104.945 122.612C104.82 122.736 104.75 122.906 104.75 123.082C104.75 123.258 104.82 123.427 104.945 123.552C105.07 123.677 105.239 123.747 105.415 123.747H107.887C108.064 123.747 108.233 123.677 108.358 123.552C108.483 123.427 108.553 123.258 108.553 123.082C108.553 122.906 108.483 122.736 108.358 122.612C108.233 122.487 108.064 122.417 107.887 122.417Z" fill="#3F3D56"/>
<path d="M112.451 122.417H109.979C109.802 122.417 109.633 122.487 109.508 122.612C109.384 122.736 109.313 122.906 109.313 123.082C109.313 123.258 109.384 123.427 109.508 123.552C109.633 123.677 109.802 123.747 109.979 123.747H112.451C112.627 123.747 112.796 123.677 112.921 123.552C113.046 123.427 113.116 123.258 113.116 123.082C113.116 122.906 113.046 122.736 112.921 122.612C112.796 122.487 112.627 122.417 112.451 122.417H112.451Z" fill="#3F3D56"/>
</g>
<defs>
<clipPath id="clip0_316_212">
<rect width="152" height="146.039" fill="white" transform="translate(0 0.555908)"/>
</clipPath>
</defs>
</svg>
