<svg width="222" height="189" viewBox="0 0 222 189" fill="none" xmlns="http://www.w3.org/2000/svg">
<g clip-path="url(#clip0_316_605)">
<path d="M13.8935 80.0676C11.7834 80.07 9.76039 80.9101 8.26832 82.4035C6.77624 83.897 5.93695 85.9219 5.93457 88.034V121.818C5.93695 123.93 6.77624 125.955 8.26832 127.448C9.76039 128.942 11.7834 129.782 13.8935 129.784H66.2722C68.3823 129.782 70.4053 128.942 71.8973 127.448C73.3894 125.955 74.2287 123.93 74.2311 121.818V88.034C74.2287 85.9219 73.3894 83.897 71.8973 82.4035C70.4053 80.9101 68.3823 80.07 66.2722 80.0676H13.8935Z" fill="white"/>
<path d="M66.272 130.095H13.8934C11.701 130.093 9.59906 129.22 8.04879 127.668C6.49851 126.116 5.62649 124.012 5.62402 121.818V88.0339C5.62649 85.8395 6.49851 83.7356 8.04879 82.1839C9.59906 80.6321 11.701 79.7593 13.8934 79.7568H66.272C68.4645 79.7593 70.5664 80.6321 72.1167 82.1839C73.6669 83.7356 74.5389 85.8395 74.5414 88.0339V121.818C74.5389 124.012 73.6669 126.116 72.1167 127.668C70.5664 129.22 68.4645 130.093 66.272 130.095ZM13.8934 80.3783C11.8656 80.3806 9.92151 81.1879 8.48763 82.6231C7.05376 84.0583 6.2472 86.0042 6.2449 88.0339V121.818C6.2472 123.848 7.05376 125.793 8.48763 127.229C9.92151 128.664 11.8656 129.471 13.8934 129.474H66.272C68.2998 129.471 70.2439 128.664 71.6778 127.229C73.1117 125.793 73.9182 123.848 73.9205 121.818V88.0339C73.9182 86.0042 73.1117 84.0583 71.6778 82.6231C70.2439 81.1879 68.2998 80.3806 66.272 80.3783H13.8934Z" fill="#3F3D56"/>
<path d="M35.4787 96.3644C34.617 97.263 33.7915 98.1979 33.0141 99.169C31.3028 101.232 29.6155 103.313 27.9223 105.388C26.8677 106.678 25.8132 107.969 24.7708 109.26C24.4397 109.047 24.1254 108.809 23.8307 108.548C22.1656 107.101 21.1329 105.06 20.9537 102.86C20.7745 100.661 21.4632 98.4783 22.8722 96.7809C24.2812 95.0834 26.2984 94.006 28.4915 93.7793C30.6846 93.5526 32.8792 94.1948 34.605 95.5682C34.916 95.811 35.2081 96.0772 35.4787 96.3644Z" fill="#8C2667"/>
<path d="M66.7999 95.3844V96.6367L66.2412 96.4316L58.3777 93.5542C52.9298 97.4387 50.8313 95.6078 50.6168 90.8757C50.5082 88.4803 45.8733 90.2481 43.5884 90.9659C42.771 92.7168 41.5948 94.4334 38.1123 94.3684C37.1612 94.3506 36.7371 95.6765 36.082 96.3632C35.8678 96.5901 35.6536 96.8169 35.4425 97.0437C34.8092 97.7335 33.5726 98.237 33.6172 99.1691C33.7565 102.085 33.2155 104.696 28.526 105.387C26.8758 105.63 25.0949 107.623 25.3719 109.258C26.4692 115.74 20.2763 118.693 14.9846 122.082C14.5211 122.077 14.0596 122.019 13.6094 121.908C17.1204 117.543 20.6481 113.188 24.1922 108.845C24.2729 108.746 24.3537 108.646 24.4344 108.547C24.8504 108.028 25.2757 107.506 25.6979 106.987C27.4643 104.821 29.2317 102.658 31.0001 100.496C32.2854 98.9237 33.5613 97.3451 34.9458 95.8536C35.0296 95.7573 35.1166 95.6641 35.2066 95.5678C35.3401 95.4248 35.4736 95.285 35.6102 95.139C38.6183 92.0286 42.3715 89.2786 46.8667 89.204C49.5116 89.1636 52.0665 90.0026 54.5252 90.8882C57.1733 91.8484 59.812 92.8241 62.4569 93.7935L66.7999 95.3844Z" fill="#3F3D56"/>
<path d="M64.6078 103.252V104.227L64.1729 104.067L58.0535 101.828C53.8137 104.851 52.1807 103.426 52.0137 99.7437C51.9292 97.8796 48.3222 99.2553 46.5441 99.8139C45.908 101.176 44.9927 102.512 42.2825 102.462C41.5424 102.448 41.2123 103.48 40.7025 104.014C40.5358 104.191 40.3691 104.367 40.2048 104.544C39.712 105.081 38.7496 105.472 38.7843 106.198C38.8928 108.467 38.4717 110.499 34.8222 111.036C33.5381 111.226 32.1522 112.776 32.3677 114.05C33.2216 119.094 28.4022 121.392 24.2841 124.029C23.9234 124.025 23.5643 123.98 23.2139 123.894C25.9462 120.496 28.6915 117.108 31.4497 113.728C31.5125 113.651 31.5753 113.573 31.6381 113.496C31.9618 113.092 32.2928 112.686 32.6214 112.282C33.996 110.596 35.3714 108.913 36.7477 107.23C37.7479 106.007 38.7408 104.778 39.8183 103.618C39.8835 103.543 39.9512 103.47 40.0212 103.395C40.1251 103.284 40.229 103.175 40.3353 103.061C42.6763 100.641 45.5971 98.5008 49.0953 98.4427C51.1537 98.4113 53.1419 99.0642 55.0553 99.7534C57.1161 100.501 59.1696 101.26 61.2279 102.014L64.6078 103.252Z" fill="#3F3D56"/>
<path d="M62.7447 110.81V111.507L62.4338 111.393L58.0583 109.792C55.0268 111.953 53.8591 110.934 53.7398 108.301C53.6793 106.968 51.1003 107.952 49.8289 108.351C49.3741 109.326 48.7196 110.281 46.7818 110.245C46.2526 110.235 46.0166 110.972 45.6521 111.355C45.5329 111.481 45.4137 111.607 45.2962 111.733C44.9439 112.117 44.2558 112.397 44.2805 112.916C44.3581 114.538 44.057 115.991 41.4476 116.376C40.5294 116.511 39.5385 117.62 39.6926 118.53C40.3031 122.137 36.8572 123.78 33.9127 125.666C33.6548 125.663 33.398 125.63 33.1475 125.569C35.1012 123.14 37.0641 120.717 39.0362 118.3L39.1709 118.134C39.4024 117.845 39.639 117.555 39.874 117.266C40.8568 116.061 41.8403 114.857 42.8244 113.654C43.5395 112.779 44.2495 111.901 45.0199 111.071C45.0665 111.017 45.1149 110.966 45.165 110.912C45.2393 110.832 45.3135 110.755 45.3895 110.673C47.0634 108.943 49.1518 107.412 51.6531 107.371C53.1248 107.348 54.5465 107.815 55.9146 108.308C57.3881 108.842 58.8563 109.385 60.3281 109.925L62.7447 110.81Z" fill="#3F3D56"/>
<path d="M116.532 61.5272L120.996 68.4132L117.475 71.2848L113.011 63.8515C112.753 63.7607 112.51 63.6339 112.288 63.475C111.988 63.2824 111.729 63.0307 111.529 62.7352C111.329 62.4397 111.191 62.1065 111.124 61.7559C111.056 61.4052 111.061 61.0446 111.137 60.6957C111.213 60.3469 111.359 60.0173 111.567 59.7268C111.774 59.4363 112.039 59.1912 112.344 59.0062C112.649 58.8212 112.988 58.7002 113.342 58.6507C113.695 58.6012 114.054 58.6241 114.399 58.7181C114.743 58.812 115.064 58.9751 115.343 59.1973C115.716 59.4595 116.019 59.8088 116.226 60.2148C116.433 60.6208 116.538 61.0713 116.532 61.5272Z" fill="#FFB6B6"/>
<path d="M178.424 180.079L175.698 181.853L167.563 172.173L171.587 169.554L178.424 180.079Z" fill="#FFB6B6"/>
<path d="M180.369 182.863L171.986 188.319L171.917 188.213C171.355 187.347 171.159 186.292 171.373 185.281C171.587 184.271 172.193 183.386 173.058 182.823L173.058 182.823L173.834 180.664L177.447 179.967L178.178 179.491L180.369 182.863Z" fill="#2F2E41"/>
<path d="M131.707 184.728L128.455 184.728L126.908 172.174L131.707 172.174L131.707 184.728Z" fill="#FFB6B6"/>
<path d="M131.821 188.123L121.821 188.123V187.996C121.821 186.963 122.231 185.972 122.961 185.242C123.691 184.511 124.681 184.101 125.713 184.101H125.714L127.54 182.714L130.948 184.101L131.821 184.101L131.821 188.123Z" fill="#2F2E41"/>
<path d="M165.364 107.262L136.205 107.904L133.315 111.52C133.315 111.52 129.906 113.3 129.683 114.7C129.461 116.1 127.494 140.966 128.558 141.903C129.621 142.839 126.541 149.304 126.315 149.699C126.089 150.093 123.651 169.554 126.315 171.154L127.316 177.947H131.972C131.972 177.947 136.637 172.544 135.698 171.564C134.76 170.585 137.445 167.328 137.547 165.581C137.65 163.835 138.63 155.913 137.871 154.643C137.111 153.372 136.084 148.606 138.011 146.758C139.938 144.91 148.925 122.201 148.925 122.201C148.925 122.201 151.536 148.823 151.53 150.914C151.522 153.632 153.306 152.287 153.306 154.674C153.306 155.156 159.113 167.548 163.016 171.422L171.088 177.637L174.813 174.84V170.801C174.813 170.801 171.361 163.305 170.156 162.1C168.952 160.895 164.505 157.205 164.505 155.517C164.505 153.83 162.412 153.242 163.82 151.004C165.228 148.767 164.746 147.803 164.264 146.838C163.783 145.874 169.322 115.498 169.322 115.498L165.364 107.262Z" fill="#2F2E41"/>
<path d="M159.843 52.1412L147.192 51.5327L143.954 56.8489C143.954 56.8489 134.498 57.7988 135.85 61.3587C137.203 64.9185 138.377 86.0556 136.465 89.1082C134.553 92.1607 131.62 89.6303 134.17 95.5966C136.721 101.563 131.045 112.06 131.045 112.06L147.56 115.546C147.56 115.546 160.807 111.688 163.215 109.277C165.624 106.867 167.791 104.938 166.346 104.215C164.901 103.492 160.807 103.009 162.974 99.6342C165.142 96.2591 165.407 96.4151 165.395 94.1674C165.383 91.9196 164.116 86.3498 164.116 86.3498C164.116 86.3498 172.43 62.7482 169.925 61.857C167.421 60.9658 160.429 56.8489 160.429 56.8489L159.843 52.1412Z" fill="#E6E6E6"/>
<path d="M143.472 59.3811C143.472 59.3811 136.216 55.9297 135.145 60.6665C134.075 65.4033 129.943 77.2863 129.943 77.2863C129.943 77.2863 125.366 74.634 126.09 73.1879C126.813 71.7418 122.896 71.5221 124.163 69.0895C125.429 66.657 119.586 64.2679 119.586 64.2679L112.602 67.1609C112.602 67.1609 115.306 71.2183 117.103 73.0072C118.9 74.796 116.216 75.1155 118.382 77.2863C120.549 79.4572 124.911 87.5781 124.911 87.5781L130.591 89.9486L146.545 80.1935L143.472 59.3811Z" fill="#E6E6E6"/>
<path d="M153.206 48.6754C158.072 48.6754 162.017 44.7269 162.017 39.856C162.017 34.9852 158.072 31.0366 153.206 31.0366C148.339 31.0366 144.395 34.9852 144.395 39.856C144.395 44.7269 148.339 48.6754 153.206 48.6754Z" fill="#FFB6B6"/>
<path d="M158.946 42.1219C159.364 41.9089 159.898 42.2811 159.998 42.7402C160.027 42.9737 160.008 43.2108 159.942 43.4368C159.876 43.6628 159.765 43.8729 159.616 44.0544C159.315 44.415 159.045 44.8007 158.81 45.2071C158.695 45.4127 158.641 45.6469 158.654 45.882C158.668 46.1172 158.748 46.3436 158.886 46.5346C159.036 46.6809 159.225 46.7815 159.43 46.8248C159.635 46.8681 159.848 46.8522 160.044 46.7792C160.435 46.6263 160.781 46.3763 161.048 46.0528C162.733 44.2235 164.49 41.1867 163.629 38.8529C163.558 38.6035 163.529 38.3437 163.545 38.0847C163.529 37.7878 163.474 37.3404 163.753 37.2394C164.533 36.9576 162.345 32.3954 158.968 31.4028C159.132 29.8451 151.008 27.6044 151.451 29.56C151.531 29.9112 150.747 29.7204 150.387 29.7398C147.631 29.8891 144.518 30.5825 144.769 33.7803C144.866 35.0186 144.354 34.733 143.943 35.9051C144.583 36.287 144.793 37.1246 145.287 36.5657C145.78 36.0067 146.202 35.3066 146.909 35.0719C147.662 34.8219 148.48 35.1958 149.122 35.6621C149.764 36.1283 150.354 36.7076 151.109 36.9518C151.956 37.2258 152.879 37.0352 153.762 37.1461C155.017 37.3036 156.132 38.0715 156.962 39.0275C157.752 40.0177 158.42 41.1006 158.949 42.2522" fill="#2F2E41"/>
<path d="M192.094 188.46L94.1946 188.556C94.097 188.555 94.0035 188.516 93.9347 188.447C93.8658 188.377 93.8271 188.284 93.8271 188.186C93.8271 188.088 93.8658 187.994 93.9347 187.925C94.0035 187.856 94.097 187.817 94.1946 187.816L192.094 187.72C192.192 187.721 192.285 187.76 192.354 187.829C192.423 187.899 192.462 187.993 192.462 188.09C192.462 188.188 192.423 188.282 192.354 188.351C192.285 188.421 192.192 188.46 192.094 188.46Z" fill="#CACACA"/>
<path d="M161.352 111.14C159.241 111.143 157.218 111.983 155.726 113.476C154.234 114.97 153.395 116.995 153.393 119.107V152.891C153.395 155.003 154.234 157.028 155.726 158.521C157.218 160.015 159.241 160.855 161.352 160.857H213.73C215.84 160.855 217.863 160.015 219.355 158.521C220.847 157.028 221.687 155.003 221.689 152.891V119.107C221.687 116.995 220.847 114.97 219.355 113.476C217.863 111.983 215.84 111.143 213.73 111.14H161.352Z" fill="white"/>
<path d="M213.731 161.168H161.352C159.16 161.165 157.058 160.292 155.508 158.741C153.958 157.189 153.085 155.085 153.083 152.891V119.107C153.085 116.912 153.958 114.808 155.508 113.257C157.058 111.705 159.16 110.832 161.352 110.83H213.731C215.923 110.832 218.025 111.705 219.576 113.257C221.126 114.808 221.998 116.912 222 119.107V152.891C221.998 155.085 221.126 157.189 219.576 158.741C218.025 160.292 215.923 161.165 213.731 161.168ZM161.352 111.451C159.325 111.453 157.381 112.261 155.947 113.696C154.513 115.131 153.706 117.077 153.704 119.107V152.891C153.706 154.92 154.513 156.866 155.947 158.301C157.381 159.737 159.325 160.544 161.352 160.546H213.731C215.759 160.544 217.703 159.737 219.137 158.301C220.571 156.866 221.377 154.92 221.38 152.891V119.107C221.377 117.077 220.571 115.131 219.137 113.696C217.703 112.261 215.759 111.453 213.731 111.451H161.352Z" fill="#3F3D56"/>
<path d="M184.487 144.987C184.617 144.094 183.683 143.219 182.401 143.033C181.119 142.846 179.974 143.418 179.844 144.311C179.715 145.204 180.649 146.079 181.931 146.266C183.213 146.452 184.357 145.88 184.487 144.987Z" fill="#E6E6E6"/>
<path d="M199.752 143.496C199.882 142.604 198.947 141.728 197.665 141.542C196.383 141.355 195.239 141.927 195.109 142.82C194.979 143.713 195.913 144.588 197.195 144.775C198.478 144.961 199.622 144.389 199.752 143.496Z" fill="#3F3D56"/>
<path d="M180.308 132.618C180.437 131.725 179.503 130.85 178.221 130.663C176.939 130.476 175.794 131.049 175.665 131.941C175.535 132.834 176.469 133.709 177.751 133.896C179.033 134.083 180.178 133.51 180.308 132.618Z" fill="#8C2667"/>
<path d="M173.674 127.551C173.681 126.731 173.224 126.064 172.654 126.059C172.085 126.055 171.618 126.716 171.612 127.535C171.606 128.355 172.062 129.023 172.632 129.027C173.202 129.031 173.668 128.371 173.674 127.551Z" fill="#E6E6E6"/>
<path d="M171.425 118.113C171.432 117.294 170.975 116.626 170.405 116.622C169.836 116.617 169.369 117.278 169.363 118.098C169.357 118.917 169.813 119.585 170.383 119.59C170.952 119.594 171.419 118.933 171.425 118.113Z" fill="#3F3D56"/>
<path d="M188.917 134.723C188.923 133.903 188.466 133.235 187.897 133.231C187.327 133.227 186.86 133.887 186.854 134.707C186.848 135.527 187.305 136.194 187.874 136.199C188.444 136.203 188.91 135.542 188.917 134.723Z" fill="#E6E6E6"/>
<path d="M181.541 138.409C181.547 137.59 181.09 136.922 180.521 136.917C179.951 136.913 179.484 137.574 179.478 138.393C179.472 139.213 179.929 139.881 180.498 139.885C181.068 139.89 181.534 139.229 181.541 138.409Z" fill="#8C2667"/>
<path d="M191.808 145.223C191.814 144.403 191.358 143.735 190.788 143.731C190.219 143.727 189.752 144.387 189.746 145.207C189.739 146.027 190.196 146.694 190.766 146.699C191.335 146.703 191.802 146.042 191.808 145.223Z" fill="#3F3D56"/>
<path d="M195.235 141.238C196.137 141.238 196.867 140.187 196.867 138.89C196.867 137.593 196.137 136.542 195.235 136.542C194.334 136.542 193.604 137.593 193.604 138.89C193.604 140.187 194.334 141.238 195.235 141.238Z" fill="#E6E6E6"/>
<path d="M191.564 126.333C192.465 126.333 193.195 125.282 193.195 123.985C193.195 122.688 192.465 121.637 191.564 121.637C190.662 121.637 189.932 122.688 189.932 123.985C189.932 125.282 190.662 126.333 191.564 126.333Z" fill="#3F3D56"/>
<path d="M183.608 147.159C184.51 147.159 185.24 146.108 185.24 144.811C185.24 143.514 184.51 142.463 183.608 142.463C182.707 142.463 181.977 143.514 181.977 144.811C181.977 146.108 182.707 147.159 183.608 147.159Z" fill="#8C2667"/>
<path d="M179.835 151.808C180.646 151.696 181.241 151.147 181.163 150.583C181.085 150.018 180.365 149.651 179.554 149.763C178.743 149.874 178.148 150.423 178.226 150.988C178.303 151.553 179.024 151.92 179.835 151.808Z" fill="#E6E6E6"/>
<path d="M170.829 155.395C171.641 155.283 172.235 154.734 172.157 154.169C172.08 153.605 171.359 153.237 170.548 153.349C169.737 153.461 169.142 154.01 169.22 154.574C169.298 155.139 170.018 155.506 170.829 155.395Z" fill="#3F3D56"/>
<path d="M184.731 135.678C185.542 135.566 186.136 135.017 186.059 134.452C185.981 133.887 185.26 133.52 184.449 133.632C183.638 133.744 183.043 134.293 183.121 134.857C183.199 135.422 183.92 135.789 184.731 135.678Z" fill="#E6E6E6"/>
<path d="M189.438 142.453C190.249 142.342 190.843 141.793 190.766 141.228C190.688 140.663 189.967 140.296 189.156 140.408C188.345 140.52 187.751 141.068 187.828 141.633C187.906 142.198 188.627 142.565 189.438 142.453Z" fill="#8C2667"/>
<path d="M194.696 131.301C195.507 131.189 196.101 130.641 196.024 130.076C195.946 129.511 195.225 129.144 194.414 129.256C193.603 129.368 193.008 129.916 193.086 130.481C193.164 131.046 193.884 131.413 194.696 131.301Z" fill="#3F3D56"/>
<path d="M59.2177 12.0178C57.1076 12.0202 55.0846 12.8603 53.5925 14.3538C52.1005 15.8472 51.2612 17.8721 51.2588 19.9842V53.7681C51.2612 55.8802 52.1005 57.9051 53.5925 59.3986C55.0846 60.892 57.1076 61.7321 59.2177 61.7345H111.596C113.706 61.7321 115.729 60.892 117.222 59.3986C118.714 57.9051 119.553 55.8802 119.555 53.7681V19.9842C119.553 17.8721 118.714 15.8472 117.222 14.3538C115.729 12.8603 113.706 12.0202 111.596 12.0178H59.2177Z" fill="white"/>
<path d="M111.596 62.0452H59.2176C57.0252 62.0427 54.9233 61.1698 53.373 59.6181C51.8228 58.0664 50.9507 55.9625 50.9482 53.7681V19.9841C50.9507 17.7897 51.8228 15.6858 53.373 14.1341C54.9233 12.5824 57.0252 11.7095 59.2176 11.707H111.596C113.789 11.7095 115.891 12.5824 117.441 14.1341C118.991 15.6858 119.863 17.7897 119.866 19.9841V53.7681C119.863 55.9625 118.991 58.0664 117.441 59.6181C115.891 61.1698 113.789 62.0427 111.596 62.0452ZM59.2176 12.3285C57.1898 12.3308 55.2457 13.1381 53.8118 14.5733C52.3779 16.0085 51.5714 17.9544 51.5691 19.9841V53.7681C51.5714 55.7978 52.3779 57.7437 53.8118 59.1789C55.2457 60.6141 57.1898 61.4214 59.2176 61.4237H111.596C113.624 61.4214 115.568 60.6141 117.002 59.1789C118.436 57.7437 119.242 55.7978 119.245 53.7681V19.9841C119.242 17.9544 118.436 16.0085 117.002 14.5733C115.568 13.1381 113.624 12.3308 111.596 12.3285H59.2176Z" fill="#3F3D56"/>
<path d="M80.0727 45.7343C79.4235 45.0846 78.6514 44.5711 77.8015 44.2239C76.9516 43.8767 76.041 43.7027 75.123 43.7122L75.0497 43.7124C73.7978 43.7129 72.5683 43.3805 71.4868 42.7493L71.3743 42.6837L71.4649 42.5902C71.9556 42.082 72.3654 41.5014 72.6798 40.8686C72.4565 41.077 72.1901 41.2337 71.8996 41.3276C71.6091 41.4216 71.3015 41.4504 70.9986 41.4122C70.6788 41.374 70.3718 41.2639 70.1006 41.09C69.8294 40.9162 69.6011 40.6831 69.4327 40.4083C68.7684 39.3294 67.9766 37.7987 67.9766 36.6325C67.9776 35.6468 68.1838 34.6721 68.582 33.7706C68.9802 32.8691 69.5617 32.0605 70.2894 31.3964C70.7501 30.9806 71.1181 30.4723 71.3694 29.9046C71.6207 29.3369 71.7496 28.7225 71.7478 28.1016L71.7474 28.0133C71.7473 27.1958 71.8471 26.3814 72.0446 25.5882L72.0646 25.5081L72.147 25.5109C72.6779 25.529 73.2091 25.4845 73.7297 25.3782C73.2414 25.3183 72.7637 25.1911 72.3102 25.0004L72.2217 24.9645L72.2517 24.8736C74.3238 23.5895 79.0012 24.2545 81.7161 18.0372C83.9175 12.9958 91.6848 22.5124 91.6848 28.0133C91.6848 28.5746 91.1299 29.3163 91.5453 29.6873C96.0364 33.6977 92.9376 36.2729 91.9606 38.8643C91.7288 39.4791 92.2314 40.154 92.2314 40.8192C92.2314 40.932 92.2285 41.0486 92.2229 41.1655L92.2142 41.3452L92.0645 41.2455C91.7682 41.0512 91.4937 40.8258 91.2454 40.573C91.5029 41.1662 91.6243 41.8097 91.6006 42.4561C91.5769 43.1025 91.4086 43.7354 91.1083 44.3081C90.7724 45.0138 90.3142 45.6543 89.755 46.1999C88.386 47.3725 86.6212 47.9774 84.8215 47.8909C83.0218 47.8043 81.323 47.0329 80.0727 45.7343Z" fill="#8C2667"/>
<path d="M87.5918 59.1109C87.6224 59.1108 87.652 59.0997 87.6751 59.0797C87.6982 59.0596 87.7133 59.0318 87.7176 59.0015C88.0502 56.0325 88.0701 53.0367 87.7769 50.0635C87.3379 45.3732 85.9279 38.6176 81.7042 33.0693C81.6941 33.0559 81.6815 33.0447 81.667 33.0362C81.6526 33.0278 81.6366 33.0222 81.62 33.02C81.6034 33.0177 81.5866 33.0187 81.5704 33.023C81.5542 33.0273 81.539 33.0347 81.5257 33.0448C81.5124 33.055 81.5012 33.0677 81.4928 33.0822C81.4844 33.0967 81.4789 33.1127 81.4767 33.1293C81.4745 33.1459 81.4756 33.1628 81.4799 33.179C81.4842 33.1951 81.4917 33.2103 81.5019 33.2236C85.6891 38.724 87.0877 45.4301 87.5236 50.0872C87.8152 53.0405 87.7958 56.0163 87.4657 58.9656C87.4632 58.9837 87.4645 59.0021 87.4697 59.0196C87.4749 59.0371 87.4837 59.0532 87.4957 59.067C87.5076 59.0808 87.5224 59.0918 87.539 59.0994C87.5556 59.107 87.5736 59.1109 87.5918 59.1109Z" fill="#3F3D56"/>
<path d="M84.1449 40.8954C84.1717 40.8954 84.1979 40.8869 84.2197 40.8712C84.2414 40.8554 84.2576 40.8331 84.2659 40.8075C84.2742 40.7819 84.2742 40.7544 84.2659 40.7288C84.2576 40.7032 84.2415 40.6809 84.2197 40.6651C83.0162 39.8497 81.7161 39.1872 80.3493 38.693C78.2139 37.9105 74.9667 37.2011 71.6238 38.266C71.5916 38.2762 71.5649 38.2988 71.5494 38.3288C71.5339 38.3588 71.5309 38.3937 71.5411 38.4259C71.5514 38.4581 71.574 38.4849 71.6039 38.5004C71.6339 38.5159 71.6688 38.5189 71.7009 38.5086C74.9754 37.4656 78.1637 38.1632 80.2618 38.9321C81.6067 39.4179 82.8859 40.0692 84.0702 40.8711C84.0919 40.8869 84.118 40.8954 84.1449 40.8954Z" fill="#3F3D56"/>
<path d="M89.9669 26.3817C89.9688 26.3549 89.9623 26.3281 89.9481 26.3053C89.9339 26.2824 89.9129 26.2647 89.888 26.2545C89.8631 26.2444 89.8357 26.2424 89.8096 26.2488C89.7835 26.2553 89.7601 26.2698 89.7428 26.2904C88.8436 27.4331 88.0898 28.6834 87.4989 30.0124C86.5654 32.0879 85.6246 35.2786 86.445 38.6926C86.449 38.7089 86.456 38.7242 86.4658 38.7377C86.4757 38.7512 86.4881 38.7627 86.5023 38.7714C86.5166 38.7802 86.5324 38.786 86.5489 38.7886C86.5654 38.7912 86.5822 38.7905 86.5984 38.7866C86.6147 38.7827 86.63 38.7757 86.6435 38.7658C86.657 38.756 86.6685 38.7436 86.6772 38.7293C86.6859 38.7151 86.6917 38.6992 86.6943 38.6827C86.6969 38.6662 86.6963 38.6493 86.6924 38.6331C85.8888 35.289 86.8136 32.1562 87.7309 30.1169C88.3118 28.8093 89.053 27.5791 89.9373 26.4545C89.9546 26.434 89.965 26.4085 89.9669 26.3817Z" fill="#3F3D56"/>
<path d="M109.751 19.1129C110.483 19.1129 111.077 18.5183 111.077 17.7848C111.077 17.0514 110.483 16.4568 109.751 16.4568C109.018 16.4568 108.424 17.0514 108.424 17.7848C108.424 18.5183 109.018 19.1129 109.751 19.1129Z" fill="#8C2667"/>
<path d="M163.103 109.915L167.209 103.198L171.37 105.011L166.776 111.958C166.844 112.443 166.776 112.938 166.579 113.387C166.381 113.836 166.063 114.221 165.659 114.499C165.255 114.776 164.782 114.936 164.293 114.959C163.803 114.982 163.317 114.868 162.889 114.63C162.46 114.392 162.107 114.039 161.868 113.611C161.629 113.183 161.515 112.696 161.537 112.206C161.559 111.716 161.717 111.242 161.994 110.838C162.271 110.433 162.654 110.113 163.103 109.915Z" fill="#FFB6B6"/>
<path d="M163.502 62.9087C163.502 62.9087 169.237 60.8201 169.959 62.2666C170.682 63.7131 174.562 90.1087 174.067 91.4963C173.572 92.8839 170.441 89.0266 173.572 92.8839C176.703 96.7412 176.222 95.7769 175.499 96.5002C174.777 97.2234 171.796 107.351 171.796 107.351L163.502 106.257L166.347 90.4731L162.683 70.7568L163.502 62.9087Z" fill="#E6E6E6"/>
</g>
<defs>
<clipPath id="clip0_316_605">
<rect width="222" height="188" fill="white" transform="translate(0 0.555908)"/>
</clipPath>
</defs>
</svg>
